<?xml version="1.0" encoding="UTF-8" standalone="no"?>
<!-- Generator: Adobe Illustrator 22.1.0, SVG Export Plug-In . SVG Version: 6.00 Build 0)  -->

<svg
   version="1.1"
   id="Layer_1"
   x="0px"
   y="0px"
   viewBox="0 0 820.8 820.8"
   style="enable-background:new 0 0 820.8 820.8;"
   xml:space="preserve"
   sodipodi:docname="EdgeCut.svg"
   inkscape:version="1.2.1 (9c6d41e, 2022-07-14)"
   xmlns:inkscape="http://www.inkscape.org/namespaces/inkscape"
   xmlns:sodipodi="http://sodipodi.sourceforge.net/DTD/sodipodi-0.dtd"
   xmlns="http://www.w3.org/2000/svg"
   xmlns:svg="http://www.w3.org/2000/svg"><defs
   id="defs141">
	
	
</defs><sodipodi:namedview
   id="namedview139"
   pagecolor="#505050"
   bordercolor="#eeeeee"
   borderopacity="1"
   inkscape:showpageshadow="0"
   inkscape:pageopacity="0"
   inkscape:pagecheckerboard="0"
   inkscape:deskcolor="#505050"
   showgrid="false"
   inkscape:zoom="1.1500975"
   inkscape:cx="383.011"
   inkscape:cy="183.89745"
   inkscape:window-width="2301"
   inkscape:window-height="1371"
   inkscape:window-x="285"
   inkscape:window-y="81"
   inkscape:window-maximized="0"
   inkscape:current-layer="Layer_1" />
<path
   id="path132-7"
   style="vector-effect:non-scaling-stroke;fill:#000000;stroke:none;stroke-width:1;stroke-dasharray:none;-inkscape-stroke:hairline"
   d="m 415.26438,191.25556 c -0.33282,-0.0116 -0.68663,0.51884 -1.07226,1.88086 v 206.89453 c -0.0681,5.18757 -7.20669,4.4959 -7.1211,0 l 0.15235,-206.89844 c -1.08161,-4.52447 -3.16531,2.09894 -4.22656,4.92187 -3.95731,10.52636 -11.3222,12.55062 -9.8711,16.29102 1.3445,3.46579 8.67276,-0.67859 8.85156,3.6582 0.3405,8.25529 -23.69361,8.25667 -18.55273,17.87305 3.3233,6.21678 13.38762,-5.85082 16.04492,-0.23242 2.4979,5.28128 -6.17515,9.50068 -15.42383,13.29687 -8.07338,3.3136 -23.81138,8.09751 -18.83398,14.8086 3.7872,5.10639 10.71077,-6.38706 14.50977,-2.63867 1.59578,1.57449 -5.48838,4.89258 -2.29688,7.89257 4.5263,4.2548 9.95714,-7.72171 14.16992,-2.42382 4.1244,5.18669 -9.48986,13.08418 -16.25586,14.70117 -3.48368,0.8326 -12.74897,1.38884 -13.70117,4.89453 -0.9362,3.4468 4.32052,3.78788 3.57422,6.29687 -2,6.72339 -23.1583,4.17652 -22,11.19141 0.766,4.63829 10.93611,-0.0849 12.38281,2.42578 1.3001,2.2559 -5.65992,8.59506 -0.043,10.12695 5.617,1.5319 9.31782,-12.95783 14.97852,-8.33984 3.234,2.63819 -2.76562,6.63878 -0.16992,9.44727 1.5319,1.65739 8.84043,-0.81048 8.89453,4.97851 0.085,9.10638 -13.10705,1.2756 -21.27735,11.48828 -8.17018,10.21278 -12.84627,12.89063 -20.50585,12.89063 -5.7447,0 -11.67661,2.1856 -9.40821,5.4082 5.3617,7.61698 16.52893,-3.14323 19.36133,1.10547 1.5319,2.29789 -8.29778,7.9575 -2,12 5.98538,3.84199 15.72153,-6.68953 19.36133,-1.14844 1.8248,2.7782 -2.6734,6.46963 -8.8086,6.89453 -9.82968,0.6809 -13.40208,7.59275 -24.50976,10.93555 -9.59118,2.88649 -22.31922,-0.68093 -22.51172,5.06445 -0.2978,8.89368 13.02167,2.17067 14.63867,4.04297 2.1835,2.5282 -8.33348,6.8307 -3.02148,10.08399 8.89368,5.44679 15.49767,-13.57673 20.63867,-7.36133 2.8511,3.44679 -5.8983,3.90704 -4,7.74414 2,4.04259 11.27651,-4.76486 13.19141,3.10742 0.69048,2.83869 -3.61493,5.91506 -9.10743,6.93555 -5.11158,0.9496 -11.18821,-0.13902 -16.84961,1.83008 -5.13108,1.78479 -10.05994,5.74279 -17.70312,6.46679 -12.12768,1.1489 -22.55311,-3.3188 -22.38281,2.42578 0.2273,7.67329 14.04463,2.23923 14.55273,7.32032 0.2553,2.55319 -8.80839,7.87157 -3.78711,10.50976 4.5706,2.4016 7.27773,-5.19047 11.32031,-5.10547 2.2164,0.0467 1.07233,4.49765 3.78711,4.93555 3.9574,0.6383 13.10702,-16.09523 20.4668,-10.93555 2.7006,1.8933 -0.64246,7.10541 -6.33984,9.8711 -5.1696,2.50949 -8.11577,6.37052 -6.29297,8.97461 3.57448,5.10639 10.3351,-5.8671 12.8457,-5.6543 3.2983,0.2795 1.48501,3.46175 5.19141,4.12695 3.31908,0.5958 7.49372,-10.21713 13.0332,-6.56054 1.9464,1.28479 5.2321,6.67549 -12.35156,13.70898 -14.04258,5.61699 -26.16776,1.81236 -28.93164,7.65625 -1.451,3.06819 3.90137,4.04512 2.80469,6.38672 -1.2157,2.59569 -13.43985,6.89453 -22.29883,6.89453 -16.85108,0 -28.33404,-3.22155 -27.14844,3.74414 1.3617,7.99998 20.93555,-0.34058 20.93555,5.78711 0,3.82969 -13.88998,1.28097 -9.8711,7.66016 5.3617,8.51058 21.84892,-4.15639 24.85352,-1.36719 3.44248,3.19569 -9.83418,4.98457 -5.14258,9.10156 4.9151,4.31329 21.86282,-13.11801 26.41602,-5.60742 3.70598,6.11328 -15.47184,5.00394 -13.74414,11.76562 1.13058,4.4251 10.08437,-2.04157 12.31835,0.70313 2.3733,2.91569 -5.48864,4.21149 -2.93554,7.27539 2.55318,3.06379 11.39038,-2.28285 10.83008,4.68164 -0.5958,7.40428 -29.10686,-1.44632 -31.66016,4.85156 -1.6304,4.0217 5.02186,3.74341 4.85156,7.0625 -0.1957,3.8172 -19.49064,0.42637 -22.89062,2.03907 -3.9928,1.89399 4.93328,7.49414 -6.30078,7.49414 -11.23398,0 -21.854,-4.07486 -20.3418,4.76562 1.1064,6.46809 17.02185,1.61701 19.06445,4.59571 1.7566,2.56169 -0.51172,3.74377 2.89258,5.10546 6.16348,2.4654 14.81017,-2.89182 15.57617,1.78907 0.9467,5.78549 -22.15318,1.27365 -21.61328,6.37695 0.8468,8.00428 11.23,2.38775 13.1875,4.68555 2.0716,2.43189 -1.72141,6.41243 2.63867,7.49023 7.57448,1.8723 18.29773,-12.51069 25.78711,-8 2.7428,1.6518 0.17043,5.57628 -3.63867,6.29688 -6.29778,1.19159 -10.55169,3.7491 -9.12891,7.34179 1.4365,3.627 5.25318,3.5159 9.25586,1.59571 3.1118,-1.4927 5.21013,-4.0435 7.72461,-4.2129 4.6972,-0.31629 5.42439,4.85089 13.08399,-2.80859 7.65958,-7.65958 16.52233,-12.01312 20.36133,-6.89453 3.63828,4.85109 -22.01539,11.33863 -15.19141,18.38281 3.95748,4.08509 9.83019,-1.02131 15.63867,-4.5957 3.1011,-1.9084 8.71088,-1.50335 13.10938,0.74805 1.34078,0.6863 1.89318,2.32044 1.30468,3.70703 l -13.70898,32.30078 h -0.0664 v 11.33789 h 131.13086 v -11.33789 h -0.01 L 462.2192,585.90595 c -0.5885,-1.38659 -0.0361,-3.02073 1.30469,-3.70703 4.39848,-2.2514 10.00632,-2.65645 13.10742,-0.74805 5.8085,3.57439 11.68129,8.68079 15.63867,4.5957 6.8241,-7.04418 -18.8297,-13.53172 -15.1914,-18.38281 3.83898,-5.11859 12.70184,-0.76505 20.36132,6.89453 7.6596,7.65948 8.38876,2.4923 13.08594,2.80859 2.5145,0.1694 4.61086,2.7202 7.72266,4.2129 4.00258,1.92019 7.81936,2.03129 9.25586,-1.59571 1.4228,-3.59269 -2.82916,-6.1502 -9.12696,-7.34179 -3.80908,-0.7206 -6.38145,-4.64508 -3.63867,-6.29688 7.4893,-4.51069 18.21263,9.8723 25.78711,8 4.3601,-1.0778 0.56699,-5.05834 2.63867,-7.49023 1.9573,-2.2978 12.34072,3.31873 13.1875,-4.68555 0.5399,-5.1033 -22.56008,-0.59146 -21.61328,-6.37695 0.7659,-4.68089 9.41074,0.67633 15.57422,-1.78907 3.4043,-1.36169 1.13793,-2.54377 2.89453,-5.10546 2.0426,-2.9787 17.9561,1.87238 19.0625,-4.59571 1.5122,-8.84048 -9.10586,-4.76562 -20.33984,-4.76562 -11.23398,0 -2.30994,-5.60015 -6.30274,-7.49414 -3.39998,-1.6127 -22.69297,1.77813 -22.88867,-2.03907 -0.1703,-3.31909 6.48195,-3.0408 4.85157,-7.0625 -2.5532,-6.29788 -31.06436,2.55272 -31.66016,-4.85156 -0.5603,-6.96449 8.27688,-1.61785 10.83008,-4.68164 2.55318,-3.0639 -5.3107,-4.3597 -2.9375,-7.27539 2.2341,-2.7447 11.18961,3.72197 12.32031,-0.70313 1.7277,-6.76168 -17.45024,-5.65234 -13.74414,-11.76562 4.55318,-7.51059 21.49898,9.92071 26.41406,5.60742 4.6914,-4.11699 -8.58506,-5.90587 -5.14258,-9.10156 3.0045,-2.7892 19.49389,9.87777 24.85547,1.36719 4.0188,-6.37919 -9.87304,-3.83047 -9.87304,-7.66016 0,-6.12769 19.5758,2.21287 20.9375,-5.78711 1.18568,-6.96569 -10.29932,-3.74414 -27.1504,-3.74414 -8.85898,0 -21.08117,-4.29884 -22.29687,-6.89453 -1.0968,-2.3416 4.25569,-3.31853 2.80469,-6.38672 -2.764,-5.84389 -14.89112,-2.03926 -28.9336,-7.65625 -17.58366,-7.03349 -14.29599,-12.42419 -12.34961,-13.70898 5.5395,-3.65659 9.71207,7.15634 13.03125,6.56054 3.7063,-0.6652 1.89301,-3.84745 5.19141,-4.12695 2.5106,-0.2128 9.27316,10.76069 12.84766,5.6543 1.8228,-2.60409 -1.12523,-6.46512 -6.29493,-8.97461 -5.69728,-2.76569 -9.04034,-7.9778 -6.33984,-9.8711 7.35988,-5.15968 16.51137,11.57385 20.46875,10.93555 2.7148,-0.4379 1.57071,-4.88885 3.78711,-4.93555 4.0425,-0.085 6.74766,7.50707 11.31836,5.10547 5.02128,-2.63819 -4.04241,-7.95657 -3.78711,-10.50976 0.5081,-5.08109 14.32535,0.35297 14.55273,-7.32032 0.1702,-5.74458 -10.25523,-1.27688 -22.38281,-2.42578 -7.64318,-0.724 -12.57007,-4.682 -17.70117,-6.46679 -5.66148,-1.9691 -11.73998,-0.88048 -16.85156,-1.83008 -5.4925,-1.02049 -9.79597,-4.09686 -9.10547,-6.93555 1.9149,-7.87228 11.19141,0.93517 13.19141,-3.10742 1.89828,-3.8371 -6.8511,-4.29735 -4,-7.74414 5.14108,-6.2154 11.74313,12.80812 20.63671,7.36133 5.312,-3.25329 -5.20291,-7.55579 -3.01953,-10.08399 1.617,-1.8723 14.93462,4.85071 14.63672,-4.04297 -0.1924,-5.74538 -12.91868,-2.17796 -22.50976,-5.06445 -11.10768,-3.3428 -14.68194,-10.25465 -24.51172,-10.93555 -6.1351,-0.4249 -10.63338,-4.11633 -8.8086,-6.89453 3.6397,-5.54109 13.3779,4.99043 19.36328,1.14844 6.2979,-4.0425 -3.53188,-9.70211 -2,-12 2.8325,-4.2487 13.99955,6.51151 19.36133,-1.10547 2.2684,-3.2226 -3.66352,-5.4082 -9.4082,-5.4082 -7.65958,0 -12.33763,-2.67785 -20.50781,-12.89063 -8.17018,-10.21268 -21.36049,-2.3819 -21.27539,-11.48828 0.0541,-5.78899 7.36079,-3.32112 8.89257,-4.97851 2.5958,-2.80849 -3.404,-6.80908 -0.16992,-9.44727 5.6607,-4.61799 9.36142,9.87174 14.97852,8.33984 5.61698,-1.53189 -1.34114,-7.87105 -0.041,-10.12695 1.4468,-2.5107 11.61682,2.21251 12.38282,-2.42578 1.15838,-7.01489 -20.00002,-4.46802 -22,-11.19141 -0.7464,-2.50899 4.51041,-2.85007 3.57421,-6.29687 -0.95208,-3.50569 -10.21942,-4.06193 -13.70312,-4.89453 -6.76588,-1.61699 -20.37829,-9.51448 -16.25391,-14.70117 4.2127,-5.29789 9.64354,6.67862 14.16992,2.42382 3.1915,-2.99999 -3.89452,-6.31808 -2.29882,-7.89257 3.79908,-3.74839 10.72442,7.74506 14.51172,2.63867 4.97728,-6.71109 -10.76071,-11.495 -18.83399,-14.8086 -9.24878,-3.79619 -17.92181,-8.01559 -15.42383,-13.29687 2.6573,-5.6184 12.72154,6.4492 16.04492,0.23242 5.1409,-9.61638 -18.89508,-9.61776 -18.55468,-17.87305 0.1788,-4.33679 7.50696,-0.19241 8.85156,-3.6582 1.451,-3.7404 -4.43218,-6.12951 -9.5625,-16.13672 -1.02592,-2.00118 -1.8492,-6.91831 -2.84766,-6.95312 z"
   sodipodi:nodetypes="sccccssssscsssssssscsssssssssssscsssssssscscsssssssssssssssssssssssssssssssssscsssssssssccccccsssssssssscssssssssssssssssssssssscsssssscsssssssssssssssssssssssscssssssssssssssssss" />
</svg>
