<?xml version="1.0" encoding="UTF-8" standalone="no"?>
<!-- Generator: Adobe Illustrator 22.1.0, SVG Export Plug-In . SVG Version: 6.00 Build 0)  -->

<svg
   version="1.1"
   id="Layer_1"
   x="0px"
   y="0px"
   viewBox="0 0 820.80001 820.80001"
   xml:space="preserve"
   sodipodi:docname="Silk.svg"
   inkscape:version="1.2.1 (9c6d41e, 2022-07-14)"
   width="217.17mm"
   height="217.17mm"
   xmlns:inkscape="http://www.inkscape.org/namespaces/inkscape"
   xmlns:sodipodi="http://sodipodi.sourceforge.net/DTD/sodipodi-0.dtd"
   xmlns="http://www.w3.org/2000/svg"
   xmlns:svg="http://www.w3.org/2000/svg"><defs
   id="defs141">
	
	
</defs><sodipodi:namedview
   id="namedview139"
   pagecolor="#505050"
   bordercolor="#eeeeee"
   borderopacity="1"
   inkscape:showpageshadow="0"
   inkscape:pageopacity="0"
   inkscape:pagecheckerboard="0"
   inkscape:deskcolor="#505050"
   showgrid="false"
   inkscape:zoom="1.1500975"
   inkscape:cx="663.85676"
   inkscape:cy="420.83389"
   inkscape:window-width="2427"
   inkscape:window-height="1438"
   inkscape:window-x="224"
   inkscape:window-y="89"
   inkscape:window-maximized="0"
   inkscape:current-layer="Layer_1"
   inkscape:document-units="mm" />

<g
   id="g1672"
   transform="translate(-355.19473,-11.026317)"><rect
     style="fill:#ffffff;stroke-width:0"
     id="rect350"
     width="6.0472441"
     height="437.90793"
     x="760.38934"
     y="204.09796" /><path
     style="fill:#fef201;stroke:none;stroke-width:0.694143"
     d="m 747.19994,222.3652 c 10.1102,-0.83366 14.25701,-9.20642 14.57701,-18.04772 -4.91731,-0.15757 -12.93397,13.48512 -14.57701,18.04772 z"
     id="path2172" /><path
     style="fill:#fef201;stroke:none;stroke-width:0.694143"
     d="m 765.94181,200.84676 c -1.2321,9.4341 3.18473,21.87801 13.18873,24.98916 -0.44217,-5.92243 -8.8892,-20.69727 -13.18873,-24.98916"
     id="path393" /><path
     style="fill:#fef201;stroke:none;stroke-width:0.694143"
     d="m 769.41253,232.08321 v 0.69415 c 6.95809,5.15818 11.47072,12.26273 20.8243,11.10629 -1.44312,-4.61605 -16.2735,-12.54039 -20.8243,-11.80044 z"
     id="path429" /><path
     style="fill:#fef201;stroke:none;stroke-width:0.694143"
     d="m 736.09364,245.96608 16.65945,-8.32972 c -1.94291,-5.83358 -17.42023,2.95774 -16.65945,8.32972 z"
     id="path439" /><path
     style="fill:#fef201;stroke:none;stroke-width:0.694143"
     d="m 772.1891,250.82508 c -0.73371,3.92053 1.90404,6.51801 3.85666,9.71801 4.25788,6.97823 9.17588,18.03524 18.35593,19.43602 l -7.63558,-11.1063 c 2.16781,-0.4741 1.73536,-1.44867 1.38829,-3.47071 l 11.1063,3.87609 10.41215,5.84191 -2.08243,-7.63557 -16.65945,-7.89866 -6.24729,-0.80937 -9.718,-3.78655 z"
     id="path463" /><path
     style="fill:#fef201;stroke:none;stroke-width:0.694143"
     d="m 747.19994,254.98999 c -9.05302,8.58238 -22.56869,6.63948 -29.84817,18.04772 3.99619,0.88295 5.65172,-2.04425 9.02387,-3.61995 3.65536,-1.70829 8.12564,-0.34569 11.6984,-1.95679 1.87904,-0.84755 2.30108,-2.90222 3.79002,-4.17528 2.63705,-2.25457 8.30057,-4.13293 5.33588,-8.2957 z"
     id="path2158" /><path
     style="fill:#fef201;stroke:none;stroke-width:0.694143"
     d="m 740.95265,278.59082 c -1.57571,-2.82933 -3.45753,-2.53362 -6.24729,-1.38829 -2.95081,-4.48347 -6.7207,2.21363 -3.16946,4.05311 2.26707,1.17518 7.07471,-2.02412 9.41675,-2.66482 z"
     id="path507" /><path
     style="fill:#fef201;stroke:none;stroke-width:0.694143"
     d="m 783.2954,284.83811 c -0.56781,9.82074 19.65883,19.4027 27.07159,13.88287 v -1.38829 z"
     id="path2150" /><path
     style="fill:#fef201;stroke:none;stroke-width:0.694143"
     d="m 714.5752,299.41512 17.35358,-1.38828 c -1.16755,3.84347 -1.06967,11.47002 4.4335,5.91757 3.55401,-3.58456 8.89892,-14.88035 8.06108,-19.80044 -3.29509,1.09258 -5.87939,3.38811 -9.02386,4.83887 -6.67697,3.07992 -16.05137,4.58829 -20.8243,10.43228"
     id="path2146" /><path
     style="fill:#fef201;stroke:none;stroke-width:0.694143"
     d="m 805.50799,309.82731 4.16486,2.08243 v 0.69414 l -9.02387,-2.77657 1.38829,2.08243 -9.71801,-2.08243 v 0.69414 l 7.63558,2.77657 c 2.68772,4.16972 9.99011,5.39697 14.57701,4.85901 l -2.08243,-4.16486 11.80044,0.69414 v -1.38829 c -4.23289,-1.62013 -15.33085,-6.70265 -18.74187,-3.47071 z"
     id="path2142" /><path
     style="fill:#fef201;stroke:none;stroke-width:0.694143"
     d="m 715.96348,314.68628 -2.08243,-4.859 4.16486,-0.69415 c -1.777,-5.30187 -15.54534,0.36234 -18.71133,2.9869 -1.45145,1.20365 -4.30021,4.33701 -1.86169,6.00712 3.24026,2.21848 6.77276,-2.41493 9.4938,-3.42074 2.95081,-1.09119 5.98421,-0.25822 8.99679,-0.0201"
     id="path559" /><path
     style="fill:#fef201;stroke:none;stroke-width:0.694143"
     d="m 725.02483,323.74277 c -4.41336,1.08772 -3.76017,8.95514 1.30985,8.0354 4.17389,-0.75661 3.58248,-9.24113 -1.30985,-8.0354 z"
     id="path2134" /><path
     style="fill:#fef201;stroke:none;stroke-width:0.694143"
     d="m 787.46026,325.09843 v 1.38829 l 12.49458,3.47071 2.77657,0.69415 c -2.10395,-6.7443 -9.73605,-7.9056 -15.27115,-5.55315"
     id="path2132" /><path
     style="fill:#fef201;stroke:none;stroke-width:0.694143"
     d="m 706.24548,325.79257 c 10.42881,4.98187 5.15193,-9.84781 0,0"
     id="path591" /><path
     style="fill:#fef201;stroke:none;stroke-width:0.694143"
     d="m 799.95484,340.36959 -0.69414,2.08243 -5.55315,-0.69415 c 4.18291,4.78959 13.27966,3.26664 13.88287,11.1063 l -4.16486,0.69414 c 2.60026,5.53024 9.92763,11.87818 15.96529,13.18873 l -4.859,-9.02387 2.08243,-1.38829 c 7.98751,4.42447 17.89571,8.2735 27.07159,9.02387 l 2.08243,-4.859 c -6.57492,-1.94361 -13.87731,-0.35957 -20.13015,-3.83792 -9.70413,-5.39905 -14.1765,-14.76166 -25.68331,-16.29224 z"
     id="path2124" /><path
     style="fill:#fef201;stroke:none;stroke-width:0.694143"
     d="m 681.25631,361.19389 v 1.38829 l 0.69415,0.69414 22.21259,-6.85189 7.63557,-4.25441 c 5.32061,1.03428 8.25198,-1.95123 11.84834,-5.4629 1.53753,-1.50074 4.11557,-3.89901 1.22447,-5.58994 -3.75185,-2.19349 -8.17493,1.06898 -10.99038,3.22915 -5.02976,3.86014 -10.12616,9.64721 -15.96529,12.13502 -5.51983,2.35106 -11.07853,1.79852 -16.65945,4.71254"
     id="path603" /><path
     style="fill:#fef201;stroke:none;stroke-width:0.694143"
     d="m 710.41034,374.38261 v -1.38828 l -11.1063,1.38828 2.08243,-6.24729 c -3.57414,1.70829 -7.68,8.80452 -1.35844,10.16365 3.39228,0.72885 7.65571,-2.22473 10.38231,-3.91636 z"
     id="path663" /><path
     style="fill:#fef201;stroke:none;stroke-width:0.694143"
     d="m 809.67285,385.48891 v 1.38829 l 13.18872,4.859 c -1.66455,2.77796 -2.96538,3.83584 -6.24729,3.47072 l -0.69414,0.69414 1.38828,3.47072 -7.63557,-2.08243 c 5.15609,6.26256 12.83818,12.23011 20.8243,13.88286 l -6.24729,-8.32972 2.08243,-1.38828 2.77657,0.69414 -0.69414,-2.77657 15.27115,3.47071 -4.859,-6.94143 c 8.04026,2.99662 14.09944,2.31913 22.21259,2.08243 -1.72425,-5.32269 -8.87324,-2.80503 -13.18873,-3.64148 -4.52373,-0.87739 -8.8767,-0.74412 -13.18872,-2.63566 -8.52894,-3.74143 -15.1004,-10.76686 -24.98916,-6.21744 z"
     id="path2114" /><path
     style="fill:#fef201;stroke:none;stroke-width:0.694143"
     d="m 660.43201,399.37178 11.80044,-1.02803 13.18872,-0.36026 c -1.63123,1.76937 -3.13128,3.71506 -4.92078,5.32755 -1.19254,1.07384 -10.24764,8.02222 -4.63549,9.36677 3.21666,0.7705 5.98005,-4.01839 8.19506,-5.61076 3.19098,-2.29345 8.27766,-4.78959 10.66343,-7.85007 1.5882,-2.03731 1.63748,-4.67297 3.52208,-6.62351 3.10352,-3.2125 7.8945,-5.10821 8.69415,-9.88114 -7.13857,1.85198 -13.45042,7.2663 -20.8243,9.37858 -7.84799,2.24763 -20.01424,0.68512 -25.68331,7.28087"
     id="path2112" /><path
     style="fill:#fef201;stroke:none;stroke-width:0.694143"
     d="m 816.61428,420.89022 c -0.0666,4.35784 5.99185,7.09623 9.71801,8.32972 l -0.69414,-3.47071 9.718,4.859 c 0.75454,3.93996 5.54413,4.44599 9.02387,4.79653 8.28599,0.83436 16.08191,4.60217 24.29502,6.30977 -1.07593,-3.80113 -3.85319,-5.56218 -7.63558,-6.2473 v -0.69414 l 15.9653,1.98247 11.10629,-3.37076 c -2.8321,-4.36685 -13.31367,-1.34247 -18.04773,-2.21848 -8.19644,-1.51601 -16.1895,-4.64521 -24.29502,-6.00989 -9.64859,-1.6243 -19.87679,-1.541 -29.15402,-4.26621"
     id="path719" /><path
     style="fill:#fef201;stroke:none;stroke-width:0.694143"
     d="m 664.59687,428.5258 0.69415,2.08243 -27.76574,2.08243 c 7.48703,8.98846 23.64391,0.59558 32.62474,1.38829 -0.58933,1.24321 -1.66178,3.66369 0.80035,3.7338 4.08156,0.11592 7.18091,-5.01797 10.39549,-6.78179 5.95505,-3.26802 11.40547,-3.76017 17.95818,-4.58759 -1.70412,-2.62803 -6.0328,-2.59193 -9.02386,-2.45033 -8.32278,0.39358 -17.72842,2.01718 -25.68331,4.53276 z"
     id="path729" /><path
     style="fill:#fef201;stroke:none;stroke-width:0.694143"
     d="m 813.83771,439.6321 c 4.90273,6.3875 13.21371,6.27158 20.13016,9.38065 5.57466,2.50586 10.7731,7.15245 16.65944,8.66707 -2.43367,-5.17553 -11.39159,-11.94551 -16.65944,-14.1869 -2.05397,-0.87393 -4.16348,0.16382 -6.24729,-0.75453 -5.27272,-2.32261 -8.03749,-5.98213 -13.88287,-3.10629 z"
     id="path759" /><path
     style="fill:#fef201;stroke:none;stroke-width:0.694143"
     d="m 684.72703,448.65596 v -1.38829 l -0.69414,-0.69414 c -3.84556,1.13145 -9.5535,3.90803 -12.0302,7.16981 -1.02525,1.35011 -2.442,5.63366 0.30334,6.07375 2.27818,0.36443 10.14768,-9.24946 12.421,-11.16113 z"
     id="path767" /><path
     style="fill:#fef201;stroke:none;stroke-width:0.694143"
     d="m 662.51444,474.33927 c -0.40052,5.26924 -6.20842,8.49215 -11.10629,9.3751 -11.11185,2.0033 -24.01459,-2.02621 -34.70717,3.11948 2.63913,5.23245 17.88599,3.45475 23.60087,3.47071 v 4.16487 l -8.32972,5.55314 c 9.69927,2.86681 13.19358,-5.39419 20.94231,-8.98915 5.0374,-2.33719 11.94204,-0.31653 17.17102,-3.60053 5.51636,-3.46447 8.57406,-10.53709 13.40877,-14.75054 4.06699,-3.54361 10.8807,-5.86552 15.80981,-8.06109 v -1.38829 c -6.05987,-1.43757 -10.26707,1.6715 -15.9653,2.90221 -6.29032,1.35775 -13.27688,0.65736 -19.43254,2.43437 -3.24929,0.93848 -5.36712,4.44529 -1.39176,5.76972 z"
     id="path2086" /><path
     style="fill:#fef201;stroke:none;stroke-width:0.694143"
     d="m 828.41472,461.15054 -0.69414,2.08243 -4.85901,-0.69414 c 4.3141,5.51011 13.79402,8.43245 20.13016,11.20278 2.56972,1.12312 6.16746,3.05839 8.32972,0.59766 h 13.18873 c -4.20165,-8.79341 -17.73329,-5.72252 -25.68331,-7.61823 -3.76295,-0.89683 -7.09623,-3.64772 -10.41215,-5.5705"
     id="path777" /><path
     style="fill:#fef201;stroke:none;stroke-width:0.694143"
     d="m 862.42775,481.97484 c -0.0729,4.78751 7.0039,7.4086 11.10629,8.15549 12.18222,2.21918 23.77441,-0.77397 36.09546,-0.51991 -2.44339,-4.9541 -7.60781,-4.78612 -12.49458,-5.35532 -11.17571,-1.30082 -23.823,2.33302 -34.70717,-2.28026 z"
     id="path2076" /><path
     style="fill:#fef201;stroke:none;stroke-width:0.694143"
     d="m 823.55571,482.66899 0.69415,2.08243 h -5.55315 c 2.52182,4.93258 10.05606,7.4315 15.27116,8.32972 l -6.24729,-4.16486 v -0.69415 l 24.98916,6.94144 c -0.78785,-5.04434 -14.5194,-10.17337 -19.43602,-11.80044 l -0.69414,2.08243 -9.02387,-2.77657"
     id="path827" /><path
     style="fill:#fef201;stroke:none;stroke-width:0.694143"
     d="m 696.52747,495.16357 h -1.38829 l -0.69414,-2.08243 -8.32972,4.16486 1.38828,4.16486 -3.47071,3.47072 c 6.32434,1.58056 7.40581,-2.92443 11.43879,-6.25979 4.22664,-3.49501 9.53059,-3.73657 7.99722,-11.0938 l 4.16486,-3.47072 c -7.42108,-1.80893 -9.89918,5.25675 -11.10629,11.1063 z"
     id="path833" /><path
     style="fill:#fef201;stroke:none;stroke-width:0.694143"
     d="m 865.20432,495.16357 -0.69414,0.69414 c 2.7488,5.28729 8.14924,4.86109 13.21649,5.74473 6.58742,1.1495 11.84903,3.26456 18.7141,3.27914 -1.58958,-5.28591 -6.69154,-4.29328 -11.10629,-4.89094 -6.53883,-0.88434 -13.5705,-3.32772 -20.13016,-4.82707 z"
     id="path895" /><path
     style="fill:#fef201;stroke:none;stroke-width:0.694143"
     d="m 857.56874,502.79915 c -3.70534,-2.28235 -8.1784,-3.96287 -12.49458,-2.77658 v 0.69415 l 24.98916,8.0833 9.02387,3.71713 c -2.5128,-5.1075 -9.482,-10.73839 -14.57701,-13.14985 -4.68478,-2.21709 -8.87602,-2.98898 -6.94144,3.43185 z"
     id="path2066" /><path
     style="fill:#fef201;stroke:none;stroke-width:0.694143"
     d="m 655.57301,503.49329 c -5.16304,-9.26404 -16.41441,9.79992 -6.94074,4.48139 0.9475,-0.53171 1.85614,-1.15297 2.77241,-1.73675 1.40425,-0.89405 2.78837,-1.81449 4.16833,-2.74464 z"
     id="path911" /><path
     style="fill:#fef201;stroke:none;stroke-width:0.694143"
     d="m 655.57301,515.98787 7.63557,0.69414 2.08244,-6.24729 c -3.90109,1.06413 -7.50022,1.99497 -9.71801,5.55315 z"
     id="path2058" /><path
     style="fill:#fef201;stroke:none;stroke-width:0.694143"
     d="m 847.85073,518.76444 -2.08243,-3.47071 20.13016,4.859 c -1.9908,-6.1508 -17.94152,-7.59948 -23.60087,-8.32347 -1.92694,-0.24642 -4.82361,-2.71271 -6.67974,-1.87627 -2.1227,0.95583 0.26377,3.58455 1.17032,4.41822 3.11879,2.8689 6.89701,4.29536 11.06256,4.39323"
     id="path923" /><path
     style="fill:#fef201;stroke:none;stroke-width:0.694143"
     d="m 838.13273,530.56488 4.16486,2.77658 c -0.22976,5.98698 12.66811,6.55896 17.35358,6.94143 v 0.69414 l -2.77657,0.69415 4.859,3.47071 -2.08243,2.77658 c 2.92304,3.39852 6.86508,3.62898 11.1063,4.16486 l -0.69415,-2.08243 4.16486,0.69414 -0.69414,-2.08243 13.88287,3.47072 c 1.41605,4.0184 16.43732,5.19497 20.8243,5.55315 v -2.08243 l 15.27116,1.38828 v -1.38828 l 4.16486,2.08243 2.08243,-2.08243 c -0.87462,-5.66144 -4.49805,-4.86595 -9.02387,-5.49415 -7.85076,-1.0898 -16.75662,0.79896 -24.98916,0.63514 v -4.16486 l 2.08243,-0.69414 c -3.99132,-7.77371 -19.47072,0.0326 -26.37745,-6.94144 l 7.63558,-2.08243 c -1.68677,-5.6885 -19.85389,-6.49301 -23.60088,-2.77657 l 4.85901,2.08243 -22.21259,-5.55315"
     id="path929" /><path
     style="fill:#fef201;stroke:none;stroke-width:0.694143"
     d="m 644.46671,535.42389 13.88287,0.69414 v 5.55315 c -3.58872,0.23045 -6.72347,2.08243 -10.35037,2.09978 -6.20911,0.0305 -18.20114,-5.52885 -20.88608,2.75922 4.82013,1.42508 10.51835,0.72746 15.27115,-0.69414 l -0.69414,2.08243 3.47072,0.69414 -1.38829,1.38829 v 0.69414 l 12.49458,-0.69414 -0.69414,3.47072 -11.80044,6.94143 v 1.38829 c 6.69709,1.30846 13.70378,-5.40113 20.13016,-6.94144 l -2.08243,-4.859 c 3.71436,0.29293 13.2866,2.56208 10.41215,-4.16486 l 2.77657,-0.69415 v -1.38828 l -3.47071,-3.47072 4.16486,-1.38829 -0.69415,-2.08243 2.08243,-0.69414 c -2.49891,-1.89293 -5.37614,-1.09605 -8.32972,-1.75549 -7.48286,-1.66941 -18.19627,-6.26048 -24.29502,1.06135 z"
     id="path933" /><path
     style="fill:#fef201;stroke:none;stroke-width:0.694143"
     d="m 601.42982,552.77747 c 0.51783,1.68677 0.99471,3.42213 2.92512,3.93371 5.30187,1.40634 19.58526,-0.29778 24.84062,-1.85128 v -1.38828 c -6.6971,-3.75254 -21.17207,-4.71879 -27.76574,-0.69415 z"
     id="path1005" /><path
     style="fill:#fef201;stroke:none;stroke-width:0.694143"
     d="m 826.33229,554.8599 -0.69414,0.69415 c 2.91748,4.84998 9.98178,7.07609 15.27115,8.32972 v 0.69414 l -3.47072,-0.69414 -0.69414,0.69414 v 1.38829 l 18.74187,12.49458 -10.41215,-5.27619 -15.9653,-4.44182 -0.69414,2.08243 -11.1063,-2.77657 -0.69414,0.69414 7.63558,4.99228 22.90673,8.54907 12.49458,-0.0403 20.13016,8.01736 c -3.13059,-5.98907 -15.42248,-9.56183 -21.51844,-11.80044 1.17587,-2.4184 0.91835,-3.44851 -1.38829,-4.859 v -0.69415 l 14.60478,-0.45883 8.9961,1.84712 c -2.95706,-5.1318 -10.22474,-5.16859 -15.27116,-6.95185 -6.66586,-2.35592 -12.52026,-6.75263 -19.43602,-8.51089 -7.17605,-1.8249 -12.30646,-0.48521 -19.43601,-3.97328 z"
     id="path2036" /><path
     style="fill:#fef201;stroke:none;stroke-width:0.694143"
     d="m 670.15002,562.49548 v 1.38829 l 0.69414,0.69414 c 3.26039,-0.60737 6.33059,-1.56946 9.02387,0.69414 l -18.04773,6.94144 v 0.69414 c 3.71505,1.55766 6.1515,0.96972 9.71801,-0.69414 l -0.69415,2.77657 2.77658,-0.69414 c 2.35453,3.58872 7.31835,0.55184 10.41215,-0.85449 8.97735,-4.08087 17.22586,-8.73302 26.37745,-11.64009 -0.87809,-2.63844 -2.29901,-2.61554 -4.85901,-2.08243 v -0.69415 l 4.85901,-1.38828 -0.69415,-2.77658 c -13.36295,2.59124 -27.05146,2.16157 -39.56617,7.63558"
     id="path1021" /><path
     style="fill:#fef201;stroke:none;stroke-width:0.694143"
     d="m 618.08926,574.99006 c 2.75853,0.81562 5.47679,0.80521 8.32972,0.39705 1.85545,-0.26585 3.71645,-0.58377 5.55315,-0.95722 1.2682,-0.25753 8.46508,-1.39592 6.81927,-3.91011 -0.96139,-1.46811 -4.63896,-0.82464 -6.12513,-0.7941 -5.19149,0.1062 -12.95757,-0.73996 -14.57701,5.26438 z"
     id="path1071" /><path
     style="fill:#fef201;stroke:none;stroke-width:0.694143"
     d="m 884.64034,570.8252 c 3.44989,5.62603 18.83905,6.31115 24.29502,3.47072 -3.24165,-5.93007 -18.60999,-5.15124 -24.29502,-3.47072 z"
     id="path1075" /><path
     style="fill:#fef201;stroke:none;stroke-width:0.694143"
     d="m 681.25631,597.20265 5.07697,-6.81302 10.19419,-6.3757 c -3.94065,-7.73693 -19.35133,4.70837 -15.27116,13.18872 z"
     id="path1107" /></g></svg>
