<?xml version="1.0" encoding="UTF-8" standalone="no"?>
<!-- Generator: Adobe Illustrator 22.1.0, SVG Export Plug-In . SVG Version: 6.00 Build 0)  -->

<svg
   version="1.1"
   id="Layer_1"
   x="0px"
   y="0px"
   viewBox="0 0 820.80001 820.80001"
   xml:space="preserve"
   sodipodi:docname="Cu.svg"
   inkscape:version="1.2.1 (9c6d41e, 2022-07-14)"
   width="217.17mm"
   height="217.17mm"
   xmlns:inkscape="http://www.inkscape.org/namespaces/inkscape"
   xmlns:sodipodi="http://sodipodi.sourceforge.net/DTD/sodipodi-0.dtd"
   xmlns="http://www.w3.org/2000/svg"
   xmlns:svg="http://www.w3.org/2000/svg"><defs
   id="defs141">
	
	
</defs><sodipodi:namedview
   id="namedview139"
   pagecolor="#505050"
   bordercolor="#eeeeee"
   borderopacity="1"
   inkscape:showpageshadow="0"
   inkscape:pageopacity="0"
   inkscape:pagecheckerboard="0"
   inkscape:deskcolor="#505050"
   showgrid="false"
   inkscape:zoom="2.300195"
   inkscape:cx="519.95592"
   inkscape:cy="404.53092"
   inkscape:window-width="1728"
   inkscape:window-height="1051"
   inkscape:window-x="0"
   inkscape:window-y="38"
   inkscape:window-maximized="0"
   inkscape:current-layer="Layer_1"
   inkscape:document-units="mm" />

<path
   style="color:#000000;clip-rule:evenodd;vector-effect:non-scaling-stroke;fill:#ffffff;stroke-width:1;stroke-linejoin:round;stroke-miterlimit:1.41421;stroke-dasharray:none;-inkscape-stroke:hairline"
   d="m 410.38422,143.03352 c -1.44395,0.028 -2.72634,0.82502 -3.17773,2.11914 l -7.51954,21.5332 3.75782,2.97266 6.9414,-19.70703 c 0.20237,-0.57536 0.3711,-0.17969 0.3711,-0.17969 l 2.27148,6.69726 4.69922,-0.082 -3.28711,-10.12304 c -0.44107,-1.21892 -1.13374,-2.48575 -2.58398,-2.99219 -0.49206,-0.17177 -0.99134,-0.24763 -1.47266,-0.23828 z m -1.16992,15.15234 -1.56641,4.52539 20.89063,0.0606 c 0.60993,0 0.29297,0.28906 0.29297,0.28906 l -5.57422,4.35352 1.62695,4.41211 8.47266,-6.44336 c 1.00655,-0.8171 1.97265,-1.88792 1.97265,-3.42383 0,-2.08311 -1.48152,-3.77344 -3.30859,-3.77344 z m -19.69336,0.14648 c -1.31326,0.0417 -2.74551,0.30489 -3.66406,1.53907 -1.24363,1.67044 -1.03873,3.93051 0.46093,5.04687 l 18.72266,13.94532 3.98828,-2.67188 -17.11328,-12.82031 c -0.50149,-0.37353 -0.0645,-0.41016 -0.0645,-0.41016 l 7.17383,-0.084 1.30078,-4.53125 z m 26.39648,5.82227 6.71094,21.30469 c 0.19917,0.61859 -0.18164,0.38086 -0.18164,0.38086 l -6.73437,-5.01953 -3.82813,2.96093 9.81641,7.37696 c 1.10486,0.7773 2.44021,1.43639 3.90429,0.97265 1.98482,-0.63203 3.11372,-2.65408 2.52149,-4.51562 l -7.38672,-23.23633 z m 0.62891,8.02149 -18.04102,13.53124 c -0.52416,0.39659 -0.42382,-0.043 -0.42382,-0.043 l 2.60156,-8.26563 -4.00586,-2.55664 -3.89453,11.91016 c -0.37547,1.30937 -0.56423,2.79122 0.36133,4.01562 1.25486,1.66441 3.54755,2.05035 5.12109,0.86328 l 19.65625,-14.82226 z"
   id="path2372" /><g
   style="clip-rule:evenodd;fill:#ffffff;fill-rule:evenodd;stroke-linejoin:round;stroke-miterlimit:1.41421"
   id="g433"
   transform="matrix(0,-0.01482638,0.01482638,0,368.64079,582.25052)"><path
     id="path132-3"
     style="clip-rule:evenodd;fill:#ffffff;fill-rule:nonzero;stroke-linejoin:round;stroke-miterlimit:1.41421"
     d="m 2412.5098,1.5839844 c -43.8259,0.8512022 -82.7861,25.0596796 -96.4864,64.3378906 l -228.2011,653.531245 114.0468,90.22657 210.6661,-598.12891 c 6.142,-17.46298 11.2597,-5.42969 11.2597,-5.42969 l 68.9863,203.26563 142.6211,-2.49805 -99.7929,-307.246092 C 2522.2224,62.646615 2501.2181,24.195203 2457.2012,8.8242188 2442.2667,3.610724 2427.1184,1.3002503 2412.5098,1.5839844 Z m -35.5391,459.9238256 -47.5469,137.35938 634.0703,1.80078 c 18.512,0 8.8965,8.81055 8.8965,8.81055 l -169.166,132.08789 49.3574,133.91601 257.1387,-195.57812 c 30.55,-24.79998 59.8906,-57.28735 59.8906,-103.9043 0,-63.22494 -44.9581,-114.49219 -100.4121,-114.49219 z m -597.6699,4.41016 c -39.859,1.266 -83.3632,9.29494 -111.2422,46.75391 -37.746,50.69994 -31.5013,119.29476 14.0156,153.17773 l 568.2422,423.24219 121.0547,-81.1172 -519.4043,-389.09179 c -15.221,-11.33699 -1.9844,-12.4375 -1.9844,-12.4375 l 217.7461,-2.55273 39.4551,-137.51758 z m 801.1269,176.71484 203.6914,646.66209 c 6.045,18.775 -5.5039,11.5508 -5.5039,11.5508 l -204.3711,-152.3477 -116.2343,89.8477 297.9511,223.875 c 33.534,23.592 74.0533,43.6023 118.4903,29.5273 60.2419,-19.1829 94.5003,-80.5039 76.5254,-137.0039 L 2726.7812,649.48242 Z m 19.0703,243.46289 -547.5332,410.6914 c -15.9089,12.037 -12.871,-1.2637 -12.871,-1.2637 l 78.9667,-250.9277 -121.5703,-77.54297 -118.25,361.46677 c -11.396,39.741 -17.1173,84.717 10.9746,121.8789 38.087,50.517 107.6903,62.2263 155.4493,26.1973 l 596.6211,-449.8672 z m 776.6543,955.4063 c -14.1119,0 -24.4534,7.282 -31.0664,21.791 l -157.1543,386.9668 c -1.746,3.955 -2.6328,8.3588 -2.6328,13.2168 0,10.992 6.1534,18.7034 18.4864,23.1074 3.95,1.746 8.1389,2.6348 12.5429,2.6348 10.567,-1e-4 18.2754,-5.9379 23.1094,-17.8418 l 34.3398,-86.4883 h 205.3633 l 35.6504,86.4883 c 4.837,11.9039 12.5494,17.8418 23.1074,17.8418 4.838,0 9.2457,-0.8888 13.2207,-2.6348 11.875,-4.837 17.8438,-12.5444 17.8438,-23.1074 0,-4.858 -0.9102,-9.2618 -2.6602,-13.2168 l -159.791,-386.9668 c -4.837,-13.625 -14.5332,-20.903 -29.0742,-21.791 z m -2520.23824,0 c -8.81699,0 -15.62461,2.4443 -20.47461,7.2813 -4.83799,4.834 -7.25,11.6646 -7.25,20.4726 v 392.2363 c 0,8.812 2.41201,15.6386 7.25,20.4766 4.85,4.833 11.65762,7.25 20.47461,7.25 h 237.06644 c 8.8,0 15.621,-2.417 20.459,-7.25 4.8539,-4.838 7.2656,-11.6646 7.2656,-20.4766 0,-8.817 -2.4117,-15.6376 -7.2656,-20.4746 -4.838,-4.838 -11.659,-7.2539 -20.459,-7.2539 H 883.65625 v -142.6465 h 131.40425 c 8.8,0 15.6197,-2.4238 20.4747,-7.2578 4.833,-4.837 7.25,-11.6626 7.25,-20.4746 0,-8.809 -2.417,-15.6088 -7.25,-20.4668 -4.855,-4.838 -11.6747,-7.2597 -20.4747,-7.2597 H 883.65625 v -138.6739 h 209.32425 c 8.8,0 15.621,-2.4159 20.459,-7.2539 4.8539,-4.862 7.2656,-11.6576 7.2656,-20.4746 0,-8.808 -2.4117,-15.6386 -7.2656,-20.4726 -4.838,-4.837 -11.659,-7.2813 -20.459,-7.2813 z m 1212.44144,0 c -8.812,0 -15.6247,2.4443 -20.4707,7.2813 -4.837,4.834 -7.2578,11.6646 -7.2578,20.4726 v 392.2363 c 0,8.812 2.4208,15.6386 7.2578,20.4766 4.846,4.833 11.6587,7.25 20.4707,7.25 h 237.0664 c 8.796,0 15.626,-2.417 20.459,-7.25 4.85,-4.838 7.2695,-11.6646 7.2695,-20.4766 0,-8.817 -2.4195,-15.6376 -7.2695,-20.4746 -4.833,-4.838 -11.663,-7.2539 -20.459,-7.2539 h -209.3242 v -142.6465 h 131.4082 c 8.796,0 15.6207,-2.4238 20.4707,-7.2578 4.833,-4.837 7.2539,-11.6626 7.2539,-20.4746 0,-8.809 -2.4209,-15.6088 -7.2539,-20.4668 -4.85,-4.838 -11.6747,-7.2597 -20.4707,-7.2597 h -131.4082 v -138.6739 h 209.3242 c 8.796,0 15.626,-2.4159 20.459,-7.2539 4.85,-4.862 7.2695,-11.6576 7.2695,-20.4746 0,-8.808 -2.4195,-15.6386 -7.2695,-20.4726 -4.833,-4.837 -11.663,-7.2813 -20.459,-7.2813 z m 1599.9121,0 c -8.809,0 -15.6377,2.4443 -20.4707,7.2813 -4.838,4.834 -7.2539,11.6646 -7.2539,20.4726 v 392.2363 c 0,8.812 2.4159,15.6386 7.2539,20.4766 4.833,4.833 11.6617,7.25 20.4707,7.25 h 180.9375 c 40.4669,0 71.4209,-10.5641 92.7539,-31.7051 21.363,-21.117 32.0293,-51.9408 32.0293,-92.4238 v -22.4727 c 0,-51.4999 -17.3914,-87.3738 -52.1543,-107.6328 8.784,-7.924 15.6123,-17.8128 20.4453,-29.7168 4.838,-11.879 7.2852,-24.8539 7.2852,-38.9629 v -17.8086 c 0,-34.3419 -9.4846,-60.7522 -28.3965,-79.2402 -18.921,-18.483 -45.7917,-27.7539 -80.5586,-27.7539 z m -3528.07619,0 c -41.378962,0 -72.092399,10.0203 -92.109379,30.0703 -20.04498,20.013 -30.052734,50.7306 -30.052734,92.1015 0,41.833 10.132926,72.8705 30.378906,93.1075 20.24598,20.2539 51.062167,30.3886 92.453127,30.3886 h 81.87109 c 27.73797,0 46.888,5.2666 57.45899,15.8496 10.56199,10.558 15.83789,29.9328 15.83789,58.0957 0,18.937 -2.1998,33.5838 -6.5918,43.9258 -4.408,10.346 -11.78292,17.7073 -22.12891,22.1153 -10.34499,4.404 -25.20519,6.6093 -44.57617,6.6093 h -95.08594 c -22.89197,0 -39.729585,-2.8794 -50.517574,-8.6054 -10.786989,-5.716 -17.721878,-16.0623 -20.796875,-31.0293 -1.761998,-9.675 -4.849239,-16.607 -9.240234,-20.795 -4.408996,-4.191 -11.020415,-6.2832 -19.816406,-6.2832 -9.245991,0 -16.283099,2.5496 -21.1210941,7.6036 -4.8499952,5.071 -6.83407727,12.2169 -5.95507815,21.4589 5.28299475,31.679 18.38380225,55.1404 39.30078125,70.3204 20.903979,15.1789 50.287522,22.7832 88.14648,22.7832 h 95.08594 c 43.58396,0 75.94719,-10.4497 97.07617,-31.3497 21.13798,-20.9079 31.69141,-53.1749 31.69141,-96.7539 0,-44.0169 -10.55343,-76.6085 -31.69141,-97.7285 -21.12898,-21.117 -53.49221,-31.709 -97.07617,-31.709 h -81.87109 c -18.05398,0 -31.81154,-2.0709 -41.269533,-6.2539 -9.470991,-4.192 -16.188301,-10.9934 -20.154297,-20.4804 -3.962996,-9.454 -5.9375,-23.2116 -5.9375,-41.2696 0,-17.5959 1.871098,-31.1396 5.621094,-40.5976 3.728996,-9.487 10.329884,-16.2024 19.796875,-20.1524 9.474991,-3.95 23.218451,-5.9375 41.273441,-5.9375 h 78.57617 c 20.24998,0 35.22902,2.4199 44.91601,7.2539 9.67499,4.866 16.27884,13.6542 19.79883,26.4121 1.334,9.242 4.1799,16.0997 8.58789,20.4747 4.404,4.409 11.00051,6.6093 19.8125,6.6093 9.67499,0 16.94298,-2.5264 21.79297,-7.6054 4.837,-5.05 6.59434,-12.1955 5.27734,-21.4375 -10.56198,-58.121 -50.62361,-87.1914 -120.18554,-87.1914 z m 1085.05079,0 c -8.817,0 -15.6246,2.4462 -20.4746,7.2832 -4.838,4.834 -7.2539,11.6627 -7.2539,20.4707 v 392.2382 c 0,8.812 2.4159,15.6367 7.2539,20.4747 4.85,4.833 11.6576,7.25 20.4746,7.25 8.8,0 15.6206,-2.417 20.4746,-7.25 4.833,-4.838 7.2617,-11.6627 7.2617,-20.4747 V 2110.916 h 92.4512 l 1.9707,3.3106 100.3711,167.0683 c 6.163,9.671 13.6449,14.5371 22.4609,14.5371 4.396,0 9.4547,-1.7758 15.1797,-5.2968 9.675,-5.724 14.5215,-13.4036 14.5215,-23.1036 0,-5.2909 -1.3163,-10.1291 -3.9453,-14.5371 l -86.5098,-143.9375 c 30.809,-4.833 54.3603,-17.838 70.6563,-38.9589 16.2869,-21.146 24.4238,-49.0915 24.4238,-83.8575 v -19.834 c 0,-40.4909 -10.6657,-71.4164 -32.0156,-92.7753 -21.358,-21.337 -52.2835,-32.0293 -92.7754,-32.0293 z m 3308.4219,0 c -8.833,0 -15.6251,2.4462 -20.4571,7.2832 -4.834,4.834 -7.25,11.6627 -7.25,20.4707 v 392.2382 c 0,8.812 2.416,15.6367 7.25,20.4747 4.832,4.833 11.6241,7.25 20.4571,7.25 8.834,0 15.625,-2.417 20.4589,-7.25 4.833,-4.838 7.2911,-11.6627 7.2911,-20.4747 V 2110.916 h 92.4589 l 1.9571,3.3106 100.375,167.0683 c 6.167,9.671 13.625,14.5371 22.459,14.5371 4.416,0 9.459,-1.7758 15.2089,-5.2968 9.667,-5.724 14.5,-13.4036 14.5,-23.1036 0,-5.2909 -1.3349,-10.1291 -3.9589,-14.5371 L 4717.957,2108.957 c 30.749,-4.833 54.2901,-17.838 70.6231,-38.9589 16.292,-21.146 24.4179,-49.0915 24.4179,-83.8575 v -19.834 c 0,-40.4909 -10.666,-71.4164 -32.041,-92.7753 -21.3339,-21.337 -52.292,-32.0293 -92.75,-32.0293 z m -2924.9668,0 c -8.813,0 -15.6246,2.4443 -20.4746,7.2813 -4.834,4.834 -7.2559,11.6646 -7.2559,20.4726 v 392.2363 c 0,8.812 2.4219,15.6386 7.2559,20.4766 4.85,4.833 11.6616,7.25 20.4746,7.25 8.8,0 15.6246,-2.417 20.4746,-7.25 4.833,-4.838 7.2695,-11.6646 7.2695,-20.4766 v -312.9941 l 251.5762,324.2246 c 4.4,5.725 8.8088,9.8909 13.2168,12.5449 4.392,2.633 9.2464,3.9512 14.5254,3.9512 8.8,0 15.6247,-2.417 20.4707,-7.25 4.838,-4.838 7.2578,-11.6646 7.2578,-20.4766 v -392.2363 c 0,-8.808 -2.4198,-15.6386 -7.2578,-20.4726 -4.846,-4.837 -11.6707,-7.2813 -20.4707,-7.2813 -8.812,0 -15.6386,2.4443 -20.4766,7.2813 -4.85,4.834 -7.2656,11.6646 -7.2656,20.4726 v 312.9961 l -251.5762,-324.2266 c -4.85,-5.7249 -9.3619,-9.9158 -13.5449,-12.5488 -4.192,-2.629 -8.9162,-3.9746 -14.1992,-3.9746 z m 828.9707,0 c -8.817,0 -15.6226,2.4443 -20.4766,7.2813 -4.838,4.834 -7.2539,11.6646 -7.2539,20.4726 v 392.2363 c 0,8.812 2.4159,15.6386 7.2539,20.4766 4.854,4.833 11.6596,7.25 20.4766,7.25 8.787,0 15.6116,-2.417 20.4746,-7.25 4.833,-4.838 7.2832,-11.6646 7.2832,-20.4766 v -312.9941 l 251.5703,324.2246 c 4.404,5.725 8.8128,9.8909 13.2168,12.5449 4.408,2.633 9.2457,3.9512 14.5117,3.9512 8.813,0 15.6376,-2.417 20.4746,-7.25 4.838,-4.838 7.25,-11.6646 7.25,-20.4766 v -392.2363 c 0,-8.808 -2.412,-15.6386 -7.25,-20.4726 -4.837,-4.837 -11.6616,-7.2813 -20.4746,-7.2813 -8.812,0 -15.6366,2.4443 -20.4746,7.2813 -4.837,4.834 -7.2539,11.6646 -7.2539,20.4726 v 312.9961 l -251.5703,-324.2266 c -4.867,-5.7249 -9.3799,-9.9158 -13.5469,-12.5488 -4.191,-2.629 -8.9199,-3.9746 -14.2109,-3.9746 z m 459.0019,0 c -18.483,0 -27.7304,9.2709 -27.7304,27.7539 V 2261.5 c 0,18.487 9.2474,27.7246 27.7304,27.7246 h 210.6524 c 18.4879,0 27.7304,-9.2376 27.7304,-27.7246 0,-18.492 -9.2425,-27.7285 -27.7304,-27.7285 h -182.8946 v -364.5098 c 0,-18.483 -9.2708,-27.7539 -27.7578,-27.7539 z m 1296.461,0 c -50.163,-0.429 -87.3757,11.342 -111.5586,35.334 -24.234,23.991 -36.3203,61.3106 -36.3203,111.9355 v 152.5332 c 0,50.621 11.9825,87.9457 35.9785,111.9336 23.9869,23.996 61.2884,35.9805 111.9004,35.9805 h 79.25 c 50.6249,0 87.916,-11.9845 111.957,-35.9805 23.959,-23.9879 35.959,-61.3126 35.959,-111.9336 v -151.8906 c 0,-50.5959 -12,-87.9162 -35.959,-111.9082 -24.041,-23.991 -61.3321,-36.0039 -111.957,-36.0039 z m -3772.35942,0.6719 c -18.48798,0 -27.74218,9.2415 -27.74218,27.7285 0,18.488 9.2542,27.7285 27.74218,27.7285 H 548.87109 V 2261.5 c 0,18.487 9.24126,27.7246 27.74024,27.7246 8.80499,0 15.60889,-2.417 20.46289,-7.25 4.84999,-4.838 7.26758,-11.6626 7.26758,-20.4746 v -363.8633 h 128.11132 c 18.48399,0 27.73047,-9.2405 27.73047,-27.7285 0,-18.487 -9.24648,-27.7285 -27.73047,-27.7285 z m 3763.69922,54.7949 c 2.8042,-0.043 5.6914,-0.037 8.6602,0.016 h 79.25 c 23.7459,0 42.25,2.8754 55.4589,8.5703 13.249,5.725 22.7081,15.2095 28.4161,28.4004 5.708,13.221 8.5839,31.709 8.5839,55.459 v 151.8906 c 0,24.213 -2.8759,42.8257 -8.5839,55.8047 -5.708,12.984 -15.084,22.3329 -28.084,28.0489 -12.959,5.726 -31.5821,8.6054 -55.791,8.6054 h -79.25 c -24.167,0 -42.7964,-2.8794 -55.7754,-8.6054 -13.004,-5.716 -22.3548,-15.0649 -28.0508,-28.0489 -5.75,-12.979 -8.5996,-31.5917 -8.5996,-55.8047 v -152.5332 c 0,-23.7789 2.8496,-42.266 8.5996,-55.457 5.696,-13.221 15.154,-22.6794 28.375,-28.4004 11.5649,-5.0058 27.1619,-7.6478 46.791,-7.9453 z m -488.4687,0.012 h 144.6074 c 19.805,0 33.6957,3.8416 41.5957,11.5586 7.921,7.704 11.875,21.0362 11.875,39.9531 v 17.8086 c 0,14.996 -2.6333,27.1923 -7.9043,36.6543 -5.287,9.484 -13.6458,14.8559 -25.0918,16.1719 h -165.082 z m -2443.0235,0 h 126.7891 c 25.091,0 42.9205,5.3989 53.4785,16.1739 10.575,10.805 15.8535,28.5095 15.8535,53.1464 v 19.834 c 0,25.091 -5.2785,42.9069 -15.8535,53.4649 -10.558,10.563 -28.3875,15.8594 -53.4785,15.8594 h -126.7891 z m 3308.4356,0 h 126.7929 c 25.124,0 42.9151,5.3989 53.4981,16.1739 10.584,10.805 15.834,28.5095 15.834,53.1464 v 19.834 c 0,25.091 -5.25,42.9069 -15.834,53.4649 -10.583,10.563 -28.3741,15.8594 -53.4981,15.8594 h -126.7929 z m -1187.2579,32.3457 82.5469,200.0938 h -161.1328 z m 321.8458,145.2793 h 153.2031 c 25.1,0 42.9127,5.187 53.4707,15.5039 10.587,10.35 15.8535,27.8671 15.8535,52.5 v 22.4727 c 0,24.633 -5.3988,42.2564 -16.1738,52.8184 -10.804,10.5589 -28.5084,15.8554 -53.1504,15.8554 H 3696.002 Z" /></g><path
   style="fill:#fef201;stroke:none;stroke-width:0.694143"
   d="m 407.06966,199.45847 c -4.10377,6.4118 -11.61163,13.6663 -11.80044,21.51845 9.38066,-0.60391 6.71792,-8.69554 12.24053,-13.19775 4.45987,-3.63592 8.06872,4.09961 8.58378,7.6446 l 2.08243,-0.69414 c 0.66499,4.49874 2.29622,10.40451 7.63558,10.41215 l 3.47071,1.38829 c -0.26516,-3.93788 -6.63393,-17.04192 -10.41215,-16.65945 l -4.16486,-7.63557 -3.47072,1.38828 -0.69414,-3.47071 z"
   id="path387" /><path
   style="fill:#fef201;stroke:none;stroke-width:0.694143"
   d="m 420.25839,233.4715 -0.69415,0.69414 c 2.12894,5.28174 5.65658,7.73831 11.1063,9.02387 -0.36304,1.76312 -0.41302,1.86377 1.38829,2.08243 l -1.38829,2.77657 7.63558,-1.38829 c -0.85796,-6.6013 -9.20365,-12.26204 -15.9653,-11.10629 l -0.69415,-2.08243 z"
   id="path433" /><path
   style="fill:#fef201;stroke:none;stroke-width:0.694143"
   d="m 384.85707,243.88365 c 6.06335,-1.34386 9.90196,-0.6157 13.88287,-6.24729 l -0.69414,-1.38829 c -5.22898,0.6407 -10.84252,2.65024 -13.18873,7.63558 z"
   id="path445" /><path
   style="fill:#fef201;stroke:none;stroke-width:0.694143"
   d="m 364.03277,273.03767 6.94143,-3.47071 c 1.96027,2.90152 5.42682,0.50811 8.32973,-0.0548 7.33987,-1.42369 18.01996,-8.39289 20.13016,-15.91046 -3.70673,0.87115 -6.27159,3.53735 -9.71801,5.00547 -8.76565,3.73379 -21.15541,4.72225 -25.68331,14.43054"
   id="path467" /><path
   style="fill:#fef201;stroke:none;stroke-width:0.694143"
   d="m 425.81154,256.37823 1.38828,3.47072 -0.69414,2.08243 7.63558,8.32972 -0.69415,-4.859 1.38829,-2.08243 c 6.62699,3.42282 12.9784,7.98681 20.8243,8.32972 -1.03219,-3.23679 -4.3141,-5.71419 -7.63558,-6.24729 -1.97345,-6.26604 -16.66985,-6.99558 -22.21258,-9.02387 z"
   id="path473" /><path
   style="fill:#fef201;stroke:none;stroke-width:0.694143"
   d="m 429.9764,285.53226 v 0.69414 l 2.77657,0.69414 c -0.15688,4.89233 4.52651,5.69823 7.21215,9.06135 2.53432,3.17293 3.26247,8.38872 7.36486,9.68052 l -0.69414,-6.94143 10.41215,2.77657 c 0.52477,-1.52642 1.38759,-3.13405 0.23809,-4.598 -2.03384,-2.58985 -6.43263,-3.30829 -9.26196,-4.68894 -6.06403,-2.95844 -10.72173,-8.83922 -18.04772,-6.67835"
   id="path2345" /><path
   style="fill:#fef201;stroke:none;stroke-width:0.694143"
   d="m 361.2562,299.41512 9.718,-0.69414 -0.69414,1.38829 h 2.77658 v 5.55314 c 3.83028,-1.04537 13.12416,-9.20225 11.80043,-13.18872 4.02187,-1.75757 7.81536,-4.28356 9.71801,-8.32972 -8.2374,0.0687 -17.69788,5.75098 -24.98916,9.482 -3.47974,1.77978 -6.4958,1.98178 -8.32972,5.78915"
   id="path521" /><path
   style="fill:#fef201;stroke:none;stroke-width:0.694143"
   d="m 457.74213,307.74488 c 4.60842,6.94212 11.2833,6.62074 18.74187,8.32972 l 0.69415,-0.69415 c -2.92096,-6.37154 -12.80209,-8.61709 -19.43602,-7.63557"
   id="path2357" /><path
   style="fill:#fef201;stroke:none;stroke-width:0.694143"
   d="m 345.98504,315.38045 c 5.66491,-6.9e-4 13.8669,-3.00425 16.65944,-8.32972 -5.83497,0.26655 -15.60226,1.50352 -16.65944,8.32972"
   id="path2355" /><path
   style="fill:#fef201;stroke:none;stroke-width:0.694143"
   d="m 453.57727,337.59301 -0.69414,2.77658 h 3.47072 c -0.0909,3.90941 3.44642,6.59019 5.52538,9.718 2.17614,3.27428 3.47419,7.55159 6.48399,10.19072 5.16859,4.53207 17.74161,6.06821 24.08608,3.69215 -2.98204,-7.51618 -11.24304,-4.55983 -17.35358,-7.63488 -9.19185,-4.62577 -11.20139,-16.7122 -21.51845,-18.74257 m -101.34494,14.57701 c 3.83306,-1.80685 14.1286,-9.23766 15.27116,-13.18872 -6.67697,1.92347 -12.98118,6.39861 -15.27116,13.18872 z"
   id="path599" /><path
   style="fill:#fef201;stroke:none;stroke-width:0.694143"
   d="m 364.72691,364.66461 -7.63557,3.47071 v 0.69415 c 3.87262,0.96763 5.51844,-1.40495 9.03427,-2.3823 7.03168,-1.95541 11.66508,-0.58239 14.5666,-8.724 l -0.69414,-0.69414 -5.55315,2.77657 -0.69414,-3.47072 3.47072,-2.77657 c -5.64547,-1.15644 -11.66786,5.86204 -12.49459,11.1063 z"
   id="path619" /><path
   style="fill:#fef201;stroke:none;stroke-width:0.694143"
   d="m 330.71389,363.97046 c 6.8026,-0.29709 16.36998,-2.45449 19.43601,-9.02386 -6.46941,2.1567 -17.20504,1.14672 -19.43601,9.02386 z"
   id="path623" /><path
   style="fill:#fef201;stroke:none;stroke-width:0.694143"
   d="m 484.81373,401.45421 -1.38829,-4.16486 c 7.73762,2.45241 20.11836,3.47627 27.76574,0.69414 v -1.38829 c -8.14231,-2.57596 -17.16478,-0.90169 -24.98917,-4.43349 -5.10681,-2.30595 -11.92538,-10.3705 -17.9443,-9.16408 -3.69492,0.74134 -0.81562,4.38976 0.66638,5.68017 5.20955,4.53901 8.98499,10.74465 15.88964,12.77641"
   id="path2335" /><path
   style="fill:#fef201;stroke:none;stroke-width:0.694143"
   d="m 345.98504,384.79476 0.69415,-2.08243 c -4.02534,1.37233 -5.88426,5.2269 -9.72079,6.84912 -7.88269,3.33189 -23.26699,1.03774 -27.06882,9.11618 l 21.51845,-3.47071 -0.69414,2.08243 4.16486,-0.69415 c 1.7187,5.19497 7.25033,1.7194 8.32972,-2.08243 l -2.77658,0.69415 c 3.72755,-6.44998 12.87151,-5.33936 14.57702,-13.18873 l -9.02387,2.77657"
   id="path673" /><path
   style="fill:#fef201;stroke:none;stroke-width:0.694143"
   d="m 479.95472,421.58437 c -0.758,5.06933 6.04391,4.82846 9.71801,4.859 0.15896,3.48738 3.75809,4.80903 6.24729,6.93102 7.43983,6.34308 29.07142,4.61536 36.7896,-0.68373 v -1.38829 l -22.90673,-0.92182 z"
   id="path2297" /><path
   style="fill:#fef201;stroke:none;stroke-width:0.694143"
   d="m 454.96556,422.27851 c -0.59696,4.03297 5.29909,7.85909 7.63558,11.10629 l -2.08243,0.69415 v 1.38828 l 16.65944,0.69415 c -1.61874,-2.49753 -4.17389,-2.08035 -6.94144,-2.08243 l -2.77657,-3.47072 v -0.69414 h 2.77657 c -2.83696,-4.99853 -10.37744,-5.54829 -15.27115,-7.63558 m -134.66382,8.32972 9.718,-1.38829 -4.16486,4.85901 c 5.52955,0.94126 16.40192,-6.14803 18.74188,-11.1063 -7.92365,0.62543 -20.99646,-2.03245 -24.29502,7.63558 z"
   id="path723" /><path
   style="fill:#fef201;stroke:none;stroke-width:0.694143"
   d="m 284.90042,434.07895 16.65944,2.08243 6.94144,-4.85901 c -3.88721,-0.92251 -6.63671,0.63792 -10.41215,0.59211 -5.31228,-0.0646 -10.09285,-4.23844 -13.18873,2.18447 z"
   id="path743" /><path
   style="fill:#fef201;stroke:none;stroke-width:0.694143"
   d="m 519.5209,442.40867 c -0.0812,4.41892 4.07323,8.40052 8.32972,9.02386 -0.92182,-4.76043 -4.12113,-7.05458 -8.32972,-9.02386 z"
   id="path763" /><path
   style="fill:#fef201;stroke:none;stroke-width:0.694143"
   d="m 318.91345,454.90325 c 4.38282,0.65805 9.05302,-1.59167 11.10629,-5.55315 -5.11514,-0.35818 -8.75176,0.54976 -11.10629,5.55315 z"
   id="path771" /><path
   style="fill:#fef201;stroke:none;stroke-width:0.694143"
   d="m 480.64887,463.23297 v 1.38829 c 2.82863,1.65275 5.94186,2.95774 8.03887,5.58299 2.83141,3.54499 2.56903,8.56851 7.92642,8.99402 2.34274,-4.46473 13.8676,-2.55098 14.63185,-7.00738 0.44217,-2.57805 -4.69588,-3.06603 -6.30212,-3.31176 -7.27532,-1.11271 -17.1391,-7.04416 -24.29502,-5.64616"
   id="path2303" /><path
   style="fill:#fef201;stroke:none;stroke-width:0.694143"
   d="m 324.4666,469.48026 c -5.21788,-2.99037 -6.76443,-0.46091 -11.80044,1.2092 -1.81727,0.60252 -5.31784,1.40148 -4.81736,4.12321 0.40122,2.17961 3.57484,0.83367 4.81805,0.50603 4.19193,-1.10577 9.71107,-1.6944 11.79975,-5.83844 z"
   id="path783" /><path
   style="fill:#fef201;stroke:none;stroke-width:0.694143"
   d="m 308.5013,482.66899 0.69414,-2.08243 -9.02386,4.00868 -19.43602,2.23861 c 0.66499,-4.35089 -3.27636,-2.82864 -6.24729,-2.69883 -5.6538,0.24711 -11.13961,0.35609 -13.88287,6.16954 l 29.84817,0.69415 -0.69415,6.24729 13.18873,-9.02387 -6.24729,5.55315 h 10.41215 c 0.58586,4.63827 13.1915,-3.7338 15.9653,-4.859 v -1.38829 l -2.08243,-0.69414 v -0.69415 c 3.2944,-1.04329 6.44581,-2.40104 5.55315,-6.24729 l 12.49458,-5.55314 v -1.38829 l -0.69415,-0.69414 -6.24729,1.38828 0.69415,-2.08243 z"
   id="path797" /><path
   style="fill:#fef201;stroke:none;stroke-width:0.694143"
   d="m 520.21504,484.75142 v 0.69414 l 5.55315,0.69414 v 0.69415 l -12.49458,1.16269 -16.65945,-1.16269 v 0.69414 l 9.92556,6.52495 8.81632,0.73579 18.04773,3.84556 -5.55315,-6.94144 20.11974,-2.04147 9.72842,3.42976 c 0.25198,-2.03801 1.10092,-4.83124 -0.51783,-6.52287 -1.63748,-1.71037 -6.90811,-2.30733 -9.20017,-2.46351 -8.24782,-0.56295 -19.8525,-1.68261 -27.76574,0.65666 z"
   id="path839" /><path
   style="fill:#fef201;stroke:none;stroke-width:0.694143"
   d="m 271.01755,503.49329 c 5.89467,0 11.06395,-0.25614 13.88287,-6.24729 -5.39002,0.0187 -11.38534,0.95514 -13.88287,6.24729"
   id="path899" /><path
   style="fill:#fef201;stroke:none;stroke-width:0.694143"
   d="m 470.23671,500.02257 v 0.69415 l 15.27116,2.08243 -4.859,2.08243 v 0.69414 l 18.74187,5.55315 -0.69415,-4.85901 -6.94143,-2.77657 v -0.69414 l 6.94143,-0.69415 c -2.33718,-7.21354 -22.84426,-3.74212 -28.45988,-2.08243 z"
   id="path905" /><path
   style="fill:#fef201;stroke:none;stroke-width:0.694143"
   d="m 498.69659,534.0356 c 5.64131,6.39376 21.33589,3.13475 29.15403,3.47072 -1.68955,-10.51489 -22.40487,-6.72278 -29.15403,-3.47072 z"
   id="path2327" /><path
   style="fill:#fef201;stroke:none;stroke-width:0.694143"
   d="m 293.92429,535.42389 9.02386,-0.69415 -0.69414,2.77658 2.77657,0.69414 c -1.86725,4.66812 -5.62256,7.69944 -10.41215,9.02387 l 0.69414,-2.77658 -1.38828,-1.38829 c -6.80678,0.4033 -18.01997,-3.15557 -21.51845,4.16487 l 20.13016,0.69414 -1.38829,2.08243 h 3.47072 l -0.69414,3.47072 c -2.57528,0.41371 -4.0302,0.91141 -4.85901,3.47071 l 19.43602,-6.24729 -15.27116,18.04773 c 7.16356,0.91141 12.31619,-2.17267 15.9653,-9.02386 l 11.80044,-2.77658 v -1.38828 h -4.85901 l 3.47072,-3.47072 -2.08243,-2.08243 -1.38829,-3.47072 9.71801,-6.24729 v -1.38829 l -12.49458,2.08243 1.38829,-4.859 -8.32972,0.69414 6.24729,-6.24729 c -5.89606,0.72885 -15.5509,-1.48685 -18.74187,4.85901"
   id="path2325" /><path
   style="fill:#fef201;stroke:none;stroke-width:0.694143"
   d="m 473.70743,543.75361 c 2.78838,3.19306 9.65623,6.10082 13.88287,5.55315 l -0.69414,4.16486 -2.77658,1.38828 v 0.69415 l 1.38829,1.38828 -6.24729,0.69415 11.01675,3.27635 7.14898,4.8361 7.51758,0.4269 18.04772,4.64937 -0.69414,-5.55315 -4.16486,-1.38828 v -0.69415 l 17.35359,-2.77657 c -1.9804,-3.05423 -6.4243,-2.08243 -9.71801,-2.08243 v -0.69414 l 3.47071,-0.69415 c -2.06091,-3.92746 -8.30264,-4.9895 -12.49458,-5.43514 -9.28208,-0.98777 -19.33189,-2.49892 -28.45988,-4.69241 -4.64312,-1.11618 -9.83948,-4.24469 -14.57701,-3.06117 z"
   id="path2313" /><path
   style="fill:#fef201;stroke:none;stroke-width:0.694143"
   d="m 534.79205,542.36532 -2.08243,3.47072 13.18873,1.38829 c -0.45744,-5.88426 -6.64434,-3.60886 -11.1063,-4.85901"
   id="path967" /><path
   style="fill:#fef201;stroke:none;stroke-width:0.694143"
   d="m 549.36906,550.69504 v 0.69415 c 7.06291,3.84208 14.21259,5.10959 22.21259,4.16486 -0.68789,-9.10161 -16.0007,-7.18578 -22.21259,-4.85901 z"
   id="path997" /><path
   style="fill:#fef201;stroke:none;stroke-width:0.694143"
   d="m 248.11082,557.63648 c 9.70829,0 20.87775,0.22212 29.87524,-3.17987 3.21527,-1.21545 6.48885,-0.47272 8.30265,-3.76157 -7.85632,-0.0652 -15.74456,-0.19366 -23.60088,-0.38594 -3.62134,-0.0888 -8.30612,-1.23141 -11.78725,0.11037 -3.35063,1.2918 -3.30967,4.22525 -2.78976,7.21701 z"
   id="path1001" /><path
   style="fill:#fef201;stroke:none;stroke-width:0.694143"
   d="m 540.3452,559.02476 v 0.69415 l 4.859,0.69414 c -1.33275,-2.05258 -2.56555,-2.00122 -4.859,-1.38829 z"
   id="path1049" /><path
   style="fill:#fef201;stroke:none;stroke-width:0.694143"
   d="m 539.65106,567.35448 c -3.26178,7.6217 9.77492,6.92825 14.57701,6.94144 -1.35011,-4.27454 -10.48296,-5.56842 -14.57701,-6.94144 z"
   id="path1063" /><path
   style="fill:#fef201;stroke:none;stroke-width:0.694143"
   d="m 264.07612,574.99006 c 7.86811,0.62126 17.12174,3.43462 19.43601,-6.24729 -2.97024,0.37206 -5.41293,2.16781 -8.32972,2.56625 -4.81666,0.65735 -8.44356,-1.84365 -11.10629,3.68104 z"
   id="path1067" /><path
   style="fill:#fef201;stroke:none;stroke-width:0.694143"
   d="m 481.34301,586.09636 c 3.29649,5.31297 7.37041,10.38924 13.88287,10.41215 l -3.47072,-2.08243 c 2.17961,-4.33007 -6.63254,-9.32512 -10.41215,-8.32972 z"
   id="path1115" /></svg>
