<?xml version="1.0" encoding="UTF-8" standalone="no"?>
<!-- Generator: Adobe Illustrator 22.1.0, SVG Export Plug-In . SVG Version: 6.00 Build 0)  -->

<svg
   version="1.1"
   id="Layer_1"
   x="0px"
   y="0px"
   viewBox="0 0 820.8 820.8"
   style="enable-background:new 0 0 820.8 820.8;"
   xml:space="preserve"
   sodipodi:docname="EdgeCut.svg"
   inkscape:version="1.2.1 (9c6d41e, 2022-07-14)"
   xmlns:inkscape="http://www.inkscape.org/namespaces/inkscape"
   xmlns:sodipodi="http://sodipodi.sourceforge.net/DTD/sodipodi-0.dtd"
   xmlns="http://www.w3.org/2000/svg"
   xmlns:svg="http://www.w3.org/2000/svg"><defs
   id="defs141">
	
	
</defs><sodipodi:namedview
   id="namedview139"
   pagecolor="#505050"
   bordercolor="#eeeeee"
   borderopacity="1"
   inkscape:showpageshadow="0"
   inkscape:pageopacity="0"
   inkscape:pagecheckerboard="0"
   inkscape:deskcolor="#505050"
   showgrid="false"
   inkscape:zoom="1.1500975"
   inkscape:cx="392.57541"
   inkscape:cy="185.63643"
   inkscape:window-width="2301"
   inkscape:window-height="1371"
   inkscape:window-x="285"
   inkscape:window-y="81"
   inkscape:window-maximized="0"
   inkscape:current-layer="Layer_1" />
<path
   id="path132"
   style="vector-effect:non-scaling-stroke;fill:#000000;stroke:none;stroke-width:1;stroke-dasharray:none;-inkscape-stroke:hairline"
   d="m 410.30469,138.9375 c -2.90371,0.0563 -5.89298,1.78665 -6.9668,4.86523 l -3.64648,10.44532 -10.16602,-0.0137 c -0.0449,5.6e-4 -0.0899,0.002 -0.13477,0.004 -1.76536,0.0561 -4.85046,0.54078 -6.82031,3.1875 -2.42797,3.26279 -2.17833,8.18633 1.30078,10.77734 l 8.57813,6.38868 -3.56055,10.88672 c -0.0159,0.0479 -0.0308,0.0961 -0.0449,0.14453 -0.50072,1.74614 -1.01343,4.9055 1.0293,7.61133 2.51568,3.33674 7.41759,4.26444 10.85937,1.66796 1.71364,-1.3494 4.30184,-4.0173 5.43328,-3.31005 1.44713,1.42194 1.5107,12.15529 -3.69304,19.07763 -6.75737,8.989 -11.01165,12.39632 -9.56055,16.13672 1.3445,3.4658 8.67081,-0.67664 8.84961,3.66016 0.3405,8.25525 -23.69359,8.25669 -18.55274,17.87304 3.3233,6.2168 13.38763,-5.85077 16.04493,-0.23242 2.49785,5.2813 -6.17518,9.50068 -15.42383,13.29688 -8.07335,3.31355 -23.81134,8.09554 -18.83399,14.80664 3.7872,5.10635 10.71277,-6.38707 14.51172,-2.63867 1.5958,1.57445 -5.49028,4.89453 -2.29883,7.89453 4.5263,4.25475 9.95713,-7.72368 14.16993,-2.42578 4.12435,5.18665 -9.48991,13.08612 -16.25586,14.70312 -3.4837,0.8326 -12.74902,1.38688 -13.70117,4.89258 -0.9362,3.4468 4.32051,3.78983 3.57421,6.29883 -1.99995,6.72335 -23.1583,4.17655 -22,11.1914 0.766,4.6383 10.93612,-0.0849 12.38282,2.42578 1.30005,2.2559 -5.65994,8.59506 -0.043,10.12696 5.61695,1.5319 9.31977,-12.9578 14.98047,-8.33985 3.23395,2.6382 -2.76758,6.63682 -0.17188,9.44532 1.5319,1.65735 8.84043,-0.81044 8.89453,4.97851 0.085,9.10635 -13.10709,1.27759 -21.27734,11.49024 -8.17015,10.21275 -12.84631,12.88867 -20.50586,12.88867 -5.74465,0 -11.6766,2.1876 -9.4082,5.41015 5.36165,7.617 16.52897,-3.14318 19.36132,1.10547 1.5319,2.2979 -8.29775,7.95755 -2,12 5.9854,3.842 15.72158,-6.68953 19.36133,-1.14843 1.8248,2.77815 -2.67344,6.46767 -8.80859,6.89257 -9.82965,0.6809 -13.40212,7.59475 -24.50977,10.9375 -9.59115,2.8865 -22.31922,-0.68285 -22.51172,5.0625 -0.2978,8.89365 13.02168,2.17067 14.63868,4.04297 2.18345,2.5282 -8.33344,6.83264 -3.02149,10.08594 8.89365,5.44675 15.49772,-13.57868 20.63867,-7.36328 2.8511,3.4468 -5.89825,3.90904 -4,7.74609 2,4.0426 11.27651,-4.76678 13.19141,3.10547 0.6905,2.8387 -3.61297,5.917 -9.10547,6.9375 -5.11155,0.9496 -11.19021,-0.14097 -16.85156,1.82813 -5.1311,1.78475 -10.05993,5.74475 -17.70313,6.46875 -12.1276,1.1489 -22.55311,-3.31882 -22.38281,2.42578 0.2273,7.67325 14.04659,2.23726 14.55469,7.31836 0.2553,2.55315 -8.80841,7.87352 -3.78711,10.51172 4.57055,2.40155 7.27576,-5.19243 11.31836,-5.10743 2.2164,0.0467 1.07231,4.4996 3.78711,4.9375 3.95735,0.6383 13.109,-16.09715 20.46875,-10.9375 2.7006,1.8933 -0.6444,7.10735 -6.3418,9.87305 -5.16955,2.5095 -8.11577,6.37051 -6.29297,8.97461 3.5745,5.10635 10.33706,-5.86905 12.84766,-5.65625 3.2983,0.2795 1.48505,3.46371 5.1914,4.12891 3.3191,0.5958 7.49176,-10.2191 13.03126,-6.5625 1.94635,1.28475 5.23203,6.67748 -12.35157,13.71093 -14.0425,5.617 -26.16774,1.81045 -28.93164,7.6543 -1.451,3.0682 3.90139,4.04707 2.80469,6.38867 -1.2157,2.5957 -13.43988,6.89258 -22.29883,6.89258 -16.851,0 -28.33404,-3.21956 -27.14844,3.74609 1.3617,8 20.93555,-0.34054 20.93555,5.78711 0,3.8297 -13.88999,1.27901 -9.87109,7.65821 5.36165,8.51055 21.85087,-4.15439 24.85547,-1.36524 3.44245,3.1957 -9.83418,4.98266 -5.14258,9.09961 4.91505,4.3133 21.86086,-13.11602 26.41406,-5.60547 3.706,6.1133 -15.47184,5.00393 -13.74414,11.76563 1.1306,4.42505 10.08436,-2.04353 12.31836,0.70117 2.3733,2.9157 -5.48865,4.21349 -2.93555,7.27734 2.5532,3.0638 11.39038,-2.28281 10.83008,4.68164 -0.5958,7.4043 -29.10686,-1.44824 -31.66016,4.84961 -1.63035,4.0217 5.02187,3.74536 4.85157,7.06446 -0.1957,3.81715 -19.49063,0.42636 -22.89063,2.03906 -3.99275,1.894 4.93327,7.49219 -6.30078,7.49219 -11.23395,0 -21.85204,-4.07483 -20.33984,4.76562 1.1064,6.4681 17.0199,1.61896 19.0625,4.59766 1.75655,2.5617 -0.50977,3.74377 2.89453,5.10547 6.16345,2.46535 14.80822,-2.89379 15.57422,1.78711 0.9467,5.78545 -22.15318,1.27565 -21.61328,6.3789 0.84675,8.00425 11.23,2.38775 13.1875,4.68555 2.07155,2.4319 -1.72143,6.41048 2.63867,7.48828 7.57445,1.8723 18.29771,-12.51065 25.78711,-8 2.74275,1.6518 0.17042,5.57823 -3.63868,6.29883 -6.29775,1.1916 -10.54975,3.74719 -9.12695,7.33984 1.4365,3.627 5.25121,3.51586 9.25391,1.59571 3.11175,-1.4927 5.21011,-4.0435 7.72461,-4.2129 4.69715,-0.31625 5.42443,4.85086 13.08398,-2.80859 7.65955,-7.65955 16.52433,-12.01113 20.36328,-6.89258 3.6383,4.8511 -22.0154,11.33862 -15.1914,18.38282 3.95745,4.08505 9.82826,-1.02131 15.63671,-4.59571 3.1011,-1.9084 8.71088,-1.50335 13.10938,0.74805 1.3408,0.6863 1.89319,2.31848 1.30469,3.70508 l -13.70899,32.30078 h -0.0684 v 11.33789 h 62.38477 v -11.33789 -48.875 -174.11719 c -0.0437,-4.22691 6.3639,-4.18848 6.42383,0 v 174.11719 48.875 11.33789 h 62.32226 v -11.33789 h -0.008 l -13.70898,-32.30078 c -0.5885,-1.3866 -0.0361,-3.01878 1.30468,-3.70508 4.3985,-2.2514 10.00828,-2.65645 13.10938,-0.74805 5.80845,3.5744 11.68127,8.68076 15.63867,4.59571 6.82405,-7.0442 -18.83166,-13.53172 -15.19336,-18.38282 3.839,-5.11855 12.70383,-0.76697 20.36328,6.89258 7.65955,7.65945 8.38679,2.49234 13.08399,2.80859 2.51445,0.1694 4.61281,2.7202 7.72461,4.2129 4.00255,1.92015 7.8174,2.03129 9.2539,-1.59571 1.4228,-3.59265 -2.8292,-6.14824 -9.12695,-7.33984 -3.8091,-0.7206 -6.38147,-4.64703 -3.63867,-6.29883 7.48925,-4.51065 18.21261,9.8723 25.78711,8 4.36005,-1.0778 0.56697,-5.05638 2.63867,-7.48828 1.9573,-2.2978 12.3407,3.3187 13.1875,-4.68555 0.5399,-5.10325 -22.56008,-0.59345 -21.61328,-6.3789 0.7659,-4.6809 9.41072,0.67824 15.57422,-1.78711 3.40425,-1.3617 1.13793,-2.54377 2.89453,-5.10547 2.0426,-2.9787 17.95805,1.87044 19.06445,-4.59766 1.5122,-8.84045 -9.10785,-4.76562 -20.3418,-4.76562 -11.23395,0 -2.30798,-5.59819 -6.30078,-7.49219 -3.39995,-1.6127 -22.69492,1.77809 -22.89062,-2.03906 -0.1703,-3.3191 6.48196,-3.04276 4.85156,-7.06446 -2.5532,-6.29785 -31.06436,2.55469 -31.66016,-4.84961 -0.5603,-6.96445 8.27688,-1.61784 10.83008,-4.68164 2.5532,-3.06385 -5.30874,-4.36164 -2.93554,-7.27734 2.23405,-2.7447 11.1877,3.72388 12.31835,-0.70117 1.7277,-6.7617 -17.45019,-5.65233 -13.74414,-11.76563 4.5532,-7.51055 21.49897,9.91877 26.41407,5.60547 4.69135,-4.11695 -8.58508,-5.90391 -5.14258,-9.09961 3.0045,-2.78915 19.49387,9.87579 24.85547,1.36524 4.01875,-6.3792 -9.8711,-3.82851 -9.8711,-7.65821 0,-6.12765 19.57385,2.21289 20.93555,-5.78711 1.1857,-6.96565 -10.29739,-3.74609 -27.14844,-3.74609 -8.85895,0 -21.08313,-4.29688 -22.29883,-6.89258 -1.09675,-2.3416 4.25569,-3.32047 2.80469,-6.38867 -2.764,-5.84385 -14.88919,-2.0373 -28.93164,-7.6543 -17.5836,-7.03345 -14.29796,-12.42618 -12.35156,-13.71093 5.53945,-3.6566 9.71205,7.1583 13.03125,6.5625 3.7063,-0.6652 1.89301,-3.84941 5.19141,-4.12891 2.51055,-0.2128 9.27315,10.7626 12.84765,5.65625 1.8228,-2.6041 -1.12327,-6.46511 -6.29297,-8.97461 -5.69725,-2.7657 -9.04229,-7.97975 -6.34179,-9.87305 7.35985,-5.15965 16.51135,11.5758 20.46875,10.9375 2.71475,-0.4379 1.57075,-4.8908 3.7871,-4.9375 4.0425,-0.085 6.74771,7.50898 11.31836,5.10743 5.0213,-2.6382 -4.0424,-7.95857 -3.7871,-10.51172 0.50805,-5.0811 14.32728,0.35489 14.55468,-7.31836 0.1702,-5.7446 -10.25526,-1.27688 -22.38281,-2.42578 -7.64315,-0.724 -12.57203,-4.684 -17.70313,-6.46875 -5.66145,-1.9691 -11.73996,-0.87853 -16.85156,-1.82813 -5.49245,-1.0205 -9.79597,-4.0988 -9.10547,-6.9375 1.9149,-7.87225 11.19141,0.93713 13.19141,-3.10547 1.8983,-3.83705 -6.8511,-4.29929 -4,-7.74609 5.14105,-6.2154 11.74512,12.81003 20.63867,7.36328 5.312,-3.2533 -5.20488,-7.55774 -3.02148,-10.08594 1.617,-1.8723 14.93657,4.85068 14.63867,-4.04297 -0.1924,-5.74535 -12.92067,-2.176 -22.51172,-5.0625 -11.10765,-3.34275 -14.68001,-10.2566 -24.50976,-10.9375 -6.1351,-0.4249 -10.6334,-4.11442 -8.8086,-6.89257 3.6397,-5.5411 13.37598,4.99043 19.36133,1.14843 6.29785,-4.04245 -3.5319,-9.7021 -2,-12 2.8325,-4.24865 13.99953,6.51153 19.36133,-1.10547 2.2684,-3.22255 -3.66351,-5.41015 -9.40821,-5.41015 -7.65955,0 -12.3357,-2.67592 -20.50585,-12.88867 -8.1702,-10.21265 -21.36245,-2.38389 -21.27735,-11.49024 0.0541,-5.78895 7.36273,-3.32116 8.89453,-4.97851 2.5958,-2.8085 -3.40597,-6.80712 -0.17187,-9.44532 5.66065,-4.61795 9.36337,9.87175 14.98047,8.33985 5.61695,-1.5319 -1.34304,-7.87106 -0.043,-10.12696 1.4468,-2.51065 11.61681,2.21252 12.38281,-2.42578 1.1584,-7.01485 -20,-4.46805 -22,-11.1914 -0.7464,-2.509 4.51042,-2.85203 3.57422,-6.29883 -0.9521,-3.5057 -10.21752,-4.05998 -13.70117,-4.89258 -6.7659,-1.617 -20.38026,-9.51647 -16.25586,-14.70312 4.21265,-5.2979 9.64352,6.68053 14.16992,2.42578 3.1915,-3 -3.89453,-6.32008 -2.29883,-7.89453 3.7991,-3.7484 10.72442,7.74502 14.51172,2.63867 4.9773,-6.7111 -10.76073,-11.49309 -18.83398,-14.80664 -9.2488,-3.7962 -17.92183,-8.01558 -15.42383,-13.29688 2.65725,-5.61835 12.72152,6.44922 16.04492,0.23242 5.14085,-9.61635 -18.89313,-9.61779 -18.55273,-17.87304 0.17875,-4.3368 7.50505,-0.19436 8.8496,-3.66016 1.451,-3.7404 -2.40431,-7.25569 -9.0996,-16.29102 -3.89464,-5.25576 -4.2798,-19.5357 -2.86675,-19.91932 1.11774,-0.5656 2.5727,2.66387 3.85112,3.91349 1.48405,1.04405 4.28502,2.54505 7.49805,1.52734 l 0.006,-0.002 c 3.96351,-1.26212 6.49026,-5.54909 5.18359,-9.66016 v -0.002 l -3.79883,-11.94532 7.60547,-5.7832 c 0.0343,-0.0262 0.0681,-0.0529 0.10156,-0.0801 1.37045,-1.11251 3.48633,-3.35152 3.48633,-6.60547 0,-4.02564 -3.05031,-7.86914 -7.4043,-7.86914 h -10.73242 l -2.95117,-9.09179 c -0.0143,-0.0432 -0.0292,-0.0862 -0.0449,-0.12891 -0.59901,-1.65538 -2.01137,-4.39117 -5.08594,-5.46484 -0.95187,-0.33229 -1.93578,-0.48558 -2.90234,-0.4668 z"
   sodipodi:nodetypes="cccccccccccccssccscsssssssccsssccssssscccsccsscsccscsssscsssscsssssscssssscccsssssscsscsscssssssccccccccccccccsssssssssscssssssssssssssssssssssscscsssscscssssscsssssscssssssssscsssssscsscccssssccsscccccsscccccc" />
</svg>
