<?xml version="1.0" encoding="UTF-8" standalone="no"?>
<!-- Created with Inkscape (http://www.inkscape.org/) -->

<svg
   width="210mm"
   height="297mm"
   viewBox="0 0 210 297"
   version="1.1"
   id="svg5"
   sodipodi:docname="Stand_5mm.svg"
   inkscape:version="1.3.2 (091e20e, 2023-11-25)"
   xmlns:inkscape="http://www.inkscape.org/namespaces/inkscape"
   xmlns:sodipodi="http://sodipodi.sourceforge.net/DTD/sodipodi-0.dtd"
   xmlns="http://www.w3.org/2000/svg"
   xmlns:svg="http://www.w3.org/2000/svg">
  <sodipodi:namedview
     id="namedview7"
     pagecolor="#ffffff"
     bordercolor="#eeeeee"
     borderopacity="1"
     inkscape:showpageshadow="0"
     inkscape:pageopacity="0"
     inkscape:pagecheckerboard="0"
     inkscape:deskcolor="#505050"
     inkscape:document-units="mm"
     showgrid="false"
     inkscape:zoom="0.84096521"
     inkscape:cx="403.10823"
     inkscape:cy="395.97358"
     inkscape:window-width="1728"
     inkscape:window-height="1027"
     inkscape:window-x="572"
     inkscape:window-y="85"
     inkscape:window-maximized="0"
     inkscape:current-layer="g31" />
  <defs
     id="defs2" />
  <g
     inkscape:label="Ebene 1"
     inkscape:groupmode="layer"
     id="layer1">
    <g
       id="g31"
       transform="translate(-116.31653,-88.166205)">
      <g
         id="g1"
         transform="translate(-6.9216102,-5.9777542)">
        <g
           id="g26"
           transform="translate(-7.7864143,4.6718486)">
          <g
             id="g21"
             transform="translate(-4.7192798,-55.530192)"
             style="stroke:#00ff00">
            <path
               style="opacity:0.86;vector-effect:non-scaling-stroke;fill:none;stroke:#00ff00;stroke-width:0.264533;stroke-dasharray:none;-inkscape-stroke:hairline"
               d="m 149.21672,172.87107 a 0.50002991,0.49978498 0 0 1 0.50026,0.50001 0.50002991,0.49978498 0 0 1 -0.50026,0.49998 0.50002991,0.49978498 0 0 1 -0.49974,-0.49998 0.50002991,0.49978498 0 0 1 0.49974,-0.50001 z"
               id="path7316" />
            <path
               style="opacity:0.86;vector-effect:non-scaling-stroke;fill:none;stroke:#00ff00;stroke-width:0.264533;stroke-dasharray:none;-inkscape-stroke:hairline"
               d="m 182.7528,172.87107 a 0.50002991,0.49978498 0 0 1 0.50026,0.50001 0.50002991,0.49978498 0 0 1 -0.50026,0.49998 0.50002991,0.49978498 0 0 1 -0.49974,-0.49998 0.50002991,0.49978498 0 0 1 0.49974,-0.50001 z"
               id="path7316-0" />
          </g>
          <path
             d="m 168.02385,93.779806 c -0.67835,0.312112 -1.22352,0.863987 -1.51515,1.553393 -0.15186,0.35888 -0.23615,0.753748 -0.23616,1.167887 v 0.999939 h 5.2e-4 8.00002 v 7.000605 28.00088 H 148.2726 v -28.00088 -7.000605 h 8.00003 5.2e-4 v -0.999939 c -2e-5,-0.414139 -0.0843,-0.809007 -0.23616,-1.167887 -0.28911,-0.683433 -0.82533,-1.235145 -1.49552,-1.548743 a 25,25 0 0 0 -18.27589,24.056414 25,25 0 0 0 25.00003,25.00002 25,25 0 0 0 25.00002,-25.00002 25,25 0 0 0 -18.24178,-24.061064 z"
             style="vector-effect:non-scaling-stroke;fill:none;stroke:#ff0000;stroke-width:0.636903;-inkscape-stroke:hairline"
             id="path8" />
        </g>
        <path
           d="m 154.06907,141.15736 q 0.0744,0.0667 0.12248,0.16743 0.0481,0.10077 0.0481,0.26045 0,0.15813 -0.0574,0.28991 -0.0574,0.13177 -0.16123,0.22944 -0.11627,0.10852 -0.2744,0.16123 -0.15658,0.0512 -0.34416,0.0512 -0.19224,0 -0.37827,-0.0465 -0.18604,-0.045 -0.30541,-0.0992 v -0.32401 h 0.0232 q 0.13178,0.0868 0.31006,0.14418 0.17828,0.0574 0.34417,0.0574 0.0977,0 0.20774,-0.0326 0.11007,-0.0326 0.17828,-0.0961 0.0713,-0.0682 0.10542,-0.15037 0.0357,-0.0822 0.0357,-0.20774 0,-0.12403 -0.0403,-0.20464 -0.0388,-0.0822 -0.10852,-0.12868 -0.0698,-0.048 -0.16898,-0.0651 -0.0992,-0.0186 -0.21394,-0.0186 h -0.13953 v -0.25735 h 0.10852 q 0.23564,0 0.37517,-0.0977 0.14108,-0.0992 0.14108,-0.28835 0,-0.0837 -0.0357,-0.14573 -0.0357,-0.0636 -0.0992,-0.10387 -0.0667,-0.0403 -0.14263,-0.0558 -0.076,-0.0155 -0.17208,-0.0155 -0.14728,0 -0.31316,0.0527 -0.16588,0.0527 -0.31316,0.14882 h -0.0155 v -0.32401 q 0.11007,-0.0543 0.29301,-0.0992 0.18448,-0.0465 0.35656,-0.0465 0.16899,0 0.29766,0.031 0.12867,0.031 0.23254,0.0992 0.11162,0.0744 0.16899,0.17983 0.0574,0.10542 0.0574,0.2465 0,0.19224 -0.13643,0.33641 -0.13487,0.14263 -0.31936,0.17984 v 0.0217 q 0.0744,0.0124 0.17053,0.0527 0.0961,0.0388 0.16278,0.0977 z"
           id="text28"
           style="font-size:3.175px;vector-effect:non-scaling-stroke;fill:none;stroke:#0000ff;stroke-width:0.264583;stroke-dasharray:none;-inkscape-stroke:hairline"
           aria-label="3" />
      </g>
    </g>
  </g>
</svg>
