<?xml version="1.0" encoding="UTF-8" standalone="no"?>
<!-- Created with Inkscape (http://www.inkscape.org/) -->

<svg
   width="210mm"
   height="297mm"
   viewBox="0 0 210 297"
   version="1.1"
   id="svg5"
   sodipodi:docname="Stand_3,5mm.svg"
   inkscape:version="1.2.1 (9c6d41e, 2022-07-14)"
   xmlns:inkscape="http://www.inkscape.org/namespaces/inkscape"
   xmlns:sodipodi="http://sodipodi.sourceforge.net/DTD/sodipodi-0.dtd"
   xmlns="http://www.w3.org/2000/svg"
   xmlns:svg="http://www.w3.org/2000/svg">
  <sodipodi:namedview
     id="namedview7"
     pagecolor="#505050"
     bordercolor="#eeeeee"
     borderopacity="1"
     inkscape:showpageshadow="0"
     inkscape:pageopacity="0"
     inkscape:pagecheckerboard="0"
     inkscape:deskcolor="#505050"
     inkscape:document-units="mm"
     showgrid="false"
     inkscape:zoom="4.7572176"
     inkscape:cx="404.22788"
     inkscape:cy="325.08498"
     inkscape:window-width="1728"
     inkscape:window-height="1027"
     inkscape:window-x="0"
     inkscape:window-y="38"
     inkscape:window-maximized="0"
     inkscape:current-layer="layer1" />
  <defs
     id="defs2" />
  <g
     inkscape:label="Ebene 1"
     inkscape:groupmode="layer"
     id="layer1">
    <g
       id="g7092"
       transform="rotate(45,90.06006,114.71894)"
       style="vector-effect:non-scaling-stroke;-inkscape-stroke:hairline;stroke-width:0.26458333;stroke-dasharray:none">
      <path
         id="rect234"
         style="opacity:0.86;fill:none;stroke:#ff0000;stroke-width:0.26458333;stroke-dasharray:none;vector-effect:non-scaling-stroke;-inkscape-stroke:hairline"
         d="m 89.210059,97.218872 v 13.084468 a 4.5,4.5 0 0 0 -3.565674,3.56568 H 72.559912 v 1.70015 h 13.084473 a 4.5,4.5 0 0 0 3.565674,3.56516 v 13.08447 h 1.700154 v -13.08447 a 4.5,4.5 0 0 0 3.565674,-3.56516 h 13.083953 v -1.70015 H 94.478988 a 4.5,4.5 0 0 0 -3.568775,-3.56878 V 97.218872 Z" />
      <path
         id="path420"
         style="opacity:0.86;fill:none;stroke:#ff0000;stroke-width:0.26458333;vector-effect:non-scaling-stroke;-inkscape-stroke:hairline;stroke-dasharray:none"
         d="m 110.06006,114.71894 a 20,20 0 0 1 -20.000001,20 20,20 0 0 1 -20,-20 20,20 0 0 1 20,-19.999999 20,20 0 0 1 20.000001,19.999999 z" />
    </g>
    <path
       style="opacity:0.86;vector-effect:non-scaling-stroke;fill:none;stroke:#ff0000;stroke-width:0.264583;stroke-dasharray:none;-inkscape-stroke:hairline"
       d="m 131.55723,94.719133 a 20,20 0 0 0 -19.99981,19.999807 20,20 0 0 0 19.99981,19.99981 20,20 0 0 0 17.84904,-10.99985 h -20.87934 v -17.99993 h 20.87934 A 20,20 0 0 0 131.55723,94.719133 Z"
       id="path420-9" />
    <g
       aria-label="Made in Plauen"
       transform="rotate(90,8.9504708,238.38836)"
       id="text7157"
       style="font-size:3.52778px;line-height:1.25;fill:#000080;stroke-width:0.264583">
      <path
         d="m -126.80607,124.98285 h -0.65801 v -1.71738 l -0.47542,1.11449 h -0.45648 l -0.47542,-1.11449 v 1.71738 h -0.62357 v -2.56488 h 0.76826 l 0.57705,1.28675 0.57534,-1.28675 h 0.76825 z"
         style="font-weight:bold;-inkscape-font-specification:'sans-serif Bold'"
         id="path7209" />
      <path
         d="m -125.01462,124.47814 v -0.40307 q -0.12574,0.0103 -0.27216,0.0293 -0.14642,0.0172 -0.22221,0.0413 -0.093,0.0293 -0.14297,0.0861 -0.0482,0.0551 -0.0482,0.14641 0,0.0603 0.0103,0.0982 0.0103,0.0379 0.0517,0.0724 0.0396,0.0344 0.0947,0.0517 0.0551,0.0155 0.17226,0.0155 0.093,0 0.18775,-0.0379 0.0965,-0.0379 0.16881,-0.0999 z m 0,0.29973 q -0.05,0.0379 -0.12402,0.0913 -0.0741,0.0534 -0.13953,0.0844 -0.0913,0.0413 -0.18948,0.0603 -0.0982,0.0207 -0.21532,0.0207 -0.2756,0 -0.46164,-0.17054 -0.18603,-0.17053 -0.18603,-0.4358 0,-0.21188 0.0947,-0.34623 0.0947,-0.13436 0.26871,-0.21188 0.17226,-0.0775 0.4272,-0.11024 0.25493,-0.0327 0.52882,-0.0482 v -0.0103 q 0,-0.16019 -0.13092,-0.22048 -0.13091,-0.062 -0.38585,-0.062 -0.1533,0 -0.32728,0.0551 -0.17398,0.0534 -0.24977,0.0827 h -0.0568 v -0.46681 q 0.0982,-0.0258 0.31867,-0.0603 0.22221,-0.0362 0.44442,-0.0362 0.52882,0 0.76308,0.16364 0.23599,0.16192 0.23599,0.50987 v 1.31603 h -0.61495 z"
         style="font-weight:bold;-inkscape-font-specification:'sans-serif Bold'"
         id="path7211" />
      <path
         d="m -121.94848,124.98285 h -0.62012 v -0.20154 q -0.16019,0.13091 -0.29972,0.19293 -0.13953,0.062 -0.32212,0.062 -0.35312,0 -0.56499,-0.27216 -0.21188,-0.27217 -0.21188,-0.73381 0,-0.24632 0.0706,-0.43581 0.0723,-0.1912 0.19637,-0.32728 0.11713,-0.12919 0.28422,-0.19982 0.16709,-0.0723 0.33417,-0.0723 0.17398,0 0.28422,0.0379 0.11197,0.0362 0.2291,0.093 v -0.82338 h 0.62012 z m -0.62012,-0.53399 v -0.94913 q -0.0654,-0.0276 -0.1378,-0.0396 -0.0724,-0.0121 -0.13264,-0.0121 -0.2446,0 -0.3669,0.1533 -0.1223,0.15159 -0.1223,0.42203 0,0.28422 0.0982,0.41341 0.0982,0.12747 0.31523,0.12747 0.0844,0 0.17915,-0.031 0.0947,-0.0327 0.16708,-0.0844 z"
         style="font-weight:bold;-inkscape-font-specification:'sans-serif Bold'"
         id="path7213" />
      <path
         d="m -119.45767,124.13019 h -1.41938 q 0.0138,0.22737 0.17225,0.34795 0.1602,0.12058 0.47026,0.12058 0.19637,0 0.38068,-0.0706 0.18431,-0.0706 0.29111,-0.15159 h 0.0689 v 0.49782 q -0.21015,0.0844 -0.39618,0.1223 -0.18604,0.0379 -0.41169,0.0379 -0.58222,0 -0.89228,-0.26183 -0.31006,-0.26183 -0.31006,-0.74587 0,-0.47886 0.29283,-0.75792 0.29456,-0.28077 0.80615,-0.28077 0.47198,0 0.70969,0.23943 0.23772,0.23771 0.23772,0.68558 z m -0.61668,-0.36346 q -0.005,-0.19465 -0.0965,-0.29283 -0.0913,-0.0982 -0.28422,-0.0982 -0.17914,0 -0.29456,0.093 -0.11541,0.093 -0.12919,0.298 z"
         style="font-weight:bold;-inkscape-font-specification:'sans-serif Bold'"
         id="path7215" />
      <path
         d="m -117.19424,124.98285 h -0.62012 v -1.93442 h 0.62012 z m 0.0172,-2.21003 h -0.65457 v -0.47026 h 0.65457 z"
         style="font-weight:bold;-inkscape-font-specification:'sans-serif Bold'"
         id="path7217" />
      <path
         d="m -114.66554,124.98285 h -0.62357 v -0.95946 q 0,-0.11713 -0.0121,-0.23254 -0.0121,-0.11714 -0.0413,-0.17226 -0.0345,-0.0637 -0.10163,-0.093 -0.0655,-0.0293 -0.18432,-0.0293 -0.0844,0 -0.17225,0.0276 -0.0861,0.0276 -0.18776,0.0879 v 1.37115 h -0.62012 v -1.93442 h 0.62012 v 0.21359 q 0.16536,-0.12919 0.31695,-0.19809 0.15331,-0.0689 0.33934,-0.0689 0.3135,0 0.4892,0.18259 0.17743,0.18259 0.17743,0.54605 z"
         style="font-weight:bold;-inkscape-font-specification:'sans-serif Bold'"
         id="path7219" />
      <path
         d="m -110.73813,123.22757 q 0,0.17226 -0.0603,0.33762 -0.0603,0.16364 -0.17226,0.27561 -0.1533,0.15158 -0.34278,0.2291 -0.18776,0.0775 -0.46854,0.0775 h -0.41169 v 0.83544 h -0.66145 v -2.56488 h 1.08865 q 0.2446,0 0.41169,0.0431 0.16881,0.0413 0.298,0.12574 0.15503,0.10163 0.23599,0.26011 0.0827,0.15847 0.0827,0.38068 z m -0.68385,0.0155 q 0,-0.10852 -0.0586,-0.18603 -0.0586,-0.0792 -0.13608,-0.11024 -0.10335,-0.0413 -0.20154,-0.0448 -0.0982,-0.005 -0.26183,-0.005 h -0.11369 v 0.76826 h 0.18949 q 0.1688,0 0.27733,-0.0207 0.11024,-0.0207 0.18431,-0.0827 0.0637,-0.0551 0.0913,-0.13092 0.0293,-0.0775 0.0293,-0.18776 z"
         style="font-weight:bold;-inkscape-font-specification:'sans-serif Bold'"
         id="path7221" />
      <path
         d="m -109.68393,124.98285 h -0.62012 v -2.68029 h 0.62012 z"
         style="font-weight:bold;-inkscape-font-specification:'sans-serif Bold'"
         id="path7223" />
      <path
         d="m -107.92693,124.47814 v -0.40307 q -0.12575,0.0103 -0.27216,0.0293 -0.14642,0.0172 -0.22221,0.0413 -0.093,0.0293 -0.14297,0.0861 -0.0482,0.0551 -0.0482,0.14641 0,0.0603 0.0103,0.0982 0.0103,0.0379 0.0517,0.0724 0.0396,0.0344 0.0947,0.0517 0.0551,0.0155 0.17225,0.0155 0.093,0 0.18776,-0.0379 0.0965,-0.0379 0.16881,-0.0999 z m 0,0.29973 q -0.05,0.0379 -0.12403,0.0913 -0.0741,0.0534 -0.13952,0.0844 -0.0913,0.0413 -0.18948,0.0603 -0.0982,0.0207 -0.21532,0.0207 -0.27561,0 -0.46164,-0.17054 -0.18604,-0.17053 -0.18604,-0.4358 0,-0.21188 0.0947,-0.34623 0.0947,-0.13436 0.26872,-0.21188 0.17225,-0.0775 0.42719,-0.11024 0.25494,-0.0327 0.52882,-0.0482 v -0.0103 q 0,-0.16019 -0.13091,-0.22048 -0.13091,-0.062 -0.38585,-0.062 -0.15331,0 -0.32729,0.0551 -0.17397,0.0534 -0.24976,0.0827 h -0.0568 v -0.46681 q 0.0982,-0.0258 0.31867,-0.0603 0.22221,-0.0362 0.44442,-0.0362 0.52882,0 0.76309,0.16364 0.23599,0.16192 0.23599,0.50987 v 1.31603 h -0.61495 z"
         style="font-weight:bold;-inkscape-font-specification:'sans-serif Bold'"
         id="path7225" />
      <path
         d="m -104.81429,124.98285 h -0.62011 v -0.2136 q -0.17226,0.13092 -0.31523,0.19982 -0.14297,0.0672 -0.34107,0.0672 -0.32039,0 -0.49437,-0.18431 -0.17225,-0.18432 -0.17225,-0.54433 v -1.25918 h 0.62356 v 0.95946 q 0,0.14641 0.009,0.2446 0.0103,0.0965 0.0448,0.1602 0.0327,0.0637 0.0982,0.093 0.0672,0.0293 0.18604,0.0293 0.0792,0 0.1757,-0.0293 0.0965,-0.0293 0.18604,-0.0861 v -1.37115 h 0.62011 z"
         style="font-weight:bold;-inkscape-font-specification:'sans-serif Bold'"
         id="path7227" />
      <path
         d="m -102.32348,124.13019 h -1.41938 q 0.0138,0.22737 0.17225,0.34795 0.1602,0.12058 0.47026,0.12058 0.19637,0 0.38068,-0.0706 0.18431,-0.0706 0.29111,-0.15159 h 0.0689 v 0.49782 q -0.21015,0.0844 -0.39618,0.1223 -0.18604,0.0379 -0.41169,0.0379 -0.58222,0 -0.89228,-0.26183 -0.31006,-0.26183 -0.31006,-0.74587 0,-0.47886 0.29283,-0.75792 0.29456,-0.28077 0.80616,-0.28077 0.47197,0 0.70969,0.23943 0.23771,0.23771 0.23771,0.68558 z m -0.61667,-0.36346 q -0.005,-0.19465 -0.0965,-0.29283 -0.0913,-0.0982 -0.28422,-0.0982 -0.17914,0 -0.29455,0.093 -0.11541,0.093 -0.12919,0.298 z"
         style="font-weight:bold;-inkscape-font-specification:'sans-serif Bold'"
         id="path7229" />
      <path
         d="m -99.942919,124.98285 h -0.623561 v -0.95946 q 0,-0.11713 -0.0121,-0.23254 -0.0121,-0.11714 -0.0413,-0.17226 -0.0345,-0.0637 -0.10163,-0.093 -0.0655,-0.0293 -0.18431,-0.0293 -0.0844,0 -0.17226,0.0276 -0.0861,0.0276 -0.18776,0.0879 v 1.37115 h -0.62011 v -1.93442 h 0.62011 v 0.21359 q 0.16537,-0.12919 0.31695,-0.19809 0.15331,-0.0689 0.33934,-0.0689 0.31351,0 0.48921,0.18259 0.177421,0.18259 0.177421,0.54605 z"
         style="font-weight:bold;-inkscape-font-specification:'sans-serif Bold'"
         id="path7231" />
    </g>
  </g>
</svg>
