<?xml version="1.0" encoding="UTF-8" standalone="no"?>
<!-- Created with Inkscape (http://www.inkscape.org/) -->

<svg
   width="210mm"
   height="297mm"
   viewBox="0 0 210 297"
   version="1.1"
   id="svg5"
   sodipodi:docname="Stand_5mm.svg"
   inkscape:version="1.2.1 (9c6d41e, 2022-07-14)"
   xmlns:inkscape="http://www.inkscape.org/namespaces/inkscape"
   xmlns:sodipodi="http://sodipodi.sourceforge.net/DTD/sodipodi-0.dtd"
   xmlns="http://www.w3.org/2000/svg"
   xmlns:svg="http://www.w3.org/2000/svg">
  <sodipodi:namedview
     id="namedview7"
     pagecolor="#505050"
     bordercolor="#eeeeee"
     borderopacity="1"
     inkscape:showpageshadow="0"
     inkscape:pageopacity="0"
     inkscape:pagecheckerboard="0"
     inkscape:deskcolor="#505050"
     inkscape:document-units="mm"
     showgrid="false"
     inkscape:zoom="2.3786088"
     inkscape:cx="366.60085"
     inkscape:cy="355.88029"
     inkscape:window-width="1728"
     inkscape:window-height="1027"
     inkscape:window-x="0"
     inkscape:window-y="38"
     inkscape:window-maximized="0"
     inkscape:current-layer="layer1" />
  <defs
     id="defs2" />
  <g
     inkscape:label="Ebene 1"
     inkscape:groupmode="layer"
     id="layer1">
    <path
       style="opacity:0.86;vector-effect:non-scaling-stroke;fill:none;stroke:#ff0000;stroke-width:0.264583;stroke-dasharray:none;-inkscape-stroke:hairline"
       d="m 117.37216,83.261 a 0.5,0.5 0 0 1 0.50023,0.500228 0.5,0.5 0 0 1 -0.50023,0.500228 0.5,0.5 0 0 1 -0.49971,-0.500228 0.5,0.5 0 0 1 0.49971,-0.500228 z"
       id="path7320" />
    <path
       style="opacity:0.86;vector-effect:non-scaling-stroke;fill:none;stroke:#ff0000;stroke-width:0.264583;stroke-dasharray:none;-inkscape-stroke:hairline"
       d="m 117.37216,73.061 a 0.5,0.5 0 0 1 0.50023,0.500228 0.5,0.5 0 0 1 -0.50023,0.500227 0.5,0.5 0 0 1 -0.49971,-0.500227 0.5,0.5 0 0 1 0.49971,-0.500228 z"
       id="path7316" />
    <path
       style="opacity:0.86;vector-effect:non-scaling-stroke;fill:none;stroke:#ff0000;stroke-width:0.264583;stroke-dasharray:none;-inkscape-stroke:hairline"
       d="m 106.34131,69.654663 h 6.44275 v 18.000452 h -6.44275 z"
       id="path7314" />
    <path
       style="opacity:0.86;vector-effect:non-scaling-stroke;fill:none;stroke:#ff0000;stroke-width:0.264583;stroke-dasharray:none;-inkscape-stroke:hairline"
       d="M 110.90331,58.654818 A 20,20 0 0 0 90.902979,78.655147 20,20 0 0 0 110.90331,98.65496 20,20 0 0 0 130.48713,82.654903 h -6.9324 v -8.000028 h 6.94325 A 20,20 0 0 0 110.90331,58.654818 Z"
       id="path420-2" />
  </g>
</svg>
