G04 #@! TF.GenerationSoftware,KiCad,Pcbnew,(6.0.4-0)*
G04 #@! TF.CreationDate,2022-10-21T14:00:41+02:00*
G04 #@! TF.ProjectId,SL_Christmas_Tree_B,534c5f43-6872-4697-9374-6d61735f5472,rev?*
G04 #@! TF.SameCoordinates,Original*
G04 #@! TF.FileFunction,Soldermask,Bot*
G04 #@! TF.FilePolarity,Negative*
%FSLAX46Y46*%
G04 Gerber Fmt 4.6, Leading zero omitted, Abs format (unit mm)*
G04 Created by KiCad (PCBNEW (6.0.4-0)) date 2022-10-21 14:00:41*
%MOMM*%
%LPD*%
G01*
G04 APERTURE LIST*
G04 Aperture macros list*
%AMRoundRect*
0 Rectangle with rounded corners*
0 $1 Rounding radius*
0 $2 $3 $4 $5 $6 $7 $8 $9 X,Y pos of 4 corners*
0 Add a 4 corners polygon primitive as box body*
4,1,4,$2,$3,$4,$5,$6,$7,$8,$9,$2,$3,0*
0 Add four circle primitives for the rounded corners*
1,1,$1+$1,$2,$3*
1,1,$1+$1,$4,$5*
1,1,$1+$1,$6,$7*
1,1,$1+$1,$8,$9*
0 Add four rect primitives between the rounded corners*
20,1,$1+$1,$2,$3,$4,$5,0*
20,1,$1+$1,$4,$5,$6,$7,0*
20,1,$1+$1,$6,$7,$8,$9,0*
20,1,$1+$1,$8,$9,$2,$3,0*%
G04 Aperture macros list end*
%ADD10RoundRect,0.250000X-0.350000X-0.450000X0.350000X-0.450000X0.350000X0.450000X-0.350000X0.450000X0*%
%ADD11R,1.100000X0.750000*%
%ADD12R,3.000000X3.000000*%
%ADD13RoundRect,0.250000X-0.450000X0.350000X-0.450000X-0.350000X0.450000X-0.350000X0.450000X0.350000X0*%
%ADD14RoundRect,0.250000X0.450000X-0.350000X0.450000X0.350000X-0.450000X0.350000X-0.450000X-0.350000X0*%
G04 APERTURE END LIST*
D10*
X85650000Y-133120000D03*
X87650000Y-133120000D03*
X92330000Y-99730000D03*
X94330000Y-99730000D03*
D11*
X89740000Y-104065000D03*
X87640000Y-104065000D03*
X87640000Y-105315000D03*
X89740000Y-105315000D03*
D12*
X102190000Y-123550000D03*
D10*
X89740000Y-109870000D03*
X91740000Y-109870000D03*
D13*
X103090000Y-82570000D03*
X103090000Y-84570000D03*
D14*
X97730000Y-60570000D03*
X97730000Y-58570000D03*
D11*
X97710000Y-67725000D03*
X95610000Y-67725000D03*
X95610000Y-68975000D03*
X97710000Y-68975000D03*
D12*
X102650000Y-163770000D03*
D11*
X109970000Y-114945000D03*
X107870000Y-114945000D03*
X107870000Y-116195000D03*
X109970000Y-116195000D03*
D10*
X106390000Y-97790000D03*
X108390000Y-97790000D03*
D11*
X78500000Y-141060000D03*
X76400000Y-141060000D03*
X76400000Y-142310000D03*
X78500000Y-142310000D03*
D10*
X108580000Y-157000000D03*
X110580000Y-157000000D03*
D11*
X110540000Y-148905000D03*
X108440000Y-148905000D03*
X108440000Y-150155000D03*
X110540000Y-150155000D03*
D12*
X97360000Y-123590000D03*
X97410000Y-75460000D03*
D11*
X107250000Y-92455000D03*
X105150000Y-92455000D03*
X105150000Y-93705000D03*
X107250000Y-93705000D03*
D10*
X92430000Y-93210000D03*
X94430000Y-93210000D03*
D12*
X102190000Y-75410000D03*
D11*
X113270000Y-124745000D03*
X111170000Y-124745000D03*
X111170000Y-125995000D03*
X113270000Y-125995000D03*
D10*
X107920000Y-109160000D03*
X109920000Y-109160000D03*
X85170000Y-141600000D03*
X87170000Y-141600000D03*
D11*
X106650000Y-78285000D03*
X104550000Y-78285000D03*
X104550000Y-79535000D03*
X106650000Y-79535000D03*
D10*
X118260000Y-123420000D03*
X120260000Y-123420000D03*
D11*
X110770000Y-132885000D03*
X108670000Y-132885000D03*
X108670000Y-134135000D03*
X110770000Y-134135000D03*
D10*
X114680000Y-135260000D03*
X116680000Y-135260000D03*
D12*
X97090000Y-163770000D03*
D11*
X88390000Y-115535000D03*
X86290000Y-115535000D03*
X86290000Y-116785000D03*
X88390000Y-116785000D03*
X94600000Y-87545000D03*
X92500000Y-87545000D03*
X92500000Y-88795000D03*
X94600000Y-88795000D03*
X82890000Y-128585000D03*
X80790000Y-128585000D03*
X80790000Y-129835000D03*
X82890000Y-129835000D03*
M02*
