G04 #@! TF.GenerationSoftware,KiCad,Pcbnew,(6.0.4-0)*
G04 #@! TF.CreationDate,2022-10-21T14:00:41+02:00*
G04 #@! TF.ProjectId,SL_Christmas_Tree_B,534c5f43-6872-4697-9374-6d61735f5472,rev?*
G04 #@! TF.SameCoordinates,Original*
G04 #@! TF.FileFunction,Profile,NP*
%FSLAX46Y46*%
G04 Gerber Fmt 4.6, Leading zero omitted, Abs format (unit mm)*
G04 Created by KiCad (PCBNEW (6.0.4-0)) date 2022-10-21 14:00:41*
%MOMM*%
%LPD*%
G01*
G04 APERTURE LIST*
G04 #@! TA.AperFunction,Profile*
%ADD10C,0.200000*%
G04 #@! TD*
G04 APERTURE END LIST*
D10*
X101092114Y-49666031D02*
X101092111Y-49666030D01*
X101092157Y-49666030D01*
X101092114Y-49666031D01*
X101116744Y-49670615D02*
X101141124Y-49682392D01*
X101165269Y-49700982D01*
X101189197Y-49726007D01*
X101236477Y-49793853D01*
X101283111Y-49882909D01*
X101329244Y-49990150D01*
X101375023Y-50112556D01*
X101466105Y-50390770D01*
X101650462Y-50996181D01*
X101697862Y-51140108D01*
X101746080Y-51275020D01*
X101795261Y-51397895D01*
X101845552Y-51505710D01*
X101973326Y-51748103D01*
X102101876Y-51979120D01*
X102230809Y-52199196D01*
X102359734Y-52408765D01*
X102488259Y-52608262D01*
X102615992Y-52798122D01*
X102742542Y-52978778D01*
X102867516Y-53150666D01*
X103111171Y-53469874D01*
X103343823Y-53759223D01*
X103763580Y-54262247D01*
X103944417Y-54482874D01*
X104101714Y-54687547D01*
X104170555Y-54784987D01*
X104232336Y-54879742D01*
X104286665Y-54972247D01*
X104333149Y-55062935D01*
X104371398Y-55152243D01*
X104401019Y-55240603D01*
X104421621Y-55328451D01*
X104432812Y-55416221D01*
X104434199Y-55504348D01*
X104425392Y-55593266D01*
X104405999Y-55683410D01*
X104375627Y-55775214D01*
X104337742Y-55855413D01*
X104291218Y-55924594D01*
X104236690Y-55983536D01*
X104174794Y-56033018D01*
X104106167Y-56073821D01*
X104031445Y-56106723D01*
X103951264Y-56132505D01*
X103866261Y-56151946D01*
X103777071Y-56165825D01*
X103684332Y-56174923D01*
X103490747Y-56181891D01*
X103088972Y-56172745D01*
X102890962Y-56169105D01*
X102701656Y-56174402D01*
X102611858Y-56182351D01*
X102526145Y-56194873D01*
X102445153Y-56212748D01*
X102369518Y-56236754D01*
X102299877Y-56267673D01*
X102236865Y-56306282D01*
X102181120Y-56353363D01*
X102133277Y-56409694D01*
X102093973Y-56476055D01*
X102063844Y-56553226D01*
X102043525Y-56641985D01*
X102033654Y-56743114D01*
X102043674Y-56941630D01*
X102088889Y-57128216D01*
X102166706Y-57303737D01*
X102274530Y-57469059D01*
X102409767Y-57625049D01*
X102569821Y-57772570D01*
X102752100Y-57912490D01*
X102954007Y-58045674D01*
X103406333Y-58295295D01*
X103906041Y-58528360D01*
X104964583Y-58972524D01*
X105481906Y-59197473D01*
X105963589Y-59433568D01*
X106184579Y-59557960D01*
X106388876Y-59687734D01*
X106573884Y-59823758D01*
X106737011Y-59966897D01*
X106875660Y-60118017D01*
X106987238Y-60277982D01*
X107069151Y-60447660D01*
X107118803Y-60627915D01*
X107133600Y-60819614D01*
X107110948Y-61023621D01*
X107048252Y-61240803D01*
X106942918Y-61472026D01*
X106855371Y-61612349D01*
X106758059Y-61726068D01*
X106651668Y-61814927D01*
X106536883Y-61880667D01*
X106414389Y-61925032D01*
X106284872Y-61949764D01*
X106149017Y-61956605D01*
X106007510Y-61947299D01*
X105861036Y-61923588D01*
X105710280Y-61887214D01*
X105555928Y-61839921D01*
X105398666Y-61783451D01*
X105078150Y-61649949D01*
X104754216Y-61500651D01*
X104432348Y-61349498D01*
X104118028Y-61210430D01*
X103816740Y-61097389D01*
X103672697Y-61054986D01*
X103533968Y-61024317D01*
X103401238Y-61007125D01*
X103275193Y-61005153D01*
X103156519Y-61020144D01*
X103045901Y-61053840D01*
X102944024Y-61107984D01*
X102851573Y-61184318D01*
X102769235Y-61284586D01*
X102697694Y-61410529D01*
X102644306Y-61540712D01*
X102607724Y-61669279D01*
X102587433Y-61796262D01*
X102582920Y-61921692D01*
X102593673Y-62045599D01*
X102619178Y-62168014D01*
X102658920Y-62288969D01*
X102712388Y-62408495D01*
X102779068Y-62526621D01*
X102858447Y-62643380D01*
X102950011Y-62758802D01*
X103053246Y-62872918D01*
X103292680Y-63097357D01*
X103572642Y-63316943D01*
X103889026Y-63531925D01*
X104237725Y-63742550D01*
X104614634Y-63949065D01*
X105015644Y-64151718D01*
X105436650Y-64350757D01*
X105873546Y-64546428D01*
X106778581Y-64928661D01*
X108643538Y-65661033D01*
X109146109Y-65868248D01*
X109641212Y-66085466D01*
X110117851Y-66312864D01*
X110565024Y-66550619D01*
X110971732Y-66798909D01*
X111156475Y-66927059D01*
X111326977Y-67057909D01*
X111481863Y-67191482D01*
X111619759Y-67327798D01*
X111739288Y-67466881D01*
X111839078Y-67608753D01*
X111917752Y-67753435D01*
X111973935Y-67900950D01*
X112006253Y-68051320D01*
X112013331Y-68204566D01*
X111993794Y-68360712D01*
X111946267Y-68519780D01*
X111869375Y-68681790D01*
X111761743Y-68846767D01*
X111665418Y-68960819D01*
X111564533Y-69050679D01*
X111459389Y-69117890D01*
X111350291Y-69163995D01*
X111237541Y-69190535D01*
X111121445Y-69199053D01*
X111002304Y-69191093D01*
X110880423Y-69168197D01*
X110756105Y-69131907D01*
X110629653Y-69083766D01*
X110501371Y-69025316D01*
X110371562Y-68958101D01*
X110108579Y-68803544D01*
X109843132Y-68632435D01*
X109314556Y-68289927D01*
X109056283Y-68143209D01*
X108929712Y-68081383D01*
X108805256Y-68029303D01*
X108683220Y-67988512D01*
X108563905Y-67960551D01*
X108447617Y-67946964D01*
X108334657Y-67949293D01*
X108225330Y-67969081D01*
X108119940Y-68007870D01*
X108018789Y-68067204D01*
X107922181Y-68148624D01*
X107889177Y-68189013D01*
X107868713Y-68232006D01*
X107859872Y-68277501D01*
X107861734Y-68325401D01*
X107873382Y-68375604D01*
X107893896Y-68428011D01*
X107922358Y-68482521D01*
X107957850Y-68539035D01*
X108046249Y-68657677D01*
X108151744Y-68783135D01*
X108384631Y-69051307D01*
X108497327Y-69192422D01*
X108597726Y-69337158D01*
X108641019Y-69410635D01*
X108678482Y-69484716D01*
X108709197Y-69559304D01*
X108732245Y-69634297D01*
X108746708Y-69709596D01*
X108751668Y-69785101D01*
X108746205Y-69860713D01*
X108729402Y-69936330D01*
X108700339Y-70011854D01*
X108658099Y-70087185D01*
X108601763Y-70162222D01*
X108530412Y-70236865D01*
X108417453Y-70330093D01*
X108303194Y-70399781D01*
X108187739Y-70447552D01*
X108071191Y-70475029D01*
X107953651Y-70483836D01*
X107835224Y-70475596D01*
X107716011Y-70451932D01*
X107596116Y-70414468D01*
X107475642Y-70364826D01*
X107354691Y-70304630D01*
X107111769Y-70159068D01*
X106868175Y-69990769D01*
X106624731Y-69812719D01*
X106382259Y-69637902D01*
X106141583Y-69479306D01*
X106022175Y-69410148D01*
X105903524Y-69349915D01*
X105785734Y-69300231D01*
X105668906Y-69262717D01*
X105553144Y-69238998D01*
X105438550Y-69230696D01*
X105325229Y-69239436D01*
X105213281Y-69266840D01*
X105102810Y-69314531D01*
X104993919Y-69384133D01*
X104886712Y-69477268D01*
X104781289Y-69595561D01*
X104692536Y-69726244D01*
X104630088Y-69860694D01*
X104592756Y-69998476D01*
X104579348Y-70139153D01*
X104588674Y-70282290D01*
X104619541Y-70427451D01*
X104670760Y-70574202D01*
X104741140Y-70722106D01*
X104829488Y-70870727D01*
X104934615Y-71019631D01*
X105055330Y-71168381D01*
X105190441Y-71316543D01*
X105499088Y-71609355D01*
X105851030Y-71894585D01*
X106236737Y-72168746D01*
X106646683Y-72428355D01*
X107071339Y-72669925D01*
X107501178Y-72889974D01*
X107926672Y-73085015D01*
X108338292Y-73251564D01*
X108726512Y-73386137D01*
X109081803Y-73485248D01*
X109271650Y-73525904D01*
X109491897Y-73566096D01*
X110001737Y-73650092D01*
X110567608Y-73747236D01*
X110857894Y-73803865D01*
X111145796Y-73867531D01*
X111425848Y-73939485D01*
X111692586Y-74020978D01*
X111940546Y-74113260D01*
X112055777Y-74163837D01*
X112164263Y-74217580D01*
X112265324Y-74274645D01*
X112358274Y-74335189D01*
X112442432Y-74399368D01*
X112517114Y-74467338D01*
X112581636Y-74539255D01*
X112635317Y-74615276D01*
X112677473Y-74695557D01*
X112707421Y-74780254D01*
X112725941Y-74863386D01*
X112735450Y-74941959D01*
X112736541Y-75016229D01*
X112729803Y-75086450D01*
X112715827Y-75152878D01*
X112695205Y-75215769D01*
X112668527Y-75275378D01*
X112636384Y-75331960D01*
X112599368Y-75385772D01*
X112558068Y-75437068D01*
X112513075Y-75486104D01*
X112464982Y-75533136D01*
X112361854Y-75622209D01*
X112253410Y-75706330D01*
X112039486Y-75867892D01*
X111943458Y-75949421D01*
X111900246Y-75991267D01*
X111861022Y-76034175D01*
X111826379Y-76078399D01*
X111796906Y-76124196D01*
X111773195Y-76171821D01*
X111755836Y-76221529D01*
X111745421Y-76273577D01*
X111742540Y-76328218D01*
X111747783Y-76385710D01*
X111761743Y-76446307D01*
X111825867Y-76606045D01*
X111917683Y-76752323D01*
X112035182Y-76886054D01*
X112176354Y-77008151D01*
X112339190Y-77119526D01*
X112521680Y-77221090D01*
X112721815Y-77313758D01*
X112937587Y-77398440D01*
X113407999Y-77547498D01*
X113916843Y-77675563D01*
X114985526Y-77897912D01*
X115513216Y-78006793D01*
X116015038Y-78123877D01*
X116474918Y-78256462D01*
X116684107Y-78330848D01*
X116876782Y-78411847D01*
X117050934Y-78500371D01*
X117204554Y-78597332D01*
X117335632Y-78703642D01*
X117442160Y-78820214D01*
X117522127Y-78947960D01*
X117573525Y-79087793D01*
X117594343Y-79240624D01*
X117582574Y-79407367D01*
X117556431Y-79515296D01*
X117516587Y-79609516D01*
X117463920Y-79690831D01*
X117399309Y-79760045D01*
X117323632Y-79817961D01*
X117237767Y-79865384D01*
X117142592Y-79903119D01*
X117038985Y-79931967D01*
X116927825Y-79952735D01*
X116809990Y-79966226D01*
X116557808Y-79974591D01*
X116289463Y-79963496D01*
X116011981Y-79939372D01*
X115457711Y-79877766D01*
X115194974Y-79853148D01*
X114951203Y-79841228D01*
X114733423Y-79848440D01*
X114636476Y-79861230D01*
X114548661Y-79881215D01*
X114470857Y-79909199D01*
X114403941Y-79945985D01*
X114348793Y-79992378D01*
X114306291Y-80049182D01*
X114280274Y-80108232D01*
X114266051Y-80173182D01*
X114262613Y-80243600D01*
X114268948Y-80319057D01*
X114284050Y-80399121D01*
X114306907Y-80483362D01*
X114336512Y-80571349D01*
X114371853Y-80662651D01*
X114740024Y-81460731D01*
X114818790Y-81663253D01*
X114850631Y-81762596D01*
X114876098Y-81860085D01*
X114894181Y-81955290D01*
X114903872Y-82047780D01*
X114904161Y-82137125D01*
X114894038Y-82222894D01*
X114872495Y-82304655D01*
X114838521Y-82381979D01*
X114791109Y-82454435D01*
X114729248Y-82521591D01*
X114651929Y-82583017D01*
X114558143Y-82638283D01*
X114446880Y-82686958D01*
X114317132Y-82728610D01*
X114179256Y-82754473D01*
X114044163Y-82757199D01*
X113911665Y-82738491D01*
X113781575Y-82700050D01*
X113653705Y-82643579D01*
X113527867Y-82570779D01*
X113403873Y-82483352D01*
X113281535Y-82383000D01*
X113160666Y-82271426D01*
X113041078Y-82150330D01*
X112804992Y-81886382D01*
X112339928Y-81319118D01*
X112107944Y-81043031D01*
X111874322Y-80790128D01*
X111756428Y-80676625D01*
X111637560Y-80574024D01*
X111517532Y-80484026D01*
X111396156Y-80408334D01*
X111273244Y-80348649D01*
X111148607Y-80306674D01*
X111022059Y-80284110D01*
X110893411Y-80282658D01*
X110762475Y-80304022D01*
X110629064Y-80349902D01*
X110492991Y-80422002D01*
X110354066Y-80522021D01*
X110280860Y-80588496D01*
X110221106Y-80656960D01*
X110173939Y-80727287D01*
X110138495Y-80799356D01*
X110113912Y-80873042D01*
X110099325Y-80948221D01*
X110093871Y-81024770D01*
X110096685Y-81102564D01*
X110106904Y-81181481D01*
X110123665Y-81261396D01*
X110146103Y-81342185D01*
X110173354Y-81423725D01*
X110238843Y-81588563D01*
X110313220Y-81754919D01*
X110389577Y-81921803D01*
X110461002Y-82088226D01*
X110520586Y-82253196D01*
X110543778Y-82334827D01*
X110561418Y-82415724D01*
X110572643Y-82495763D01*
X110576588Y-82574821D01*
X110572391Y-82652772D01*
X110559186Y-82729495D01*
X110536112Y-82804864D01*
X110502302Y-82878757D01*
X110456895Y-82951049D01*
X110399026Y-83021617D01*
X110356659Y-83059631D01*
X110305970Y-83091849D01*
X110247591Y-83118871D01*
X110182153Y-83141298D01*
X110110287Y-83159729D01*
X110032623Y-83174763D01*
X109862429Y-83197044D01*
X109480247Y-83227247D01*
X109278356Y-83244767D01*
X109075998Y-83270299D01*
X108976222Y-83287569D01*
X108878222Y-83308641D01*
X108782630Y-83334116D01*
X108690077Y-83364593D01*
X108601193Y-83400672D01*
X108516611Y-83442953D01*
X108436961Y-83492036D01*
X108362874Y-83548521D01*
X108294982Y-83613007D01*
X108233915Y-83686095D01*
X108180306Y-83768384D01*
X108134784Y-83860475D01*
X108097981Y-83962967D01*
X108070528Y-84076459D01*
X108053056Y-84201553D01*
X108046197Y-84338847D01*
X108054229Y-84551882D01*
X108081955Y-84740353D01*
X108128490Y-84905956D01*
X108192946Y-85050386D01*
X108274437Y-85175338D01*
X108372078Y-85282504D01*
X108484981Y-85373582D01*
X108612260Y-85450265D01*
X108753029Y-85514248D01*
X108906402Y-85567226D01*
X109247413Y-85646944D01*
X109628201Y-85702977D01*
X110041677Y-85748883D01*
X110480748Y-85798220D01*
X110938325Y-85864544D01*
X111407317Y-85961413D01*
X111643877Y-86025539D01*
X111880632Y-86102385D01*
X112116694Y-86193646D01*
X112351179Y-86301017D01*
X112583199Y-86426193D01*
X112811869Y-86570867D01*
X113036300Y-86736736D01*
X113255609Y-86925493D01*
X113468907Y-87138833D01*
X113675309Y-87378452D01*
X114070218Y-87862053D01*
X114445980Y-88300811D01*
X114805105Y-88696608D01*
X115150102Y-89051327D01*
X115483479Y-89366851D01*
X115807746Y-89645062D01*
X116125412Y-89887842D01*
X116438985Y-90097074D01*
X116595021Y-90189698D01*
X116750975Y-90274640D01*
X116907161Y-90352137D01*
X117063891Y-90422423D01*
X117221480Y-90485735D01*
X117380242Y-90542306D01*
X117702537Y-90636170D01*
X118033284Y-90705899D01*
X118374994Y-90753375D01*
X118730174Y-90780479D01*
X119101335Y-90789096D01*
X119243907Y-90790781D01*
X119386364Y-90795799D01*
X119528298Y-90804093D01*
X119669304Y-90815609D01*
X119808974Y-90830291D01*
X119946903Y-90848083D01*
X120082684Y-90868929D01*
X120215911Y-90892775D01*
X120346177Y-90919563D01*
X120473077Y-90949239D01*
X120596203Y-90981747D01*
X120715149Y-91017031D01*
X120829510Y-91055035D01*
X120938878Y-91095705D01*
X121042848Y-91138983D01*
X121141012Y-91184816D01*
X121232966Y-91233146D01*
X121318301Y-91283919D01*
X121396613Y-91337078D01*
X121467494Y-91392569D01*
X121530538Y-91450334D01*
X121585340Y-91510320D01*
X121631491Y-91572470D01*
X121668587Y-91636728D01*
X121696221Y-91703039D01*
X121713987Y-91771347D01*
X121721477Y-91841597D01*
X121718287Y-91913732D01*
X121704008Y-91987698D01*
X121678236Y-92063438D01*
X121640564Y-92140897D01*
X121590585Y-92220020D01*
X121453202Y-92394980D01*
X121307504Y-92543069D01*
X121154176Y-92665902D01*
X120993903Y-92765098D01*
X120827371Y-92842273D01*
X120655264Y-92899046D01*
X120478268Y-92937033D01*
X120297067Y-92957853D01*
X120112346Y-92963122D01*
X119924790Y-92954458D01*
X119735085Y-92933479D01*
X119543916Y-92901802D01*
X119159923Y-92812822D01*
X118778293Y-92700460D01*
X118044039Y-92457343D01*
X117702375Y-92352468D01*
X117384995Y-92275968D01*
X117237123Y-92252402D01*
X117097377Y-92240783D01*
X116966442Y-92242726D01*
X116845003Y-92259851D01*
X116733744Y-92293774D01*
X116633352Y-92346113D01*
X116544510Y-92418485D01*
X116467904Y-92512508D01*
X116438491Y-92572071D01*
X116425361Y-92636605D01*
X116427180Y-92705869D01*
X116442619Y-92779620D01*
X116470344Y-92857618D01*
X116509024Y-92939622D01*
X116557328Y-93025391D01*
X116613923Y-93114682D01*
X117205369Y-93926905D01*
X117342922Y-94148308D01*
X117402828Y-94260435D01*
X117455044Y-94373191D01*
X117498238Y-94486335D01*
X117531079Y-94599624D01*
X117552235Y-94712819D01*
X117560374Y-94825678D01*
X117554165Y-94937959D01*
X117532275Y-95049422D01*
X117493374Y-95159825D01*
X117436128Y-95268928D01*
X117359207Y-95376488D01*
X117261278Y-95482264D01*
X117141010Y-95586017D01*
X116997071Y-95687503D01*
X116845776Y-95771907D01*
X116689141Y-95835502D01*
X116527641Y-95879764D01*
X116361756Y-95906169D01*
X116191962Y-95916190D01*
X116018736Y-95911303D01*
X115842556Y-95892984D01*
X115663899Y-95862706D01*
X115483242Y-95821945D01*
X115301062Y-95772176D01*
X114934044Y-95651514D01*
X114566662Y-95512521D01*
X114202736Y-95366995D01*
X113846083Y-95226738D01*
X113500520Y-95103548D01*
X113333091Y-95052042D01*
X113169867Y-95009227D01*
X113011325Y-94976580D01*
X112857941Y-94955574D01*
X112710194Y-94947686D01*
X112568561Y-94954390D01*
X112433518Y-94977161D01*
X112305543Y-95017474D01*
X112185114Y-95076804D01*
X112072708Y-95156626D01*
X111968801Y-95258416D01*
X111873872Y-95383647D01*
X111833472Y-95453234D01*
X111802647Y-95524034D01*
X111781172Y-95595845D01*
X111768817Y-95668464D01*
X111765357Y-95741689D01*
X111770565Y-95815318D01*
X111784213Y-95889147D01*
X111806074Y-95962974D01*
X111835922Y-96036597D01*
X111873529Y-96109813D01*
X111918668Y-96182421D01*
X111971113Y-96254216D01*
X112030636Y-96324997D01*
X112097010Y-96394562D01*
X112249403Y-96529231D01*
X112426477Y-96656604D01*
X112626415Y-96775060D01*
X112847400Y-96882979D01*
X113087618Y-96978742D01*
X113345250Y-97060728D01*
X113618482Y-97127318D01*
X113905496Y-97176891D01*
X114204477Y-97207828D01*
X114443564Y-97229468D01*
X114673621Y-97260293D01*
X114895317Y-97299828D01*
X115109319Y-97347599D01*
X115316295Y-97403131D01*
X115516913Y-97465948D01*
X115901749Y-97611542D01*
X116269170Y-97780582D01*
X116624520Y-97969270D01*
X116973144Y-98173808D01*
X117320386Y-98390397D01*
X118032101Y-98844539D01*
X118407262Y-99074495D01*
X118802418Y-99301309D01*
X119222913Y-99521184D01*
X119674091Y-99730322D01*
X120161297Y-99924924D01*
X120420080Y-100015587D01*
X120689874Y-100101192D01*
X120930082Y-100167915D01*
X121174391Y-100225396D01*
X121422042Y-100274400D01*
X121672276Y-100315690D01*
X122177458Y-100378183D01*
X122683863Y-100418986D01*
X123185417Y-100444210D01*
X123676049Y-100459967D01*
X124600253Y-100487519D01*
X125021679Y-100511535D01*
X125407891Y-100550527D01*
X125585894Y-100577548D01*
X125752816Y-100610605D01*
X125907898Y-100650461D01*
X126050380Y-100697879D01*
X126179504Y-100753625D01*
X126294511Y-100818461D01*
X126394642Y-100893151D01*
X126479137Y-100978461D01*
X126547237Y-101075152D01*
X126598183Y-101183989D01*
X126631216Y-101305737D01*
X126645578Y-101441158D01*
X126642618Y-101649853D01*
X126619777Y-101835510D01*
X126578280Y-101999304D01*
X126519355Y-102142405D01*
X126444228Y-102265989D01*
X126354125Y-102371226D01*
X126250273Y-102459291D01*
X126133899Y-102531357D01*
X126006228Y-102588596D01*
X125868487Y-102632182D01*
X125721903Y-102663287D01*
X125567702Y-102683085D01*
X125407111Y-102692748D01*
X125241356Y-102693449D01*
X124899261Y-102672659D01*
X124551228Y-102630099D01*
X124207069Y-102575152D01*
X123569622Y-102465636D01*
X123295958Y-102429834D01*
X123065415Y-102419181D01*
X122969381Y-102426218D01*
X122887806Y-102443062D01*
X122821918Y-102470885D01*
X122772943Y-102510860D01*
X122728398Y-102574924D01*
X122702157Y-102641602D01*
X122692838Y-102710757D01*
X122699060Y-102782252D01*
X122719439Y-102855950D01*
X122752595Y-102931716D01*
X122797146Y-103009411D01*
X122851709Y-103088900D01*
X122985344Y-103252709D01*
X123142445Y-103422049D01*
X123482823Y-103772946D01*
X123643990Y-103952313D01*
X123784400Y-104132835D01*
X123843366Y-104223186D01*
X123892997Y-104313416D01*
X123931912Y-104403386D01*
X123958728Y-104492962D01*
X123972063Y-104582005D01*
X123970535Y-104670379D01*
X123952763Y-104757947D01*
X123917364Y-104844572D01*
X123862956Y-104930119D01*
X123788158Y-105014448D01*
X123691588Y-105097425D01*
X123571862Y-105178912D01*
X123353030Y-105295452D01*
X123137710Y-105376463D01*
X122925861Y-105424355D01*
X122717445Y-105441536D01*
X122512420Y-105430413D01*
X122310747Y-105393395D01*
X122112384Y-105332891D01*
X121917292Y-105251308D01*
X121725431Y-105151055D01*
X121536761Y-105034541D01*
X121351240Y-104904172D01*
X121168830Y-104762358D01*
X120813177Y-104454027D01*
X120469482Y-104128813D01*
X119816673Y-103504800D01*
X119506916Y-103244534D01*
X119356059Y-103135764D01*
X119207829Y-103044448D01*
X119062186Y-102972994D01*
X118919089Y-102923809D01*
X118778498Y-102899303D01*
X118640374Y-102901884D01*
X118504676Y-102933959D01*
X118371363Y-102997937D01*
X118240396Y-103096226D01*
X118111734Y-103231235D01*
X118049825Y-103314467D01*
X118004823Y-103393378D01*
X117975649Y-103468275D01*
X117961227Y-103539467D01*
X117960476Y-103607263D01*
X117972321Y-103671970D01*
X117995683Y-103733896D01*
X118029484Y-103793351D01*
X118072647Y-103850642D01*
X118124093Y-103906077D01*
X118182745Y-103959966D01*
X118247524Y-104012615D01*
X118391156Y-104115431D01*
X118546364Y-104216991D01*
X118704527Y-104319761D01*
X118857021Y-104426207D01*
X118995223Y-104538796D01*
X119056271Y-104598165D01*
X119110512Y-104659994D01*
X119156869Y-104724592D01*
X119194264Y-104792267D01*
X119221618Y-104863328D01*
X119237855Y-104938082D01*
X119241897Y-105016838D01*
X119232664Y-105099904D01*
X119209081Y-105187589D01*
X119170068Y-105280200D01*
X119114936Y-105370754D01*
X119049233Y-105442817D01*
X118973668Y-105497820D01*
X118888949Y-105537193D01*
X118795786Y-105562367D01*
X118694888Y-105574773D01*
X118586965Y-105575841D01*
X118472725Y-105567002D01*
X118352877Y-105549687D01*
X118228132Y-105525326D01*
X117966782Y-105461189D01*
X117416509Y-105311312D01*
X117138931Y-105248462D01*
X117002014Y-105225067D01*
X116867291Y-105208932D01*
X116735470Y-105201488D01*
X116607261Y-105204166D01*
X116483374Y-105218396D01*
X116364516Y-105245609D01*
X116251398Y-105287236D01*
X116144728Y-105344707D01*
X116045216Y-105419452D01*
X115953570Y-105512903D01*
X115870501Y-105626491D01*
X115796717Y-105761644D01*
X115732927Y-105919795D01*
X115679841Y-106102374D01*
X115666554Y-106172953D01*
X115660825Y-106243788D01*
X115662469Y-106314770D01*
X115671302Y-106385788D01*
X115687140Y-106456729D01*
X115709798Y-106527483D01*
X115739092Y-106597939D01*
X115774838Y-106667985D01*
X115816852Y-106737511D01*
X115864949Y-106806406D01*
X115978654Y-106941856D01*
X116114479Y-107073446D01*
X116270950Y-107200288D01*
X116446592Y-107321492D01*
X116639931Y-107436170D01*
X116849490Y-107543433D01*
X117073797Y-107642391D01*
X117311376Y-107732157D01*
X117560752Y-107811840D01*
X117820451Y-107880552D01*
X118088998Y-107937404D01*
X118345488Y-107978522D01*
X118607437Y-108008975D01*
X118874311Y-108030740D01*
X119145571Y-108045791D01*
X120263755Y-108078353D01*
X120835222Y-108105701D01*
X121122173Y-108129054D01*
X121409219Y-108161493D01*
X121695824Y-108204993D01*
X121981452Y-108261529D01*
X122265567Y-108333077D01*
X122547631Y-108421611D01*
X122801738Y-108516543D01*
X123055710Y-108622855D01*
X123567778Y-108861239D01*
X124640105Y-109382365D01*
X124924830Y-109509663D01*
X125218475Y-109631577D01*
X125522173Y-109746009D01*
X125837056Y-109850866D01*
X126164255Y-109944051D01*
X126504903Y-110023468D01*
X126860132Y-110087022D01*
X127231073Y-110132617D01*
X127530502Y-110156889D01*
X127826862Y-110173221D01*
X128119722Y-110182379D01*
X128408650Y-110185130D01*
X128972989Y-110174479D01*
X129516432Y-110147404D01*
X131412307Y-109997550D01*
X131799567Y-109980373D01*
X131977821Y-109979045D01*
X132145249Y-109983580D01*
X132301422Y-109994745D01*
X132445908Y-110013306D01*
X132578276Y-110040031D01*
X132698095Y-110075686D01*
X132804934Y-110121038D01*
X132898364Y-110176854D01*
X132977952Y-110243901D01*
X133043267Y-110322946D01*
X133093880Y-110414756D01*
X133129359Y-110520097D01*
X133149273Y-110639736D01*
X133153192Y-110774440D01*
X133137236Y-110954804D01*
X133101514Y-111115992D01*
X133047331Y-111259148D01*
X132975989Y-111385418D01*
X132888791Y-111495946D01*
X132787040Y-111591875D01*
X132672041Y-111674351D01*
X132545095Y-111744517D01*
X132407506Y-111803519D01*
X132260577Y-111852500D01*
X132105611Y-111892606D01*
X131943912Y-111924980D01*
X131605527Y-111971111D01*
X131255845Y-112000050D01*
X130564296Y-112042971D01*
X130243279Y-112075264D01*
X129952668Y-112126987D01*
X129822023Y-112162995D01*
X129702888Y-112207294D01*
X129596568Y-112261028D01*
X129504365Y-112325341D01*
X129427582Y-112401378D01*
X129367523Y-112490283D01*
X129325491Y-112593201D01*
X129302789Y-112711276D01*
X129303491Y-112776707D01*
X129317506Y-112846160D01*
X129343700Y-112919373D01*
X129380940Y-112996081D01*
X129428092Y-113076021D01*
X129484022Y-113158928D01*
X129617681Y-113332592D01*
X130276664Y-114093196D01*
X130427143Y-114289282D01*
X130494007Y-114386765D01*
X130553774Y-114483522D01*
X130605312Y-114579289D01*
X130647487Y-114673804D01*
X130679163Y-114766801D01*
X130699209Y-114858018D01*
X130706490Y-114947190D01*
X130699871Y-115034053D01*
X130678220Y-115118345D01*
X130640402Y-115199800D01*
X130585284Y-115278155D01*
X130511731Y-115353147D01*
X130418611Y-115424512D01*
X130304788Y-115491985D01*
X130192834Y-115543952D01*
X130083617Y-115581281D01*
X129976982Y-115604830D01*
X129872773Y-115615454D01*
X129770836Y-115614010D01*
X129671015Y-115601353D01*
X129573155Y-115578339D01*
X129477100Y-115545824D01*
X129382697Y-115504665D01*
X129289789Y-115455718D01*
X129198221Y-115399839D01*
X129107838Y-115337884D01*
X128930008Y-115199169D01*
X128755057Y-115046422D01*
X128408828Y-114726230D01*
X128235066Y-114572481D01*
X128059219Y-114432096D01*
X127970125Y-114369055D01*
X127880044Y-114311922D01*
X127788821Y-114261556D01*
X127696301Y-114218810D01*
X127602328Y-114184542D01*
X127506748Y-114159607D01*
X127409405Y-114144862D01*
X127310144Y-114141162D01*
X127257713Y-114145666D01*
X127210142Y-114156590D01*
X127167081Y-114173527D01*
X127128181Y-114196068D01*
X127093092Y-114223806D01*
X127061463Y-114256332D01*
X127032946Y-114293240D01*
X127007190Y-114334121D01*
X126983846Y-114378568D01*
X126962564Y-114426173D01*
X126924787Y-114529224D01*
X126858586Y-114755278D01*
X126824567Y-114871755D01*
X126786205Y-114986183D01*
X126764520Y-115041609D01*
X126740701Y-115095300D01*
X126714397Y-115146847D01*
X126685258Y-115195842D01*
X126652934Y-115241879D01*
X126617077Y-115284548D01*
X126577335Y-115323443D01*
X126533361Y-115358155D01*
X126484802Y-115388278D01*
X126431311Y-115413402D01*
X126372536Y-115433120D01*
X126308129Y-115447025D01*
X126205999Y-115449709D01*
X126096155Y-115427364D01*
X125978935Y-115381892D01*
X125854678Y-115315195D01*
X125723722Y-115229177D01*
X125586406Y-115125738D01*
X125294047Y-114874208D01*
X123937884Y-113551737D01*
X123565700Y-113218121D01*
X123185674Y-112913743D01*
X122993566Y-112777273D01*
X122800513Y-112653819D01*
X122606853Y-112545284D01*
X122412925Y-112453569D01*
X122219066Y-112380577D01*
X122025617Y-112328210D01*
X121832914Y-112298370D01*
X121641296Y-112292960D01*
X121451103Y-112313882D01*
X121262671Y-112363037D01*
X121076341Y-112442330D01*
X120892450Y-112553661D01*
X120830119Y-112603149D01*
X120776980Y-112657503D01*
X120732852Y-112716444D01*
X120697557Y-112779692D01*
X120670917Y-112846968D01*
X120652752Y-112917992D01*
X120642884Y-112992486D01*
X120641134Y-113070170D01*
X120647324Y-113150765D01*
X120661274Y-113233991D01*
X120682806Y-113319569D01*
X120711742Y-113407220D01*
X120747902Y-113496665D01*
X120791107Y-113587623D01*
X120841180Y-113679817D01*
X120897941Y-113772966D01*
X120961211Y-113866791D01*
X121030812Y-113961013D01*
X121188292Y-114149531D01*
X121368949Y-114336284D01*
X121571355Y-114519040D01*
X121794079Y-114695562D01*
X122035692Y-114863616D01*
X122294764Y-115020969D01*
X122430399Y-115094934D01*
X122569864Y-115165386D01*
X122819275Y-115293902D01*
X123053922Y-115429789D01*
X123165400Y-115500180D01*
X123272816Y-115572034D01*
X123376047Y-115645226D01*
X123474969Y-115719628D01*
X123569460Y-115795115D01*
X123659394Y-115871559D01*
X123744649Y-115948835D01*
X123825101Y-116026816D01*
X123900628Y-116105376D01*
X123971104Y-116184389D01*
X124036407Y-116263727D01*
X124096414Y-116343266D01*
X124151000Y-116422877D01*
X124200043Y-116502436D01*
X124243418Y-116581815D01*
X124281003Y-116660888D01*
X124312673Y-116739530D01*
X124338306Y-116817612D01*
X124357778Y-116895010D01*
X124370965Y-116971597D01*
X124377743Y-117047246D01*
X124377990Y-117121831D01*
X124371582Y-117195225D01*
X124358395Y-117267303D01*
X124338306Y-117337938D01*
X124311191Y-117407003D01*
X124276927Y-117474373D01*
X124235391Y-117539920D01*
X124144315Y-117654338D01*
X124048658Y-117745148D01*
X123948778Y-117813672D01*
X123845038Y-117861230D01*
X123737797Y-117889143D01*
X123627416Y-117898733D01*
X123514255Y-117891320D01*
X123398675Y-117868225D01*
X123281036Y-117830769D01*
X123161699Y-117780274D01*
X123041023Y-117718059D01*
X122919370Y-117645447D01*
X122797100Y-117563758D01*
X122674574Y-117474312D01*
X122430192Y-117277437D01*
X122189109Y-117065388D01*
X121954209Y-116848734D01*
X121514489Y-116443881D01*
X121315437Y-116276818D01*
X121222375Y-116206750D01*
X121134102Y-116147419D01*
X121050979Y-116100146D01*
X120973366Y-116066253D01*
X120901624Y-116047060D01*
X120836114Y-116043887D01*
X120758175Y-116053027D01*
X120687646Y-116066403D01*
X120624011Y-116083755D01*
X120566756Y-116104819D01*
X120515365Y-116129333D01*
X120469323Y-116157035D01*
X120428116Y-116187661D01*
X120391228Y-116220949D01*
X120358144Y-116256636D01*
X120328349Y-116294461D01*
X120301328Y-116334160D01*
X120276567Y-116375471D01*
X120231760Y-116461878D01*
X120189809Y-116551581D01*
X120146593Y-116642480D01*
X120097992Y-116732474D01*
X120070384Y-116776475D01*
X120039885Y-116819463D01*
X120005979Y-116861174D01*
X119968151Y-116901346D01*
X119925887Y-116939716D01*
X119878671Y-116976022D01*
X119825989Y-117010001D01*
X119767325Y-117041391D01*
X119702163Y-117069929D01*
X119629990Y-117095353D01*
X119550290Y-117117400D01*
X119462548Y-117135806D01*
X119379552Y-117141950D01*
X119295207Y-117131661D01*
X119209490Y-117106193D01*
X119122375Y-117066799D01*
X119033838Y-117014733D01*
X118943853Y-116951248D01*
X118852396Y-116877599D01*
X118759442Y-116795040D01*
X118568942Y-116608202D01*
X118372156Y-116400766D01*
X117958924Y-115964216D01*
X117742082Y-115755161D01*
X117631017Y-115657326D01*
X117518156Y-115565626D01*
X117403475Y-115481313D01*
X117286948Y-115405640D01*
X117168550Y-115339863D01*
X117048258Y-115285234D01*
X116926045Y-115243008D01*
X116801887Y-115214437D01*
X116675760Y-115200776D01*
X116547637Y-115203279D01*
X116417495Y-115223199D01*
X116285309Y-115261789D01*
X116151053Y-115320304D01*
X116014703Y-115399997D01*
X115915421Y-115476307D01*
X115816430Y-115577123D01*
X115726340Y-115701491D01*
X115653760Y-115848457D01*
X115607297Y-116017066D01*
X115596551Y-116109189D01*
X115595563Y-116206364D01*
X115605409Y-116308472D01*
X115627164Y-116415394D01*
X115661907Y-116527011D01*
X115710712Y-116643204D01*
X115774655Y-116763853D01*
X115854813Y-116888838D01*
X115952262Y-117018041D01*
X116068078Y-117151341D01*
X116203337Y-117288621D01*
X116359116Y-117429760D01*
X116536489Y-117574639D01*
X116736535Y-117723139D01*
X116960328Y-117875140D01*
X117208944Y-118030523D01*
X117483461Y-118189169D01*
X117784953Y-118350959D01*
X118114497Y-118515772D01*
X118473170Y-118683490D01*
X118862047Y-118853994D01*
X119282205Y-119027164D01*
X119628979Y-119159343D01*
X119972424Y-119277839D01*
X120312177Y-119383577D01*
X120647879Y-119477481D01*
X120979168Y-119560473D01*
X121305684Y-119633479D01*
X121942951Y-119753224D01*
X122556794Y-119844109D01*
X123144328Y-119913524D01*
X124228917Y-120017510D01*
X124720200Y-120066862D01*
X125173627Y-120124309D01*
X125586311Y-120197242D01*
X125776472Y-120241825D01*
X125955365Y-120293052D01*
X126122629Y-120351845D01*
X126277903Y-120419129D01*
X126420826Y-120495829D01*
X126551038Y-120582866D01*
X126668178Y-120681167D01*
X126771884Y-120791654D01*
X126861797Y-120915251D01*
X126937554Y-121052882D01*
X126968379Y-121127395D01*
X126989299Y-121198832D01*
X127000955Y-121267363D01*
X127003990Y-121333153D01*
X126999046Y-121396371D01*
X126986765Y-121457185D01*
X126967788Y-121515761D01*
X126942759Y-121572266D01*
X126912318Y-121626869D01*
X126877109Y-121679737D01*
X126837772Y-121731037D01*
X126794951Y-121780937D01*
X126701422Y-121877205D01*
X126601659Y-121969881D01*
X126403974Y-122149814D01*
X126316325Y-122239750D01*
X126277546Y-122285297D01*
X126242987Y-122331452D01*
X126213290Y-122378383D01*
X126189096Y-122426258D01*
X126171049Y-122475244D01*
X126159790Y-122525509D01*
X126155960Y-122577220D01*
X126160203Y-122630544D01*
X126173160Y-122685649D01*
X126195474Y-122742702D01*
X126234045Y-122808359D01*
X126288982Y-122876365D01*
X126445175Y-123018264D01*
X126658481Y-123166072D01*
X126923333Y-123317463D01*
X127234161Y-123470111D01*
X127585395Y-123621689D01*
X127971466Y-123769872D01*
X128386806Y-123912333D01*
X128825844Y-124046745D01*
X129283012Y-124170784D01*
X129752739Y-124282121D01*
X130229458Y-124378432D01*
X130707599Y-124457390D01*
X131181592Y-124516668D01*
X131645867Y-124553941D01*
X132094857Y-124566882D01*
X132913718Y-124557760D01*
X133696473Y-124533857D01*
X134440289Y-124500370D01*
X135142336Y-124462496D01*
X136409799Y-124394376D01*
X136969552Y-124374524D01*
X137476213Y-124371072D01*
X137708748Y-124377120D01*
X137926948Y-124389218D01*
X138130460Y-124408014D01*
X138318929Y-124434158D01*
X138492001Y-124468301D01*
X138649322Y-124511090D01*
X138790540Y-124563177D01*
X138915299Y-124625211D01*
X139023245Y-124697841D01*
X139114026Y-124781716D01*
X139187287Y-124877488D01*
X139242674Y-124985804D01*
X139279833Y-125107315D01*
X139298410Y-125242671D01*
X139298053Y-125392520D01*
X139278405Y-125557513D01*
X139230815Y-125743533D01*
X139156818Y-125905712D01*
X139058245Y-126045544D01*
X138936928Y-126164521D01*
X138794696Y-126264136D01*
X138633382Y-126345881D01*
X138454815Y-126411249D01*
X138260827Y-126461733D01*
X138053247Y-126498824D01*
X137833908Y-126524016D01*
X137367273Y-126544673D01*
X136875567Y-126535643D01*
X136373437Y-126508867D01*
X135396490Y-126449842D01*
X134950965Y-126441473D01*
X134553602Y-126463121D01*
X134377558Y-126488932D01*
X134219046Y-126526726D01*
X134079898Y-126577994D01*
X133961944Y-126644230D01*
X133867015Y-126726925D01*
X133796942Y-126827573D01*
X133753556Y-126947665D01*
X133738687Y-127088695D01*
X133749198Y-127178867D01*
X133779705Y-127259893D01*
X133828667Y-127332514D01*
X133894544Y-127397470D01*
X133975794Y-127455505D01*
X134070876Y-127507359D01*
X134178251Y-127553774D01*
X134296378Y-127595491D01*
X134558721Y-127667800D01*
X134845582Y-127730216D01*
X135443549Y-127849103D01*
X135730005Y-127917438D01*
X135991674Y-127999611D01*
X136109362Y-128047740D01*
X136216232Y-128101553D01*
X136310741Y-128161792D01*
X136391351Y-128229198D01*
X136456519Y-128304512D01*
X136504706Y-128388477D01*
X136534370Y-128481833D01*
X136543971Y-128585323D01*
X136531969Y-128699687D01*
X136496821Y-128825667D01*
X136436989Y-128964006D01*
X136350930Y-129115443D01*
X136209512Y-129310426D01*
X136052034Y-129474351D01*
X135879689Y-129608995D01*
X135693671Y-129716131D01*
X135495170Y-129797536D01*
X135285380Y-129854982D01*
X135065494Y-129890247D01*
X134836702Y-129905103D01*
X134600199Y-129901326D01*
X134357175Y-129880690D01*
X134108825Y-129844971D01*
X133856339Y-129795944D01*
X133343732Y-129665061D01*
X132828895Y-129502240D01*
X130938020Y-128815545D01*
X130555117Y-128706008D01*
X130383695Y-128670322D01*
X130227218Y-128649724D01*
X130086876Y-128645988D01*
X129963863Y-128660890D01*
X129859370Y-128696203D01*
X129774591Y-128753703D01*
X129701880Y-128831911D01*
X129653408Y-128908118D01*
X129627495Y-128982506D01*
X129622459Y-129055256D01*
X129636621Y-129126549D01*
X129668300Y-129196566D01*
X129715816Y-129265488D01*
X129777487Y-129333495D01*
X129851634Y-129400769D01*
X129936577Y-129467490D01*
X130132124Y-129600000D01*
X130578822Y-129866351D01*
X130803085Y-130003088D01*
X131010031Y-130144130D01*
X131102810Y-130216717D01*
X131186218Y-130290923D01*
X131258576Y-130366929D01*
X131318202Y-130444915D01*
X131363416Y-130525064D01*
X131392539Y-130607555D01*
X131403889Y-130692570D01*
X131395785Y-130780289D01*
X131366548Y-130870894D01*
X131314498Y-130964565D01*
X131237952Y-131061483D01*
X131135232Y-131161830D01*
X131004186Y-131252341D01*
X130855671Y-131311404D01*
X130690872Y-131341279D01*
X130510972Y-131344230D01*
X130317154Y-131322517D01*
X130110601Y-131278403D01*
X129892496Y-131214149D01*
X129664023Y-131132018D01*
X129180704Y-130923168D01*
X128670109Y-130669949D01*
X127604959Y-130102779D01*
X127069334Y-129825017D01*
X126544297Y-129575262D01*
X126039314Y-129371610D01*
X125797301Y-129292727D01*
X125563851Y-129232155D01*
X125340147Y-129192155D01*
X125127372Y-129174990D01*
X124926711Y-129182922D01*
X124739346Y-129218211D01*
X124566459Y-129283121D01*
X124409236Y-129379912D01*
X124268858Y-129510847D01*
X124146508Y-129678188D01*
X124071964Y-129824349D01*
X124030776Y-129960045D01*
X124020822Y-130086006D01*
X124039980Y-130202964D01*
X124086129Y-130311649D01*
X124157149Y-130412793D01*
X124250916Y-130507127D01*
X124365310Y-130595383D01*
X124498210Y-130678292D01*
X124647493Y-130756584D01*
X124986725Y-130902246D01*
X125366035Y-131038218D01*
X125768451Y-131170350D01*
X126177001Y-131304493D01*
X126574714Y-131446497D01*
X126944617Y-131602210D01*
X127113836Y-131687036D01*
X127269739Y-131777484D01*
X127410204Y-131874284D01*
X127533109Y-131978168D01*
X127636332Y-132089866D01*
X127717753Y-132210112D01*
X127775251Y-132339634D01*
X127806702Y-132479165D01*
X127809987Y-132629437D01*
X127782983Y-132791179D01*
X127748988Y-132892662D01*
X127703568Y-132978233D01*
X127647426Y-133048867D01*
X127581267Y-133105537D01*
X127505796Y-133149217D01*
X127421718Y-133180882D01*
X127329738Y-133201505D01*
X127230560Y-133212060D01*
X127124889Y-133213521D01*
X127013429Y-133206861D01*
X126775964Y-133173079D01*
X126523802Y-133118503D01*
X126262582Y-133050925D01*
X125735515Y-132907931D01*
X125480945Y-132848097D01*
X125239867Y-132806427D01*
X125126149Y-132794838D01*
X125017919Y-132790712D01*
X124915880Y-132795023D01*
X124820739Y-132808744D01*
X124733198Y-132832850D01*
X124653964Y-132868314D01*
X124583740Y-132916111D01*
X124523233Y-132977214D01*
X124472134Y-133048308D01*
X124435905Y-133117055D01*
X124413546Y-133183619D01*
X124404056Y-133248164D01*
X124406433Y-133310855D01*
X124419678Y-133371855D01*
X124442789Y-133431328D01*
X124474767Y-133489439D01*
X124514610Y-133546352D01*
X124561318Y-133602231D01*
X124671327Y-133711543D01*
X124796787Y-133818689D01*
X124929694Y-133924981D01*
X125062043Y-134031733D01*
X125185830Y-134140258D01*
X125242010Y-134195596D01*
X125293047Y-134251869D01*
X125337942Y-134309242D01*
X125375692Y-134367879D01*
X125405298Y-134427944D01*
X125425759Y-134489601D01*
X125436074Y-134553015D01*
X125435242Y-134618349D01*
X125422263Y-134685767D01*
X125396137Y-134755434D01*
X125355863Y-134827514D01*
X125300439Y-134902171D01*
X125232364Y-134971815D01*
X125155307Y-135029425D01*
X125070028Y-135076003D01*
X124977285Y-135112555D01*
X124877839Y-135140083D01*
X124772449Y-135159592D01*
X124661876Y-135172087D01*
X124546879Y-135178569D01*
X124306651Y-135177516D01*
X124057843Y-135164464D01*
X123558799Y-135134488D01*
X123320719Y-135133627D01*
X123207198Y-135140241D01*
X123098370Y-135152890D01*
X122994994Y-135172579D01*
X122897830Y-135200310D01*
X122807638Y-135237089D01*
X122725177Y-135283918D01*
X122651208Y-135341802D01*
X122586489Y-135411745D01*
X122531781Y-135494750D01*
X122487844Y-135591822D01*
X122455436Y-135703964D01*
X122435318Y-135832180D01*
X122428250Y-135977473D01*
X122434991Y-136140849D01*
X122470972Y-136312164D01*
X122547620Y-136459799D01*
X122662324Y-136585278D01*
X122812477Y-136690122D01*
X122995466Y-136775851D01*
X123208682Y-136843987D01*
X123449516Y-136896052D01*
X123715357Y-136933567D01*
X124311620Y-136971032D01*
X124976592Y-136968554D01*
X126429143Y-136892450D01*
X127905972Y-136802623D01*
X128601290Y-136782992D01*
X129240038Y-136796443D01*
X129801337Y-136855148D01*
X130046417Y-136905274D01*
X130264305Y-136971278D01*
X130452390Y-137054680D01*
X130608062Y-137157003D01*
X130728713Y-137279768D01*
X130811731Y-137424495D01*
X130845873Y-137520982D01*
X130867907Y-137611186D01*
X130878564Y-137695489D01*
X130878576Y-137774273D01*
X130868674Y-137847921D01*
X130849592Y-137916816D01*
X130822059Y-137981341D01*
X130786809Y-138041877D01*
X130744573Y-138098808D01*
X130696082Y-138152516D01*
X130642069Y-138203384D01*
X130583265Y-138251794D01*
X130454213Y-138342773D01*
X130314778Y-138428512D01*
X130028183Y-138596516D01*
X129892730Y-138684903D01*
X129829526Y-138731531D01*
X129770312Y-138780294D01*
X129715822Y-138831572D01*
X129666785Y-138885750D01*
X129623934Y-138943209D01*
X129588002Y-139004332D01*
X129559719Y-139069501D01*
X129539817Y-139139100D01*
X129529028Y-139213511D01*
X129528085Y-139293117D01*
X129547459Y-139382312D01*
X129594745Y-139460925D01*
X129668247Y-139529546D01*
X129766270Y-139588768D01*
X129887119Y-139639181D01*
X130029098Y-139681378D01*
X130369668Y-139743489D01*
X130774419Y-139779833D01*
X131229789Y-139795143D01*
X132238141Y-139781593D01*
X134265578Y-139710331D01*
X134695566Y-139710924D01*
X135067682Y-139728345D01*
X135368365Y-139767329D01*
X135487681Y-139796385D01*
X135584054Y-139832607D01*
X135673349Y-139882385D01*
X135744221Y-139937458D01*
X135798273Y-139997375D01*
X135837107Y-140061685D01*
X135862325Y-140129938D01*
X135875531Y-140201681D01*
X135878326Y-140276465D01*
X135872312Y-140353838D01*
X135840270Y-140514550D01*
X135792223Y-140680210D01*
X135740990Y-140847212D01*
X135699390Y-141011947D01*
X135686208Y-141092338D01*
X135680242Y-141170810D01*
X135683093Y-141246912D01*
X135696365Y-141320193D01*
X135721659Y-141390203D01*
X135760578Y-141456490D01*
X135814724Y-141518604D01*
X135885700Y-141576094D01*
X135975107Y-141628509D01*
X136084550Y-141675398D01*
X136215628Y-141716310D01*
X136369946Y-141750795D01*
X136549106Y-141778401D01*
X136754709Y-141798678D01*
X136988359Y-141811175D01*
X137251657Y-141815440D01*
X141207103Y-141568750D01*
X141394045Y-141576597D01*
X141570549Y-141592119D01*
X141736057Y-141616140D01*
X141890012Y-141649484D01*
X142031855Y-141692973D01*
X142161028Y-141747429D01*
X142276975Y-141813677D01*
X142379137Y-141892540D01*
X142466956Y-141984840D01*
X142539874Y-142091401D01*
X142597334Y-142213046D01*
X142638778Y-142350597D01*
X142663647Y-142504879D01*
X142671385Y-142676714D01*
X142661433Y-142866925D01*
X142633233Y-143076335D01*
X142594544Y-143228155D01*
X142534289Y-143363354D01*
X142453857Y-143482861D01*
X142354638Y-143587603D01*
X142238021Y-143678507D01*
X142105395Y-143756503D01*
X141958150Y-143822516D01*
X141797675Y-143877475D01*
X141625359Y-143922308D01*
X141442592Y-143957942D01*
X141051262Y-144005325D01*
X140634799Y-144027046D01*
X140204318Y-144030526D01*
X139345762Y-144012451D01*
X138939917Y-144005738D01*
X138564513Y-144010471D01*
X138230665Y-144034072D01*
X138082799Y-144055266D01*
X137949489Y-144083961D01*
X137832126Y-144121083D01*
X137732098Y-144167561D01*
X137650796Y-144224321D01*
X137589608Y-144292293D01*
X137549078Y-144354778D01*
X137514315Y-144415200D01*
X137484849Y-144473634D01*
X137460210Y-144530156D01*
X137439930Y-144584841D01*
X137423539Y-144637765D01*
X137410566Y-144689004D01*
X137400543Y-144738632D01*
X137387467Y-144833362D01*
X137380552Y-144922557D01*
X137370179Y-145086765D01*
X137365567Y-145125302D01*
X137359208Y-145162985D01*
X137350632Y-145199889D01*
X137339371Y-145236089D01*
X137324953Y-145271661D01*
X137306910Y-145306681D01*
X137284773Y-145341223D01*
X137258070Y-145375365D01*
X137226333Y-145409180D01*
X137189093Y-145442745D01*
X137145879Y-145476135D01*
X137096222Y-145509426D01*
X137039652Y-145542693D01*
X136975700Y-145576012D01*
X136903895Y-145609458D01*
X136823770Y-145643108D01*
X136669047Y-145698341D01*
X136510979Y-145742313D01*
X136350068Y-145775887D01*
X136186817Y-145799930D01*
X136021726Y-145815307D01*
X135855298Y-145822884D01*
X135688034Y-145823524D01*
X135520437Y-145818095D01*
X135186251Y-145792486D01*
X134856755Y-145752979D01*
X134227891Y-145659963D01*
X133936555Y-145620298D01*
X133665970Y-145594425D01*
X133539714Y-145588823D01*
X133420151Y-145589265D01*
X133307784Y-145596617D01*
X133203114Y-145611743D01*
X133106643Y-145635509D01*
X133018873Y-145668779D01*
X132940307Y-145712420D01*
X132871445Y-145767297D01*
X132812791Y-145834275D01*
X132764845Y-145914218D01*
X132728110Y-146007994D01*
X132703088Y-146116466D01*
X132697858Y-146252152D01*
X132727597Y-146372839D01*
X132789996Y-146479492D01*
X132882743Y-146573075D01*
X133003529Y-146654552D01*
X133150043Y-146724890D01*
X133319975Y-146785051D01*
X133511014Y-146836002D01*
X133947176Y-146914129D01*
X134440045Y-146966988D01*
X135521979Y-147027772D01*
X136608960Y-147080096D01*
X137108137Y-147122379D01*
X137553129Y-147185699D01*
X137749530Y-147227660D01*
X137925455Y-147277775D01*
X138078592Y-147337007D01*
X138206631Y-147406323D01*
X138307263Y-147486686D01*
X138378177Y-147579061D01*
X138417062Y-147684413D01*
X138421609Y-147803706D01*
X138393356Y-147991866D01*
X138351189Y-148159952D01*
X138295978Y-148309009D01*
X138228594Y-148440079D01*
X138149905Y-148554207D01*
X138060784Y-148652435D01*
X137962099Y-148735806D01*
X137854722Y-148805364D01*
X137739522Y-148862153D01*
X137617370Y-148907214D01*
X137489135Y-148941593D01*
X137355689Y-148966332D01*
X137217901Y-148982474D01*
X137076641Y-148991064D01*
X136787189Y-148989755D01*
X136494293Y-148970753D01*
X136204916Y-148942404D01*
X135664566Y-148891050D01*
X135427517Y-148884739D01*
X135320319Y-148890076D01*
X135221833Y-148902466D01*
X135132930Y-148922952D01*
X135054478Y-148952578D01*
X134987349Y-148992387D01*
X134932412Y-149043422D01*
X134885458Y-149104908D01*
X134846917Y-149168580D01*
X134816110Y-149234221D01*
X134792358Y-149301616D01*
X134774981Y-149370549D01*
X134763300Y-149440805D01*
X134756637Y-149512167D01*
X134754312Y-149584421D01*
X134755646Y-149657351D01*
X134759960Y-149730741D01*
X134774812Y-149878037D01*
X134810393Y-150168662D01*
X134820258Y-150308540D01*
X134820831Y-150376365D01*
X134817593Y-150442494D01*
X134809865Y-150506711D01*
X134796967Y-150568800D01*
X134778221Y-150628546D01*
X134752947Y-150685732D01*
X134720466Y-150740144D01*
X134680099Y-150791565D01*
X134631167Y-150839780D01*
X134572991Y-150884574D01*
X134504891Y-150925730D01*
X134426189Y-150963033D01*
X134336206Y-150996268D01*
X134234262Y-151025218D01*
X134043990Y-151059343D01*
X133849147Y-151069971D01*
X133650040Y-151058804D01*
X133446979Y-151027545D01*
X133240273Y-150977897D01*
X133030232Y-150911562D01*
X132817164Y-150830245D01*
X132601379Y-150735647D01*
X132162896Y-150513420D01*
X131717254Y-150258506D01*
X130814395Y-149705106D01*
X130362125Y-149433865D01*
X129912592Y-149184428D01*
X129468272Y-148970417D01*
X129248839Y-148880953D01*
X129031637Y-148805454D01*
X128816974Y-148745624D01*
X128605161Y-148703164D01*
X128396507Y-148679777D01*
X128191319Y-148677167D01*
X127989909Y-148697037D01*
X127792585Y-148741088D01*
X127599656Y-148811025D01*
X127411431Y-148908550D01*
X127347485Y-148951238D01*
X127291581Y-148997185D01*
X127243521Y-149046125D01*
X127203109Y-149097792D01*
X127170147Y-149151921D01*
X127144436Y-149208247D01*
X127125781Y-149266505D01*
X127113982Y-149326429D01*
X127108842Y-149387753D01*
X127110164Y-149450213D01*
X127117750Y-149513543D01*
X127131403Y-149577479D01*
X127150925Y-149641753D01*
X127176118Y-149706102D01*
X127206785Y-149770260D01*
X127242728Y-149833961D01*
X127283750Y-149896940D01*
X127329653Y-149958933D01*
X127380239Y-150019672D01*
X127435312Y-150078894D01*
X127494672Y-150136334D01*
X127558123Y-150191724D01*
X127625467Y-150244801D01*
X127696507Y-150295299D01*
X127771045Y-150342952D01*
X127848883Y-150387496D01*
X127929824Y-150428665D01*
X128013670Y-150466193D01*
X128100224Y-150499815D01*
X128189287Y-150529267D01*
X128280663Y-150554282D01*
X128374154Y-150574596D01*
X128680006Y-150637924D01*
X128971765Y-150709594D01*
X129248024Y-150789478D01*
X129379902Y-150832460D01*
X129507378Y-150877447D01*
X129630275Y-150924424D01*
X129748418Y-150973374D01*
X129861632Y-151024282D01*
X129969741Y-151077130D01*
X130072567Y-151131904D01*
X130169937Y-151188588D01*
X130261674Y-151247164D01*
X130347602Y-151307618D01*
X130427545Y-151369934D01*
X130501328Y-151434094D01*
X130568775Y-151500083D01*
X130629710Y-151567886D01*
X130683957Y-151637486D01*
X130731340Y-151708867D01*
X130771684Y-151782013D01*
X130804813Y-151856908D01*
X130830550Y-151933537D01*
X130848721Y-152011882D01*
X130859149Y-152091928D01*
X130861658Y-152173660D01*
X130856074Y-152257060D01*
X130842218Y-152342114D01*
X130819918Y-152428804D01*
X130788995Y-152517116D01*
X130751535Y-152604200D01*
X130710491Y-152685583D01*
X130665970Y-152761357D01*
X130618078Y-152831616D01*
X130566921Y-152896455D01*
X130512605Y-152955965D01*
X130455237Y-153010241D01*
X130394923Y-153059376D01*
X130331770Y-153103463D01*
X130265883Y-153142596D01*
X130197370Y-153176869D01*
X130126336Y-153206374D01*
X130052887Y-153231206D01*
X129977131Y-153251458D01*
X129899173Y-153267223D01*
X129819120Y-153278594D01*
X129737077Y-153285666D01*
X129653152Y-153288531D01*
X129480079Y-153282017D01*
X129300750Y-153259798D01*
X129116017Y-153222623D01*
X128926730Y-153171239D01*
X128733740Y-153106394D01*
X128537897Y-153028835D01*
X128340051Y-152939311D01*
X128188731Y-152862201D01*
X128043153Y-152779862D01*
X127902761Y-152693627D01*
X127766998Y-152604830D01*
X127259137Y-152250678D01*
X127138191Y-152169065D01*
X127018542Y-152092889D01*
X126899634Y-152023481D01*
X126780911Y-151962176D01*
X126661818Y-151910306D01*
X126601959Y-151888327D01*
X126541799Y-151869205D01*
X126481268Y-151853110D01*
X126420299Y-151840206D01*
X126358819Y-151830661D01*
X126296762Y-151824641D01*
X126183237Y-151820899D01*
X126075336Y-151824771D01*
X125972531Y-151835369D01*
X125874293Y-151851807D01*
X125780095Y-151873198D01*
X125689408Y-151898654D01*
X125516458Y-151958215D01*
X125189465Y-152087094D01*
X125026975Y-152142219D01*
X124944133Y-152164348D01*
X124859523Y-152181672D01*
X124772617Y-152193304D01*
X124682886Y-152198357D01*
X124589803Y-152195944D01*
X124492840Y-152185178D01*
X124391469Y-152165171D01*
X124285161Y-152135037D01*
X124173390Y-152093888D01*
X124055626Y-152040838D01*
X123931342Y-151975000D01*
X123800009Y-151895486D01*
X123661101Y-151801409D01*
X123514088Y-151691882D01*
X123358443Y-151566019D01*
X123193638Y-151422932D01*
X123019145Y-151261734D01*
X122834436Y-151081538D01*
X122451125Y-150712198D01*
X122062766Y-150365750D01*
X121671772Y-150044583D01*
X121280555Y-149751087D01*
X120891530Y-149487653D01*
X120507110Y-149256669D01*
X120317381Y-149154093D01*
X120129708Y-149060526D01*
X119944394Y-148976266D01*
X119761739Y-148901612D01*
X119582046Y-148836864D01*
X119405615Y-148782319D01*
X119232750Y-148738277D01*
X119063751Y-148705036D01*
X118898920Y-148682895D01*
X118738559Y-148672152D01*
X118582970Y-148673107D01*
X118432454Y-148686058D01*
X118287313Y-148711303D01*
X118147849Y-148749142D01*
X118014363Y-148799873D01*
X117887157Y-148863795D01*
X117766533Y-148941206D01*
X117652792Y-149032406D01*
X117546236Y-149137693D01*
X117447168Y-149257365D01*
X117379127Y-149378954D01*
X117353506Y-149503027D01*
X117367310Y-149629533D01*
X117417549Y-149758419D01*
X117501228Y-149889633D01*
X117615357Y-150023122D01*
X117756941Y-150158834D01*
X117922989Y-150296717D01*
X118316505Y-150578787D01*
X118771965Y-150868911D01*
X119772953Y-151471654D01*
X120270601Y-151783435D01*
X120734430Y-152101597D01*
X121140501Y-152425723D01*
X121314396Y-152589891D01*
X121464873Y-152755393D01*
X121588941Y-152922177D01*
X121683605Y-153090189D01*
X121745875Y-153259379D01*
X121772758Y-153429693D01*
X121761260Y-153601080D01*
X121708390Y-153773486D01*
X121611155Y-153946861D01*
X121466561Y-154121150D01*
X121366931Y-154215441D01*
X121264427Y-154296002D01*
X121159145Y-154363352D01*
X121051182Y-154418012D01*
X120940633Y-154460500D01*
X120827594Y-154491336D01*
X120712161Y-154511040D01*
X120594430Y-154520131D01*
X120474497Y-154519129D01*
X120352458Y-154508553D01*
X120228408Y-154488923D01*
X120102444Y-154460758D01*
X119974661Y-154424577D01*
X119845156Y-154380901D01*
X119581361Y-154273139D01*
X119311827Y-154141629D01*
X119037320Y-153990525D01*
X118758608Y-153823984D01*
X118476458Y-153646163D01*
X117904915Y-153273303D01*
X117328828Y-152905193D01*
X117167451Y-152817664D01*
X116991970Y-152744300D01*
X116803825Y-152684919D01*
X116604456Y-152639341D01*
X116395304Y-152607384D01*
X116177808Y-152588868D01*
X115953409Y-152583612D01*
X115723547Y-152591434D01*
X115489663Y-152612153D01*
X115253196Y-152645589D01*
X115015588Y-152691560D01*
X114778278Y-152749886D01*
X114542706Y-152820386D01*
X114310314Y-152902877D01*
X114082540Y-152997181D01*
X113860826Y-153103114D01*
X113828182Y-153120863D01*
X113796777Y-153140022D01*
X113766629Y-153160536D01*
X113737754Y-153182345D01*
X113710170Y-153205392D01*
X113683893Y-153229619D01*
X113658941Y-153254968D01*
X113635331Y-153281381D01*
X113613080Y-153308800D01*
X113592204Y-153337167D01*
X113572722Y-153366425D01*
X113554650Y-153396515D01*
X113538005Y-153427380D01*
X113522804Y-153458961D01*
X113496803Y-153524041D01*
X113476785Y-153591293D01*
X113462885Y-153660253D01*
X113458272Y-153695229D01*
X113455240Y-153730458D01*
X113453806Y-153765882D01*
X113453987Y-153801444D01*
X113455800Y-153837085D01*
X113459263Y-153872747D01*
X113464391Y-153908374D01*
X113471203Y-153943906D01*
X113479716Y-153979286D01*
X113489946Y-154014456D01*
X113501910Y-154049358D01*
X113515626Y-154083934D01*
X117142785Y-162630183D01*
X117145433Y-162630183D01*
X117145433Y-165630000D01*
X82450395Y-165630000D01*
X82450395Y-162630183D01*
X82467965Y-162630183D01*
X86095132Y-154083934D01*
X86108848Y-154049358D01*
X86120813Y-154014456D01*
X86131043Y-153979286D01*
X86139555Y-153943906D01*
X86146367Y-153908374D01*
X86151495Y-153872747D01*
X86154958Y-153837085D01*
X86156771Y-153801444D01*
X86156952Y-153765882D01*
X86155518Y-153730458D01*
X86152486Y-153695229D01*
X86147873Y-153660253D01*
X86141697Y-153625589D01*
X86133973Y-153591293D01*
X86124720Y-153557425D01*
X86113955Y-153524041D01*
X86101694Y-153491201D01*
X86087954Y-153458961D01*
X86072753Y-153427380D01*
X86056108Y-153396515D01*
X86038036Y-153366425D01*
X86018554Y-153337167D01*
X85997678Y-153308800D01*
X85975427Y-153281381D01*
X85951817Y-153254968D01*
X85926865Y-153229619D01*
X85900588Y-153205392D01*
X85873004Y-153182345D01*
X85844129Y-153160536D01*
X85813981Y-153140022D01*
X85782576Y-153120863D01*
X85749932Y-153103114D01*
X85528211Y-152997181D01*
X85300420Y-152902877D01*
X85068001Y-152820386D01*
X84832396Y-152749886D01*
X84595046Y-152691560D01*
X84357394Y-152645589D01*
X84120881Y-152612153D01*
X83886949Y-152591434D01*
X83657039Y-152583612D01*
X83432594Y-152588868D01*
X83215054Y-152607384D01*
X83005863Y-152639341D01*
X82806461Y-152684919D01*
X82618291Y-152744300D01*
X82442794Y-152817664D01*
X82360248Y-152859646D01*
X82281411Y-152905193D01*
X81705330Y-153273303D01*
X81133792Y-153646163D01*
X80851644Y-153823984D01*
X80572934Y-153990525D01*
X80298429Y-154141629D01*
X80028895Y-154273139D01*
X79896233Y-154330248D01*
X79765101Y-154380901D01*
X79635596Y-154424577D01*
X79507813Y-154460758D01*
X79381848Y-154488923D01*
X79257798Y-154508553D01*
X79135758Y-154519129D01*
X79015824Y-154520131D01*
X78898092Y-154511040D01*
X78782658Y-154491336D01*
X78669617Y-154460500D01*
X78559066Y-154418012D01*
X78451101Y-154363352D01*
X78345817Y-154296002D01*
X78243311Y-154215441D01*
X78143678Y-154121150D01*
X77999088Y-153946861D01*
X77901855Y-153773486D01*
X77848988Y-153601080D01*
X77837492Y-153429693D01*
X77864376Y-153259379D01*
X77926647Y-153090189D01*
X78021313Y-152922177D01*
X78145381Y-152755393D01*
X78295859Y-152589891D01*
X78469753Y-152425723D01*
X78875824Y-152101597D01*
X79339652Y-151783435D01*
X79837298Y-151471654D01*
X80838281Y-150868911D01*
X81293738Y-150578787D01*
X81687253Y-150296717D01*
X81853300Y-150158834D01*
X81994883Y-150023122D01*
X82109011Y-149889633D01*
X82192690Y-149758419D01*
X82242928Y-149629533D01*
X82256733Y-149503027D01*
X82231112Y-149378954D01*
X82163072Y-149257365D01*
X82064003Y-149137693D01*
X81957448Y-149032406D01*
X81843707Y-148941206D01*
X81723084Y-148863795D01*
X81595878Y-148799873D01*
X81462393Y-148749142D01*
X81322929Y-148711303D01*
X81177789Y-148686058D01*
X81027274Y-148673107D01*
X80871686Y-148672152D01*
X80711326Y-148682895D01*
X80546496Y-148705036D01*
X80377498Y-148738277D01*
X80204634Y-148782319D01*
X79848512Y-148901612D01*
X79480544Y-149060526D01*
X79103143Y-149256669D01*
X78718723Y-149487653D01*
X78329697Y-149751087D01*
X77938479Y-150044583D01*
X77547482Y-150365750D01*
X77159119Y-150712198D01*
X76775804Y-151081538D01*
X76591095Y-151261734D01*
X76416606Y-151422932D01*
X76251807Y-151566019D01*
X76096172Y-151691882D01*
X75949171Y-151801409D01*
X75810276Y-151895486D01*
X75678959Y-151975000D01*
X75554693Y-152040838D01*
X75436948Y-152093888D01*
X75325196Y-152135037D01*
X75218911Y-152165171D01*
X75117562Y-152185178D01*
X75020623Y-152195944D01*
X74927564Y-152198357D01*
X74837858Y-152193304D01*
X74750977Y-152181672D01*
X74666392Y-152164348D01*
X74583575Y-152142219D01*
X74501997Y-152116172D01*
X74421132Y-152087094D01*
X74094224Y-151958215D01*
X74008995Y-151927289D01*
X73921308Y-151898654D01*
X73830636Y-151873198D01*
X73736450Y-151851807D01*
X73638222Y-151835369D01*
X73535424Y-151824771D01*
X73427527Y-151820899D01*
X73314004Y-151824641D01*
X73251944Y-151830661D01*
X73190460Y-151840206D01*
X73129483Y-151853110D01*
X73068943Y-151869205D01*
X73008771Y-151888327D01*
X72948897Y-151910306D01*
X72829771Y-151962176D01*
X72711008Y-152023481D01*
X72592056Y-152092889D01*
X72472360Y-152169065D01*
X72351366Y-152250678D01*
X71843329Y-152604830D01*
X71707533Y-152693627D01*
X71567115Y-152779862D01*
X71421521Y-152862201D01*
X71270196Y-152939311D01*
X71072344Y-153028838D01*
X70876496Y-153106398D01*
X70779589Y-153140457D01*
X70683502Y-153171244D01*
X70588341Y-153198666D01*
X70494212Y-153222629D01*
X70401223Y-153243040D01*
X70309478Y-153259805D01*
X70219085Y-153272830D01*
X70130149Y-153282023D01*
X70042778Y-153287290D01*
X69957077Y-153288538D01*
X69873152Y-153285672D01*
X69791110Y-153278600D01*
X69711057Y-153267228D01*
X69633100Y-153251463D01*
X69557345Y-153231211D01*
X69483898Y-153206378D01*
X69412865Y-153176872D01*
X69344352Y-153142599D01*
X69278467Y-153103465D01*
X69215315Y-153059378D01*
X69155002Y-153010242D01*
X69097636Y-152955966D01*
X69043321Y-152896456D01*
X68992165Y-152831617D01*
X68944274Y-152761357D01*
X68899754Y-152685583D01*
X68858711Y-152604200D01*
X68821252Y-152517116D01*
X68790332Y-152428804D01*
X68768035Y-152342114D01*
X68754188Y-152257060D01*
X68748613Y-152173660D01*
X68751135Y-152091928D01*
X68761577Y-152011882D01*
X68779763Y-151933537D01*
X68805518Y-151856908D01*
X68838666Y-151782013D01*
X68879030Y-151708867D01*
X68926435Y-151637486D01*
X68980704Y-151567886D01*
X69041662Y-151500083D01*
X69109133Y-151434094D01*
X69262907Y-151307618D01*
X69440620Y-151188588D01*
X69640863Y-151077130D01*
X69862228Y-150973374D01*
X70103308Y-150877447D01*
X70362694Y-150789478D01*
X70638979Y-150709594D01*
X70930754Y-150637924D01*
X71236612Y-150574596D01*
X71330104Y-150554282D01*
X71421481Y-150529267D01*
X71510546Y-150499815D01*
X71597101Y-150466193D01*
X71680948Y-150428665D01*
X71761890Y-150387496D01*
X71839729Y-150342952D01*
X71914267Y-150295299D01*
X71985308Y-150244801D01*
X72052653Y-150191724D01*
X72116104Y-150136334D01*
X72175465Y-150078894D01*
X72230538Y-150019672D01*
X72281125Y-149958933D01*
X72327028Y-149896940D01*
X72368050Y-149833961D01*
X72403993Y-149770260D01*
X72434660Y-149706102D01*
X72459853Y-149641753D01*
X72479375Y-149577479D01*
X72493028Y-149513543D01*
X72500614Y-149450213D01*
X72501936Y-149387753D01*
X72496796Y-149326429D01*
X72484997Y-149266505D01*
X72466340Y-149208247D01*
X72440630Y-149151921D01*
X72407667Y-149097792D01*
X72367254Y-149046125D01*
X72319194Y-148997185D01*
X72263289Y-148951238D01*
X72199342Y-148908550D01*
X72011115Y-148811025D01*
X71818183Y-148741088D01*
X71620857Y-148697037D01*
X71419445Y-148677167D01*
X71214257Y-148679777D01*
X71005601Y-148703164D01*
X70793787Y-148745624D01*
X70579124Y-148805454D01*
X70361921Y-148880953D01*
X70142488Y-148970417D01*
X69698167Y-149184428D01*
X69248635Y-149433865D01*
X68796366Y-149705106D01*
X67893509Y-150258506D01*
X67447869Y-150513420D01*
X67009387Y-150735647D01*
X66793602Y-150830245D01*
X66580535Y-150911562D01*
X66370494Y-150977897D01*
X66163788Y-151027545D01*
X65960727Y-151058804D01*
X65761620Y-151069971D01*
X65566776Y-151059343D01*
X65376504Y-151025218D01*
X65274560Y-150996268D01*
X65184577Y-150963033D01*
X65105876Y-150925730D01*
X65037776Y-150884574D01*
X64979600Y-150839780D01*
X64930668Y-150791565D01*
X64890301Y-150740144D01*
X64857820Y-150685732D01*
X64832546Y-150628546D01*
X64813799Y-150568800D01*
X64800901Y-150506711D01*
X64793172Y-150442494D01*
X64789934Y-150376365D01*
X64790506Y-150308540D01*
X64800369Y-150168662D01*
X64835949Y-149878037D01*
X64850800Y-149730741D01*
X64856448Y-149584421D01*
X64854124Y-149512167D01*
X64847461Y-149440805D01*
X64835781Y-149370549D01*
X64818404Y-149301616D01*
X64794652Y-149234221D01*
X64763846Y-149168580D01*
X64725306Y-149104908D01*
X64678353Y-149043422D01*
X64623412Y-148992387D01*
X64556279Y-148952578D01*
X64477823Y-148922952D01*
X64388917Y-148902466D01*
X64290428Y-148890076D01*
X64183228Y-148884739D01*
X63946176Y-148891050D01*
X63405824Y-148942404D01*
X63116449Y-148970753D01*
X62823555Y-148989755D01*
X62534105Y-148991064D01*
X62392848Y-148982474D01*
X62255061Y-148966332D01*
X62121617Y-148941593D01*
X61993384Y-148907214D01*
X61871234Y-148862153D01*
X61756036Y-148805364D01*
X61648661Y-148735806D01*
X61549979Y-148652435D01*
X61460859Y-148554207D01*
X61382173Y-148440079D01*
X61314790Y-148309009D01*
X61259581Y-148159952D01*
X61217416Y-147991866D01*
X61189164Y-147803706D01*
X61193712Y-147684411D01*
X61232598Y-147579058D01*
X61303511Y-147486682D01*
X61404143Y-147406318D01*
X61532182Y-147337001D01*
X61685318Y-147277768D01*
X61861242Y-147227653D01*
X62057642Y-147185691D01*
X62502632Y-147122369D01*
X63001807Y-147080085D01*
X64088782Y-147027761D01*
X65170711Y-146966977D01*
X65663579Y-146914119D01*
X66099741Y-146835993D01*
X66290781Y-146785043D01*
X66460713Y-146724883D01*
X66607228Y-146654546D01*
X66728015Y-146573070D01*
X66820763Y-146479488D01*
X66883163Y-146372837D01*
X66912905Y-146252151D01*
X66907678Y-146116466D01*
X66882653Y-146007994D01*
X66845912Y-145914218D01*
X66797959Y-145834275D01*
X66739294Y-145767297D01*
X66670420Y-145712420D01*
X66591839Y-145668779D01*
X66504054Y-145635509D01*
X66407566Y-145611743D01*
X66302877Y-145596617D01*
X66190489Y-145589265D01*
X65944627Y-145594425D01*
X65673996Y-145620298D01*
X65382612Y-145659963D01*
X64753656Y-145752979D01*
X64424116Y-145792486D01*
X64089892Y-145818095D01*
X63754999Y-145822884D01*
X63588557Y-145815307D01*
X63423454Y-145799930D01*
X63260193Y-145775887D01*
X63099275Y-145742313D01*
X62941202Y-145698341D01*
X62786477Y-145643108D01*
X62706354Y-145609458D01*
X62634555Y-145576012D01*
X62570610Y-145542693D01*
X62514050Y-145509426D01*
X62464405Y-145476135D01*
X62421205Y-145442745D01*
X62383981Y-145409180D01*
X62352262Y-145375365D01*
X62325579Y-145341223D01*
X62303461Y-145306681D01*
X62285440Y-145271661D01*
X62271045Y-145236089D01*
X62259807Y-145199889D01*
X62251255Y-145162985D01*
X62240332Y-145086765D01*
X62230054Y-144922557D01*
X62223181Y-144833362D01*
X62210142Y-144738632D01*
X62200136Y-144689004D01*
X62187178Y-144637765D01*
X62170800Y-144584841D01*
X62150531Y-144530156D01*
X62125901Y-144473634D01*
X62096441Y-144415200D01*
X62061680Y-144354778D01*
X62021150Y-144292293D01*
X61959962Y-144224321D01*
X61878657Y-144167561D01*
X61778624Y-144121083D01*
X61661252Y-144083961D01*
X61527932Y-144055266D01*
X61380052Y-144034072D01*
X61046174Y-144010471D01*
X60670732Y-144005738D01*
X60264845Y-144012451D01*
X59406196Y-144030526D01*
X58975667Y-144027046D01*
X58559158Y-144005325D01*
X58167783Y-143957942D01*
X57984996Y-143922308D01*
X57812661Y-143877475D01*
X57652168Y-143822516D01*
X57504906Y-143756503D01*
X57372266Y-143678507D01*
X57255636Y-143587603D01*
X57156406Y-143482861D01*
X57075966Y-143363354D01*
X57015706Y-143228155D01*
X56977014Y-143076335D01*
X56948816Y-142866923D01*
X56938868Y-142676711D01*
X56946613Y-142504875D01*
X56971492Y-142350593D01*
X57012947Y-142213041D01*
X57070421Y-142091395D01*
X57143356Y-141984834D01*
X57231192Y-141892534D01*
X57333373Y-141813671D01*
X57449341Y-141747422D01*
X57578536Y-141692966D01*
X57720402Y-141649477D01*
X58039912Y-141592113D01*
X58403407Y-141568744D01*
X62359117Y-141815440D01*
X62622414Y-141811175D01*
X62856060Y-141798678D01*
X63061656Y-141778401D01*
X63240807Y-141750795D01*
X63395113Y-141716310D01*
X63526179Y-141675398D01*
X63635605Y-141628509D01*
X63724996Y-141576094D01*
X63795953Y-141518604D01*
X63850079Y-141456490D01*
X63888976Y-141390203D01*
X63914248Y-141320193D01*
X63927496Y-141246912D01*
X63930324Y-141170810D01*
X63924333Y-141092338D01*
X63911127Y-141011947D01*
X63869478Y-140847212D01*
X63818198Y-140680210D01*
X63770106Y-140514550D01*
X63751263Y-140433350D01*
X63738024Y-140353838D01*
X63731993Y-140276465D01*
X63734772Y-140201681D01*
X63747964Y-140129938D01*
X63773170Y-140061685D01*
X63811995Y-139997375D01*
X63866040Y-139937458D01*
X63936907Y-139882385D01*
X64026200Y-139832607D01*
X64122575Y-139796385D01*
X64241895Y-139767329D01*
X64542594Y-139728345D01*
X64914735Y-139710924D01*
X65344754Y-139710331D01*
X67372362Y-139781593D01*
X67888333Y-139794152D01*
X68380807Y-139795143D01*
X68836219Y-139779833D01*
X69241008Y-139743489D01*
X69581611Y-139681378D01*
X69723604Y-139639181D01*
X69844464Y-139588768D01*
X69942497Y-139529546D01*
X70016006Y-139460925D01*
X70063297Y-139382312D01*
X70082673Y-139293117D01*
X70081731Y-139213511D01*
X70070944Y-139139100D01*
X70051043Y-139069501D01*
X70022760Y-139004332D01*
X69986828Y-138943209D01*
X69943978Y-138885750D01*
X69894942Y-138831572D01*
X69840451Y-138780294D01*
X69781238Y-138731531D01*
X69718034Y-138684903D01*
X69582580Y-138596516D01*
X69295983Y-138428512D01*
X69156549Y-138342773D01*
X69027495Y-138251794D01*
X68968691Y-138203384D01*
X68914678Y-138152516D01*
X68866187Y-138098808D01*
X68823951Y-138041877D01*
X68788701Y-137981341D01*
X68761169Y-137916816D01*
X68742087Y-137847921D01*
X68732186Y-137774273D01*
X68732199Y-137695489D01*
X68742857Y-137611186D01*
X68764892Y-137520982D01*
X68799035Y-137424495D01*
X68882054Y-137279766D01*
X69002706Y-137157001D01*
X69158379Y-137054677D01*
X69346465Y-136971273D01*
X69564354Y-136905269D01*
X69809434Y-136855143D01*
X70370733Y-136796437D01*
X71009481Y-136782985D01*
X71704799Y-136802617D01*
X73181626Y-136892444D01*
X74634177Y-136968550D01*
X75299148Y-136971029D01*
X75895411Y-136933565D01*
X76161252Y-136896050D01*
X76402086Y-136843986D01*
X76615303Y-136775850D01*
X76798293Y-136690121D01*
X76948446Y-136585278D01*
X77063151Y-136459799D01*
X77139800Y-136312163D01*
X77175782Y-136140849D01*
X77182523Y-135977473D01*
X77175454Y-135832180D01*
X77155336Y-135703964D01*
X77122928Y-135591822D01*
X77078990Y-135494750D01*
X77024281Y-135411745D01*
X76959563Y-135341802D01*
X76885593Y-135283918D01*
X76803132Y-135237089D01*
X76712940Y-135200310D01*
X76615776Y-135172579D01*
X76512400Y-135152890D01*
X76403572Y-135140241D01*
X76290051Y-135133627D01*
X76051971Y-135134488D01*
X75552927Y-135164464D01*
X75304119Y-135177516D01*
X75063890Y-135178569D01*
X74948893Y-135172087D01*
X74838319Y-135159592D01*
X74732929Y-135140083D01*
X74633483Y-135112555D01*
X74540740Y-135076003D01*
X74455460Y-135029425D01*
X74378402Y-134971815D01*
X74310327Y-134902171D01*
X74254904Y-134827514D01*
X74214627Y-134755434D01*
X74188495Y-134685767D01*
X74175509Y-134618349D01*
X74174667Y-134553015D01*
X74184969Y-134489601D01*
X74205416Y-134427944D01*
X74235005Y-134367879D01*
X74272738Y-134309242D01*
X74317613Y-134251869D01*
X74368630Y-134195596D01*
X74424789Y-134140258D01*
X74548529Y-134031733D01*
X74680830Y-133924981D01*
X74813689Y-133818689D01*
X74939102Y-133711543D01*
X75049066Y-133602231D01*
X75095753Y-133546352D01*
X75135577Y-133489439D01*
X75167537Y-133431328D01*
X75190632Y-133371855D01*
X75203862Y-133310855D01*
X75206226Y-133248164D01*
X75196725Y-133183619D01*
X75174358Y-133117055D01*
X75138123Y-133048308D01*
X75087022Y-132977214D01*
X75026517Y-132916111D01*
X74956300Y-132868314D01*
X74877074Y-132832850D01*
X74789544Y-132808744D01*
X74694414Y-132795023D01*
X74592390Y-132790712D01*
X74484175Y-132794838D01*
X74370474Y-132806427D01*
X74129434Y-132848097D01*
X73874905Y-132907931D01*
X73347929Y-133050925D01*
X73086755Y-133118503D01*
X72834638Y-133173079D01*
X72713737Y-133193056D01*
X72597215Y-133206861D01*
X72485775Y-133213521D01*
X72380123Y-133212060D01*
X72280962Y-133201505D01*
X72188998Y-133180882D01*
X72104934Y-133149217D01*
X72029476Y-133105537D01*
X71963328Y-133048867D01*
X71907195Y-132978233D01*
X71861781Y-132892662D01*
X71827790Y-132791179D01*
X71800786Y-132629437D01*
X71804071Y-132479165D01*
X71835522Y-132339634D01*
X71893018Y-132210112D01*
X71974439Y-132089866D01*
X72077661Y-131978168D01*
X72200565Y-131874284D01*
X72341029Y-131777484D01*
X72496930Y-131687036D01*
X72666149Y-131602210D01*
X73036049Y-131446497D01*
X73433759Y-131304493D01*
X73842307Y-131170350D01*
X74244721Y-131038218D01*
X74624030Y-130902246D01*
X74963261Y-130756584D01*
X75112544Y-130678292D01*
X75245444Y-130595383D01*
X75359839Y-130507127D01*
X75453607Y-130412793D01*
X75524627Y-130311649D01*
X75570777Y-130202964D01*
X75589937Y-130086006D01*
X75579985Y-129960045D01*
X75538799Y-129824349D01*
X75464257Y-129678188D01*
X75341907Y-129510847D01*
X75201524Y-129379912D01*
X75044294Y-129283121D01*
X74871398Y-129218211D01*
X74684021Y-129182922D01*
X74483345Y-129174990D01*
X74270555Y-129192155D01*
X74046834Y-129232155D01*
X73813365Y-129292727D01*
X73571332Y-129371610D01*
X73066305Y-129575262D01*
X72541221Y-129825017D01*
X72005549Y-130102779D01*
X70940304Y-130669949D01*
X70429666Y-130923168D01*
X69946309Y-131132018D01*
X69717818Y-131214149D01*
X69499698Y-131278403D01*
X69293132Y-131322517D01*
X69099302Y-131344230D01*
X68919393Y-131341279D01*
X68754588Y-131311404D01*
X68606070Y-131252341D01*
X68475022Y-131161830D01*
X68372297Y-131061483D01*
X68295747Y-130964565D01*
X68243692Y-130870894D01*
X68214451Y-130780289D01*
X68206345Y-130692570D01*
X68217692Y-130607555D01*
X68246813Y-130525064D01*
X68292026Y-130444915D01*
X68351651Y-130366929D01*
X68424008Y-130290923D01*
X68507416Y-130216717D01*
X68600195Y-130144130D01*
X68807142Y-130003088D01*
X69031407Y-129866351D01*
X69478111Y-129600000D01*
X69673662Y-129467490D01*
X69758607Y-129400769D01*
X69832756Y-129333495D01*
X69894429Y-129265488D01*
X69941946Y-129196566D01*
X69973627Y-129126549D01*
X69987790Y-129055256D01*
X69982756Y-128982506D01*
X69956844Y-128908118D01*
X69908374Y-128831911D01*
X69835664Y-128753703D01*
X69750883Y-128696203D01*
X69646393Y-128660890D01*
X69523385Y-128645988D01*
X69383052Y-128649724D01*
X69226585Y-128670322D01*
X69055177Y-128706008D01*
X68672307Y-128815545D01*
X66781618Y-129502240D01*
X66266831Y-129665061D01*
X65754274Y-129795944D01*
X65501811Y-129844971D01*
X65253483Y-129880690D01*
X65010480Y-129901326D01*
X64773995Y-129905103D01*
X64545221Y-129890247D01*
X64325350Y-129854982D01*
X64115573Y-129797536D01*
X63917083Y-129716131D01*
X63731072Y-129608995D01*
X63558732Y-129474351D01*
X63401256Y-129310426D01*
X63259835Y-129115443D01*
X63173773Y-128964006D01*
X63113935Y-128825667D01*
X63078779Y-128699687D01*
X63066765Y-128585323D01*
X63076354Y-128481833D01*
X63106003Y-128388477D01*
X63154174Y-128304512D01*
X63219324Y-128229198D01*
X63299914Y-128161792D01*
X63394404Y-128101553D01*
X63501251Y-128047740D01*
X63618917Y-127999611D01*
X63880540Y-127917438D01*
X64166948Y-127849103D01*
X64764824Y-127730216D01*
X65051642Y-127667800D01*
X65313947Y-127595491D01*
X65432057Y-127553774D01*
X65539416Y-127507359D01*
X65634486Y-127455505D01*
X65715725Y-127397470D01*
X65781592Y-127332514D01*
X65830547Y-127259893D01*
X65861050Y-127178867D01*
X65871560Y-127088695D01*
X65856693Y-126947665D01*
X65813311Y-126827573D01*
X65743245Y-126726925D01*
X65648325Y-126644230D01*
X65530383Y-126577994D01*
X65391249Y-126526726D01*
X65232753Y-126488932D01*
X65056726Y-126463121D01*
X64659402Y-126441473D01*
X64213922Y-126449842D01*
X63237070Y-126508867D01*
X62734989Y-126535643D01*
X62243330Y-126544673D01*
X61776740Y-126524016D01*
X61557421Y-126498824D01*
X61349861Y-126461733D01*
X61155891Y-126411249D01*
X60977340Y-126345881D01*
X60816040Y-126264136D01*
X60673821Y-126164521D01*
X60552513Y-126045544D01*
X60453949Y-125905712D01*
X60379957Y-125743533D01*
X60332368Y-125557513D01*
X60312721Y-125392520D01*
X60312360Y-125242671D01*
X60330931Y-125107315D01*
X60368082Y-124985804D01*
X60423457Y-124877488D01*
X60496704Y-124781716D01*
X60587470Y-124697841D01*
X60695399Y-124625211D01*
X60820139Y-124563177D01*
X60961336Y-124511090D01*
X61291685Y-124434158D01*
X61683617Y-124389218D01*
X62134303Y-124371072D01*
X67515390Y-124566882D01*
X67964384Y-124553941D01*
X68428675Y-124516668D01*
X68902693Y-124457390D01*
X69380867Y-124378432D01*
X69857624Y-124282121D01*
X70327396Y-124170784D01*
X70784611Y-124046745D01*
X71223698Y-123912333D01*
X71639086Y-123769872D01*
X72025205Y-123621689D01*
X72376483Y-123470111D01*
X72687350Y-123317463D01*
X72952236Y-123166072D01*
X73165568Y-123018264D01*
X73251162Y-122946431D01*
X73321777Y-122876365D01*
X73376720Y-122808359D01*
X73415292Y-122742702D01*
X73437603Y-122685649D01*
X73450557Y-122630544D01*
X73454798Y-122577220D01*
X73450968Y-122525509D01*
X73439707Y-122475244D01*
X73421659Y-122426258D01*
X73397465Y-122378383D01*
X73367767Y-122331452D01*
X73333208Y-122285297D01*
X73294429Y-122239750D01*
X73206781Y-122149814D01*
X73009098Y-121969881D01*
X72909337Y-121877205D01*
X72815810Y-121780937D01*
X72772990Y-121731037D01*
X72733654Y-121679737D01*
X72698446Y-121626869D01*
X72668006Y-121572266D01*
X72642977Y-121515761D01*
X72624001Y-121457185D01*
X72611720Y-121396371D01*
X72606776Y-121333153D01*
X72609811Y-121267363D01*
X72621468Y-121198832D01*
X72642387Y-121127395D01*
X72673211Y-121052882D01*
X72748965Y-120915251D01*
X72838872Y-120791654D01*
X72942569Y-120681167D01*
X73059698Y-120582866D01*
X73189896Y-120495829D01*
X73332805Y-120419129D01*
X73655307Y-120293052D01*
X74024320Y-120197242D01*
X74436958Y-120124309D01*
X75381572Y-120017510D01*
X76466067Y-119913524D01*
X77053558Y-119844109D01*
X77667364Y-119753224D01*
X78304601Y-119633479D01*
X78962383Y-119477481D01*
X79637825Y-119277839D01*
X80328042Y-119027164D01*
X80748202Y-118853993D01*
X81137084Y-118683489D01*
X81495764Y-118515770D01*
X81825319Y-118350956D01*
X82126823Y-118189167D01*
X82401354Y-118030520D01*
X82649987Y-117875137D01*
X82873798Y-117723135D01*
X83073862Y-117574636D01*
X83251256Y-117429756D01*
X83407056Y-117288618D01*
X83542338Y-117151338D01*
X83658177Y-117018037D01*
X83755650Y-116888835D01*
X83835833Y-116763849D01*
X83899800Y-116643201D01*
X83948629Y-116527009D01*
X83983396Y-116415392D01*
X84005175Y-116308470D01*
X84015044Y-116206362D01*
X84014078Y-116109187D01*
X84003353Y-116017065D01*
X83983945Y-115930115D01*
X83956929Y-115848456D01*
X83923383Y-115772209D01*
X83884381Y-115701491D01*
X83841000Y-115636422D01*
X83794316Y-115577123D01*
X83745404Y-115523711D01*
X83695340Y-115476306D01*
X83645201Y-115435029D01*
X83596063Y-115399997D01*
X83459711Y-115320304D01*
X83325451Y-115261789D01*
X83193257Y-115223199D01*
X83063105Y-115203279D01*
X82934970Y-115200776D01*
X82808828Y-115214437D01*
X82684654Y-115243008D01*
X82562424Y-115285234D01*
X82442111Y-115339863D01*
X82323693Y-115405640D01*
X82207144Y-115481313D01*
X82092439Y-115565626D01*
X81979554Y-115657326D01*
X81868465Y-115755161D01*
X81651572Y-115964216D01*
X81238243Y-116400766D01*
X81041412Y-116608202D01*
X80850873Y-116795040D01*
X80757902Y-116877599D01*
X80666429Y-116951248D01*
X80576431Y-117014733D01*
X80487882Y-117066799D01*
X80400759Y-117106193D01*
X80315035Y-117131661D01*
X80230688Y-117141950D01*
X80147691Y-117135806D01*
X80059948Y-117117400D01*
X79980248Y-117095353D01*
X79908074Y-117069929D01*
X79842912Y-117041391D01*
X79784247Y-117010001D01*
X79731564Y-116976022D01*
X79684348Y-116939716D01*
X79642084Y-116901346D01*
X79604256Y-116861174D01*
X79570350Y-116819463D01*
X79539851Y-116776475D01*
X79512243Y-116732474D01*
X79487011Y-116687721D01*
X79463641Y-116642480D01*
X79420426Y-116551581D01*
X79378475Y-116461878D01*
X79333669Y-116375471D01*
X79308908Y-116334160D01*
X79281888Y-116294461D01*
X79252094Y-116256636D01*
X79219010Y-116220949D01*
X79182123Y-116187661D01*
X79140917Y-116157035D01*
X79094876Y-116129333D01*
X79043486Y-116104819D01*
X78986232Y-116083755D01*
X78922598Y-116066403D01*
X78852070Y-116053027D01*
X78774133Y-116043887D01*
X78708624Y-116047060D01*
X78636887Y-116066253D01*
X78559281Y-116100146D01*
X78476168Y-116147419D01*
X78387906Y-116206750D01*
X78294858Y-116276818D01*
X78095839Y-116443881D01*
X77656202Y-116848734D01*
X77421349Y-117065388D01*
X77180314Y-117277437D01*
X76935981Y-117474312D01*
X76813478Y-117563758D01*
X76691231Y-117645447D01*
X76569601Y-117718059D01*
X76448947Y-117780274D01*
X76329630Y-117830769D01*
X76212010Y-117868225D01*
X76096447Y-117891320D01*
X75983302Y-117898733D01*
X75872935Y-117889143D01*
X75765705Y-117861230D01*
X75661975Y-117813672D01*
X75562102Y-117745148D01*
X75466449Y-117654338D01*
X75375375Y-117539920D01*
X75333837Y-117474373D01*
X75299569Y-117407003D01*
X75272447Y-117337938D01*
X75252349Y-117267303D01*
X75239151Y-117195225D01*
X75232730Y-117121831D01*
X75232962Y-117047246D01*
X75239724Y-116971597D01*
X75252893Y-116895010D01*
X75272346Y-116817612D01*
X75297958Y-116739530D01*
X75329607Y-116660888D01*
X75367170Y-116581815D01*
X75410523Y-116502436D01*
X75459542Y-116422877D01*
X75514105Y-116343266D01*
X75639368Y-116184389D01*
X75785325Y-116026816D01*
X75950989Y-115871559D01*
X76135375Y-115719628D01*
X76337494Y-115572034D01*
X76556361Y-115429789D01*
X76790989Y-115293902D01*
X77040391Y-115165386D01*
X77179858Y-115094934D01*
X77315496Y-115020969D01*
X77447127Y-114943770D01*
X77574572Y-114863617D01*
X77697652Y-114780788D01*
X77816188Y-114695562D01*
X77930002Y-114608220D01*
X78038915Y-114519041D01*
X78142749Y-114428303D01*
X78241323Y-114336286D01*
X78334461Y-114243269D01*
X78421982Y-114149533D01*
X78503709Y-114055355D01*
X78579462Y-113961015D01*
X78649064Y-113866794D01*
X78712334Y-113772969D01*
X78769094Y-113679820D01*
X78819167Y-113587626D01*
X78862372Y-113496668D01*
X78898531Y-113407224D01*
X78927465Y-113319573D01*
X78948997Y-113233994D01*
X78962946Y-113150768D01*
X78969134Y-113070174D01*
X78967383Y-112992490D01*
X78957514Y-112917995D01*
X78939348Y-112846970D01*
X78912705Y-112779694D01*
X78877409Y-112716446D01*
X78833279Y-112657504D01*
X78780137Y-112603150D01*
X78717805Y-112553661D01*
X78533917Y-112442330D01*
X78347593Y-112363037D01*
X78159170Y-112313882D01*
X77968987Y-112292960D01*
X77777383Y-112298370D01*
X77584695Y-112328210D01*
X77391262Y-112380577D01*
X77197422Y-112453569D01*
X77003513Y-112545284D01*
X76809873Y-112653819D01*
X76616842Y-112777273D01*
X76424756Y-112913743D01*
X76044776Y-113218121D01*
X75672640Y-113551737D01*
X74316649Y-114874208D01*
X74024320Y-115125738D01*
X73887016Y-115229177D01*
X73756071Y-115315195D01*
X73631822Y-115381892D01*
X73514608Y-115427364D01*
X73404766Y-115449709D01*
X73302636Y-115447025D01*
X73238229Y-115433120D01*
X73179455Y-115413402D01*
X73125963Y-115388278D01*
X73077405Y-115358155D01*
X73033430Y-115323443D01*
X72993689Y-115284548D01*
X72957832Y-115241879D01*
X72925508Y-115195842D01*
X72896369Y-115146847D01*
X72870065Y-115095300D01*
X72846246Y-115041609D01*
X72824561Y-114986183D01*
X72786199Y-114871755D01*
X72752180Y-114755278D01*
X72719707Y-114640013D01*
X72685981Y-114529224D01*
X72648204Y-114426173D01*
X72626922Y-114378568D01*
X72603579Y-114334121D01*
X72577823Y-114293240D01*
X72549307Y-114256332D01*
X72517678Y-114223806D01*
X72482590Y-114196068D01*
X72443690Y-114173527D01*
X72400630Y-114156590D01*
X72353060Y-114145666D01*
X72300630Y-114141162D01*
X72201364Y-114144862D01*
X72104013Y-114159607D01*
X72008423Y-114184542D01*
X71914438Y-114218810D01*
X71821904Y-114261556D01*
X71730665Y-114311922D01*
X71640567Y-114369055D01*
X71551454Y-114432096D01*
X71375565Y-114572481D01*
X71201758Y-114726230D01*
X70855433Y-115046422D01*
X70680434Y-115199169D01*
X70502558Y-115337884D01*
X70412154Y-115399839D01*
X70320566Y-115455718D01*
X70227639Y-115504665D01*
X70133217Y-115545824D01*
X70037146Y-115578339D01*
X69939272Y-115601353D01*
X69839438Y-115614010D01*
X69737490Y-115615454D01*
X69633273Y-115604830D01*
X69526633Y-115581281D01*
X69417413Y-115543952D01*
X69305459Y-115491985D01*
X69191637Y-115424512D01*
X69098517Y-115353147D01*
X69024965Y-115278155D01*
X68969847Y-115199800D01*
X68932030Y-115118345D01*
X68910379Y-115034053D01*
X68903761Y-114947190D01*
X68911042Y-114858018D01*
X68931088Y-114766801D01*
X68962766Y-114673804D01*
X69004940Y-114579289D01*
X69056478Y-114483522D01*
X69116246Y-114386765D01*
X69183110Y-114289282D01*
X69333590Y-114093196D01*
X69992573Y-113332592D01*
X70126232Y-113158928D01*
X70182162Y-113076021D01*
X70229314Y-112996081D01*
X70266554Y-112919373D01*
X70292749Y-112846160D01*
X70306764Y-112776707D01*
X70307466Y-112711276D01*
X70284763Y-112593201D01*
X70242730Y-112490283D01*
X70182670Y-112401378D01*
X70105887Y-112325341D01*
X70013683Y-112261028D01*
X69907362Y-112207294D01*
X69788227Y-112162995D01*
X69657581Y-112126987D01*
X69516727Y-112098125D01*
X69366969Y-112075264D01*
X69045951Y-112042971D01*
X68354400Y-112000050D01*
X68004718Y-111971111D01*
X67666332Y-111924980D01*
X67504632Y-111892606D01*
X67349667Y-111852500D01*
X67202738Y-111803519D01*
X67065149Y-111744517D01*
X66938203Y-111674351D01*
X66823204Y-111591875D01*
X66721454Y-111495946D01*
X66634256Y-111385418D01*
X66562914Y-111259148D01*
X66508731Y-111115992D01*
X66473011Y-110954804D01*
X66457055Y-110774440D01*
X66460973Y-110639736D01*
X66480886Y-110520097D01*
X66516365Y-110414756D01*
X66566976Y-110322946D01*
X66632291Y-110243901D01*
X66711879Y-110176854D01*
X66805307Y-110121038D01*
X66912146Y-110075686D01*
X67164331Y-110013306D01*
X67464988Y-109983580D01*
X67810670Y-109980373D01*
X68197929Y-109997550D01*
X70093804Y-110147404D01*
X70637249Y-110174479D01*
X71201590Y-110185130D01*
X71783381Y-110173221D01*
X72379174Y-110132617D01*
X72750121Y-110087022D01*
X73105366Y-110023468D01*
X73446039Y-109944051D01*
X73773272Y-109850866D01*
X74088194Y-109746009D01*
X74391935Y-109631577D01*
X74685627Y-109509663D01*
X74970400Y-109382365D01*
X75517708Y-109119998D01*
X76042903Y-108861239D01*
X76300035Y-108738453D01*
X76555029Y-108622855D01*
X76809016Y-108516543D01*
X77063127Y-108421611D01*
X77345184Y-108333077D01*
X77629282Y-108261529D01*
X77914884Y-108204993D01*
X78201456Y-108161493D01*
X78488464Y-108129054D01*
X78775371Y-108105701D01*
X79346746Y-108078353D01*
X80464758Y-108045791D01*
X80735987Y-108030740D01*
X81002836Y-108008975D01*
X81264771Y-107978522D01*
X81521257Y-107937404D01*
X81656545Y-107910516D01*
X81789808Y-107880552D01*
X81920862Y-107847623D01*
X82049522Y-107811840D01*
X82175604Y-107773314D01*
X82298923Y-107732157D01*
X82419295Y-107688479D01*
X82536534Y-107642391D01*
X82650457Y-107594006D01*
X82760879Y-107543433D01*
X82867616Y-107490784D01*
X82970482Y-107436170D01*
X83069294Y-107379703D01*
X83163867Y-107321492D01*
X83254016Y-107261650D01*
X83339557Y-107200288D01*
X83420305Y-107137516D01*
X83496076Y-107073446D01*
X83566685Y-107008189D01*
X83631948Y-106941856D01*
X83691680Y-106874558D01*
X83745697Y-106806406D01*
X83793814Y-106737511D01*
X83835846Y-106667985D01*
X83871610Y-106597939D01*
X83900920Y-106527483D01*
X83923592Y-106456729D01*
X83939442Y-106385788D01*
X83948284Y-106314770D01*
X83949935Y-106243788D01*
X83944210Y-106172953D01*
X83930925Y-106102374D01*
X83877838Y-105919795D01*
X83814049Y-105761644D01*
X83740265Y-105626491D01*
X83657195Y-105512903D01*
X83565550Y-105419452D01*
X83466038Y-105344707D01*
X83359368Y-105287236D01*
X83246250Y-105245609D01*
X83127392Y-105218396D01*
X83003504Y-105204166D01*
X82875295Y-105201488D01*
X82743475Y-105208932D01*
X82608751Y-105225067D01*
X82471834Y-105248462D01*
X82194257Y-105311312D01*
X81643983Y-105461189D01*
X81382634Y-105525326D01*
X81257889Y-105549687D01*
X81138041Y-105567002D01*
X81023801Y-105575841D01*
X80915878Y-105574773D01*
X80814980Y-105562367D01*
X80721817Y-105537193D01*
X80637098Y-105497820D01*
X80561533Y-105442817D01*
X80495829Y-105370754D01*
X80440698Y-105280200D01*
X80401685Y-105187589D01*
X80378101Y-105099904D01*
X80368869Y-105016838D01*
X80372910Y-104938082D01*
X80389147Y-104863328D01*
X80416502Y-104792267D01*
X80453897Y-104724592D01*
X80500254Y-104659994D01*
X80554495Y-104598165D01*
X80615542Y-104538796D01*
X80753745Y-104426207D01*
X80906239Y-104319761D01*
X81064402Y-104216991D01*
X81219610Y-104115431D01*
X81363241Y-104012615D01*
X81428021Y-103959966D01*
X81486673Y-103906077D01*
X81538119Y-103850642D01*
X81581281Y-103793351D01*
X81615083Y-103733896D01*
X81638445Y-103671970D01*
X81650289Y-103607263D01*
X81649539Y-103539467D01*
X81635116Y-103468275D01*
X81605943Y-103393378D01*
X81560941Y-103314467D01*
X81499032Y-103231235D01*
X81370371Y-103096226D01*
X81239401Y-102997937D01*
X81106083Y-102933959D01*
X80970377Y-102901884D01*
X80832243Y-102899303D01*
X80691640Y-102923809D01*
X80548529Y-102972994D01*
X80402870Y-103044448D01*
X80254622Y-103135764D01*
X80103745Y-103244534D01*
X79793947Y-103504800D01*
X79141045Y-104128813D01*
X78797301Y-104454027D01*
X78441601Y-104762358D01*
X78259167Y-104904172D01*
X78073625Y-105034541D01*
X77884933Y-105151055D01*
X77693052Y-105251308D01*
X77497941Y-105332891D01*
X77299561Y-105393395D01*
X77097872Y-105430413D01*
X76892834Y-105441536D01*
X76684406Y-105424355D01*
X76472548Y-105376463D01*
X76257221Y-105295452D01*
X76038385Y-105178912D01*
X75918662Y-105097425D01*
X75822096Y-105014448D01*
X75747306Y-104930119D01*
X75692909Y-104844572D01*
X75657522Y-104757947D01*
X75639765Y-104670379D01*
X75638254Y-104582005D01*
X75651607Y-104492962D01*
X75678443Y-104403386D01*
X75717379Y-104313416D01*
X75767033Y-104223186D01*
X75826023Y-104132835D01*
X75966481Y-103952313D01*
X76127696Y-103772946D01*
X76468170Y-103422049D01*
X76625314Y-103252709D01*
X76758987Y-103088900D01*
X76813566Y-103009411D01*
X76858130Y-102931716D01*
X76891298Y-102855950D01*
X76911688Y-102782252D01*
X76917916Y-102710757D01*
X76908602Y-102641602D01*
X76882362Y-102574924D01*
X76837815Y-102510860D01*
X76788840Y-102470885D01*
X76722949Y-102443063D01*
X76641369Y-102426220D01*
X76545327Y-102419183D01*
X76314762Y-102429837D01*
X76041068Y-102465639D01*
X75403544Y-102575156D01*
X75059341Y-102630102D01*
X74711262Y-102672662D01*
X74369120Y-102693451D01*
X74203341Y-102692750D01*
X74042727Y-102683087D01*
X73888504Y-102663289D01*
X73741899Y-102632183D01*
X73604137Y-102588598D01*
X73476446Y-102531358D01*
X73360053Y-102459292D01*
X73256184Y-102371227D01*
X73166066Y-102265989D01*
X73090925Y-102142406D01*
X73031988Y-101999304D01*
X72990482Y-101835510D01*
X72967634Y-101649853D01*
X72964669Y-101441158D01*
X72979035Y-101305737D01*
X73012075Y-101183989D01*
X73063030Y-101075152D01*
X73131140Y-100978461D01*
X73215648Y-100893151D01*
X73315793Y-100818461D01*
X73430816Y-100753625D01*
X73559958Y-100697879D01*
X73857560Y-100610605D01*
X74202527Y-100550527D01*
X74588784Y-100511535D01*
X75010256Y-100487519D01*
X76926817Y-100418986D01*
X77433254Y-100378183D01*
X77938462Y-100315690D01*
X78436366Y-100225396D01*
X78920892Y-100101192D01*
X79190685Y-100015587D01*
X79449465Y-99924924D01*
X79697899Y-99829677D01*
X79936656Y-99730322D01*
X80387810Y-99521184D01*
X80808274Y-99301309D01*
X81203393Y-99074495D01*
X81578512Y-98844539D01*
X82290135Y-98390397D01*
X82637329Y-98173808D01*
X82985907Y-97969270D01*
X83341213Y-97780582D01*
X83708593Y-97611542D01*
X83898482Y-97535577D01*
X84093393Y-97465948D01*
X84293997Y-97403131D01*
X84500959Y-97347599D01*
X84714950Y-97299828D01*
X84936636Y-97260293D01*
X85166687Y-97229468D01*
X85405770Y-97207828D01*
X85556645Y-97194790D01*
X85704755Y-97176891D01*
X85849873Y-97154333D01*
X85991772Y-97127318D01*
X86130225Y-97096049D01*
X86265005Y-97060728D01*
X86395886Y-97021558D01*
X86522639Y-96978742D01*
X86645038Y-96932481D01*
X86762857Y-96882979D01*
X86875867Y-96830438D01*
X86983842Y-96775060D01*
X87086555Y-96717048D01*
X87183779Y-96656604D01*
X87275288Y-96593931D01*
X87360852Y-96529231D01*
X87440247Y-96462707D01*
X87513245Y-96394562D01*
X87579618Y-96324997D01*
X87639140Y-96254216D01*
X87691584Y-96182421D01*
X87736723Y-96109813D01*
X87774329Y-96036597D01*
X87804176Y-95962974D01*
X87826037Y-95889147D01*
X87839684Y-95815318D01*
X87844891Y-95741689D01*
X87841431Y-95668464D01*
X87829076Y-95595845D01*
X87807600Y-95524034D01*
X87776775Y-95453234D01*
X87736375Y-95383647D01*
X87641445Y-95258415D01*
X87537541Y-95156625D01*
X87425140Y-95076802D01*
X87304719Y-95017472D01*
X87176755Y-94977158D01*
X87041726Y-94954387D01*
X86900107Y-94947683D01*
X86752377Y-94955571D01*
X86599012Y-94976576D01*
X86440490Y-95009224D01*
X86109881Y-95103545D01*
X85764366Y-95226734D01*
X85407762Y-95366992D01*
X84676552Y-95651512D01*
X84309579Y-95772175D01*
X84127420Y-95821944D01*
X83946783Y-95862705D01*
X83768144Y-95892983D01*
X83591980Y-95911303D01*
X83418768Y-95916190D01*
X83248986Y-95906169D01*
X83083111Y-95879764D01*
X82921619Y-95835502D01*
X82764988Y-95771907D01*
X82613694Y-95687503D01*
X82469759Y-95586017D01*
X82349494Y-95482264D01*
X82251568Y-95376488D01*
X82174648Y-95268928D01*
X82117405Y-95159825D01*
X82078504Y-95049422D01*
X82056616Y-94937959D01*
X82050407Y-94825678D01*
X82058547Y-94712819D01*
X82079704Y-94599624D01*
X82112545Y-94486335D01*
X82155739Y-94373191D01*
X82207954Y-94260435D01*
X82267859Y-94148308D01*
X82405411Y-93926905D01*
X82996848Y-93114682D01*
X83053442Y-93025391D01*
X83101745Y-92939622D01*
X83140424Y-92857618D01*
X83168149Y-92779620D01*
X83183586Y-92705869D01*
X83185406Y-92636605D01*
X83172275Y-92572071D01*
X83142861Y-92512508D01*
X83066258Y-92418485D01*
X82977419Y-92346113D01*
X82877028Y-92293774D01*
X82765770Y-92259851D01*
X82644332Y-92242726D01*
X82513397Y-92240783D01*
X82373651Y-92252402D01*
X82225779Y-92275968D01*
X81908398Y-92352468D01*
X81566732Y-92457343D01*
X80832472Y-92700460D01*
X80450838Y-92812822D01*
X80066843Y-92901802D01*
X79875672Y-92933479D01*
X79685965Y-92954458D01*
X79498409Y-92963122D01*
X79313687Y-92957853D01*
X79132486Y-92937033D01*
X78955489Y-92899046D01*
X78783382Y-92842273D01*
X78616850Y-92765098D01*
X78456578Y-92665902D01*
X78303251Y-92543069D01*
X78157555Y-92394980D01*
X78020173Y-92220020D01*
X77970195Y-92140897D01*
X77932523Y-92063438D01*
X77906752Y-91987698D01*
X77892474Y-91913732D01*
X77889284Y-91841597D01*
X77896775Y-91771347D01*
X77914541Y-91703039D01*
X77942175Y-91636728D01*
X77979272Y-91572470D01*
X78025424Y-91510320D01*
X78080225Y-91450334D01*
X78143270Y-91392569D01*
X78214151Y-91337078D01*
X78292463Y-91283919D01*
X78469752Y-91184816D01*
X78671887Y-91095705D01*
X78895616Y-91017031D01*
X79137689Y-90949239D01*
X79394855Y-90892775D01*
X79663862Y-90848083D01*
X79941462Y-90815609D01*
X80224401Y-90795799D01*
X80509431Y-90789096D01*
X80880586Y-90780479D01*
X81235750Y-90753375D01*
X81577434Y-90705899D01*
X81908149Y-90636170D01*
X82230405Y-90542306D01*
X82546712Y-90422423D01*
X82859582Y-90274640D01*
X83171524Y-90097074D01*
X83485049Y-89887842D01*
X83802668Y-89645062D01*
X84126892Y-89366851D01*
X84460229Y-89051327D01*
X84805192Y-88696608D01*
X85164291Y-88300811D01*
X85540036Y-87862053D01*
X85934938Y-87378452D01*
X86141344Y-87138833D01*
X86354649Y-86925493D01*
X86573966Y-86736736D01*
X86798408Y-86570867D01*
X87027090Y-86426193D01*
X87259124Y-86301017D01*
X87493625Y-86193646D01*
X87729705Y-86102385D01*
X87966478Y-86025539D01*
X88203058Y-85961413D01*
X88438558Y-85908313D01*
X88672091Y-85864544D01*
X89129712Y-85798220D01*
X89568830Y-85748883D01*
X89982351Y-85702977D01*
X90363184Y-85646944D01*
X90539126Y-85610893D01*
X90704236Y-85567226D01*
X90857628Y-85514248D01*
X90998416Y-85450265D01*
X91125713Y-85373582D01*
X91238631Y-85282504D01*
X91336286Y-85175338D01*
X91417790Y-85050386D01*
X91482257Y-84905956D01*
X91528800Y-84740353D01*
X91556533Y-84551882D01*
X91564569Y-84338847D01*
X91557708Y-84201553D01*
X91540232Y-84076459D01*
X91512773Y-83962967D01*
X91475961Y-83860475D01*
X91430428Y-83768384D01*
X91376804Y-83686095D01*
X91315723Y-83613007D01*
X91247814Y-83548520D01*
X91173709Y-83492035D01*
X91094039Y-83442952D01*
X91009436Y-83400670D01*
X90920531Y-83364591D01*
X90827955Y-83334114D01*
X90732340Y-83308639D01*
X90534517Y-83270296D01*
X90332111Y-83244764D01*
X90130174Y-83227243D01*
X89747908Y-83197041D01*
X89577680Y-83174761D01*
X89428123Y-83141296D01*
X89362674Y-83118870D01*
X89304286Y-83091848D01*
X89253591Y-83059630D01*
X89211221Y-83021617D01*
X89153354Y-82951050D01*
X89107949Y-82878758D01*
X89074142Y-82804866D01*
X89051069Y-82729497D01*
X89037866Y-82652775D01*
X89033669Y-82574824D01*
X89037616Y-82495767D01*
X89048841Y-82415728D01*
X89066481Y-82334831D01*
X89089673Y-82253199D01*
X89149256Y-82088229D01*
X89220680Y-81921807D01*
X89297035Y-81754922D01*
X89371411Y-81588566D01*
X89436898Y-81423727D01*
X89464148Y-81342187D01*
X89486585Y-81261397D01*
X89503344Y-81181482D01*
X89513563Y-81102565D01*
X89516376Y-81024771D01*
X89510921Y-80948222D01*
X89496334Y-80873042D01*
X89471751Y-80799357D01*
X89436307Y-80727288D01*
X89389140Y-80656960D01*
X89329386Y-80588496D01*
X89256181Y-80522021D01*
X89117257Y-80422002D01*
X88981184Y-80349902D01*
X88847773Y-80304022D01*
X88716838Y-80282658D01*
X88588190Y-80284110D01*
X88461641Y-80306674D01*
X88337004Y-80348649D01*
X88214091Y-80408334D01*
X88092714Y-80484026D01*
X87972685Y-80574024D01*
X87853817Y-80676625D01*
X87735922Y-80790128D01*
X87502299Y-81043031D01*
X87270313Y-81319118D01*
X86805246Y-81886382D01*
X86569161Y-82150330D01*
X86449572Y-82271426D01*
X86328703Y-82383000D01*
X86206366Y-82483352D01*
X86082372Y-82570779D01*
X85956535Y-82643579D01*
X85828665Y-82700050D01*
X85698576Y-82738491D01*
X85566080Y-82757199D01*
X85430989Y-82754473D01*
X85293115Y-82728610D01*
X85163370Y-82686958D01*
X85052114Y-82638283D01*
X84958336Y-82583017D01*
X84881028Y-82521591D01*
X84819180Y-82454435D01*
X84771783Y-82381979D01*
X84737826Y-82304655D01*
X84716301Y-82222894D01*
X84706198Y-82137125D01*
X84706507Y-82047780D01*
X84716220Y-81955290D01*
X84734326Y-81860085D01*
X84759816Y-81762596D01*
X84791681Y-81663253D01*
X84870496Y-81460731D01*
X85238844Y-80662651D01*
X85303824Y-80483362D01*
X85326695Y-80399121D01*
X85341808Y-80319057D01*
X85348154Y-80243600D01*
X85344723Y-80173182D01*
X85330504Y-80108232D01*
X85304490Y-80049182D01*
X85261990Y-79992379D01*
X85206843Y-79945986D01*
X85139930Y-79909200D01*
X85062127Y-79881217D01*
X84974313Y-79861232D01*
X84877366Y-79848442D01*
X84772165Y-79842042D01*
X84659588Y-79841229D01*
X84415817Y-79853148D01*
X84153080Y-79877765D01*
X83598808Y-79939369D01*
X83321326Y-79963492D01*
X83052979Y-79974587D01*
X82924428Y-79973238D01*
X82800795Y-79966221D01*
X82682959Y-79952730D01*
X82571799Y-79931962D01*
X82468192Y-79903113D01*
X82373016Y-79865379D01*
X82287150Y-79817956D01*
X82211473Y-79760041D01*
X82146861Y-79690828D01*
X82094194Y-79609514D01*
X82054350Y-79515295D01*
X82028207Y-79407367D01*
X82016440Y-79240624D01*
X82037260Y-79087793D01*
X82088659Y-78947960D01*
X82168628Y-78820214D01*
X82275156Y-78703642D01*
X82406235Y-78597332D01*
X82559855Y-78500371D01*
X82734008Y-78411847D01*
X83135871Y-78256462D01*
X83595751Y-78123877D01*
X84097572Y-78006793D01*
X84625260Y-77897912D01*
X85693940Y-77675563D01*
X86202783Y-77547498D01*
X86673194Y-77398440D01*
X86888965Y-77313758D01*
X87089100Y-77221090D01*
X87271590Y-77119526D01*
X87434426Y-77008151D01*
X87575598Y-76886054D01*
X87693097Y-76752323D01*
X87784913Y-76606045D01*
X87849038Y-76446307D01*
X87862996Y-76385710D01*
X87868238Y-76328218D01*
X87865355Y-76273577D01*
X87854938Y-76221529D01*
X87837578Y-76171821D01*
X87813866Y-76124196D01*
X87784393Y-76078399D01*
X87749749Y-76034175D01*
X87710525Y-75991267D01*
X87667313Y-75949421D01*
X87571285Y-75867892D01*
X87357362Y-75706330D01*
X87248920Y-75622209D01*
X87145793Y-75533136D01*
X87097700Y-75486104D01*
X87052709Y-75437068D01*
X87011410Y-75385772D01*
X86974394Y-75331960D01*
X86942251Y-75275378D01*
X86915574Y-75215769D01*
X86894953Y-75152878D01*
X86880977Y-75086450D01*
X86874240Y-75016229D01*
X86875330Y-74941959D01*
X86884840Y-74863386D01*
X86903360Y-74780254D01*
X86933309Y-74695557D01*
X86975463Y-74615276D01*
X87029139Y-74539255D01*
X87093655Y-74467338D01*
X87168326Y-74399368D01*
X87252472Y-74335189D01*
X87345408Y-74274645D01*
X87446452Y-74217580D01*
X87670131Y-74113260D01*
X87918049Y-74020978D01*
X88184740Y-73939485D01*
X88464744Y-73867531D01*
X88752596Y-73803865D01*
X89042835Y-73747236D01*
X89608621Y-73650092D01*
X90118398Y-73566096D01*
X90528466Y-73485248D01*
X90883767Y-73386137D01*
X91272006Y-73251564D01*
X91683655Y-73085014D01*
X92109182Y-72889973D01*
X92539061Y-72669924D01*
X92963761Y-72428353D01*
X93373753Y-72168744D01*
X93759507Y-71894582D01*
X93940318Y-71753133D01*
X94111495Y-71609352D01*
X94271849Y-71463676D01*
X94420188Y-71316539D01*
X94555320Y-71168378D01*
X94676055Y-71019628D01*
X94781201Y-70870724D01*
X94869568Y-70722103D01*
X94939964Y-70574199D01*
X94991197Y-70427449D01*
X95022078Y-70282287D01*
X95031414Y-70139151D01*
X95018015Y-69998474D01*
X94980689Y-69860693D01*
X94918245Y-69726244D01*
X94829492Y-69595561D01*
X94724068Y-69477268D01*
X94616859Y-69384133D01*
X94507967Y-69314531D01*
X94397495Y-69266840D01*
X94285546Y-69239436D01*
X94172224Y-69230696D01*
X94057629Y-69238998D01*
X93941867Y-69262717D01*
X93825038Y-69300231D01*
X93707247Y-69349915D01*
X93588596Y-69410148D01*
X93469187Y-69479306D01*
X93228510Y-69637902D01*
X92986038Y-69812719D01*
X92742594Y-69990769D01*
X92499001Y-70159068D01*
X92256081Y-70304630D01*
X92135130Y-70364826D01*
X92014656Y-70414468D01*
X91894762Y-70451932D01*
X91775550Y-70475596D01*
X91657123Y-70483836D01*
X91539585Y-70475029D01*
X91423038Y-70447552D01*
X91307584Y-70399781D01*
X91193327Y-70330093D01*
X91080369Y-70236865D01*
X91009017Y-70162222D01*
X90952676Y-70087185D01*
X90910429Y-70011854D01*
X90881358Y-69936330D01*
X90864543Y-69860713D01*
X90859068Y-69785101D01*
X90864012Y-69709596D01*
X90878458Y-69634297D01*
X90901488Y-69559304D01*
X90932183Y-69484716D01*
X90969626Y-69410635D01*
X91012896Y-69337158D01*
X91113250Y-69192422D01*
X91225899Y-69051307D01*
X91458692Y-68783135D01*
X91564144Y-68657677D01*
X91652503Y-68539035D01*
X91687977Y-68482521D01*
X91716422Y-68428011D01*
X91736922Y-68375604D01*
X91748557Y-68325401D01*
X91750408Y-68277501D01*
X91741558Y-68232006D01*
X91721089Y-68189013D01*
X91688081Y-68148624D01*
X91591477Y-68067204D01*
X91490332Y-68007870D01*
X91384949Y-67969081D01*
X91275633Y-67949293D01*
X91162686Y-67946964D01*
X91046411Y-67960551D01*
X90927113Y-67988512D01*
X90805093Y-68029303D01*
X90680657Y-68081383D01*
X90554105Y-68143209D01*
X90295875Y-68289927D01*
X89767389Y-68632435D01*
X89501988Y-68803544D01*
X89239051Y-68958101D01*
X89109264Y-69025316D01*
X88981002Y-69083766D01*
X88854570Y-69131907D01*
X88730271Y-69168197D01*
X88608407Y-69191093D01*
X88489282Y-69199053D01*
X88373199Y-69190535D01*
X88260462Y-69163995D01*
X88151374Y-69117890D01*
X88046239Y-69050679D01*
X87945359Y-68960819D01*
X87849038Y-68846767D01*
X87741404Y-68681790D01*
X87664510Y-68519780D01*
X87616981Y-68360712D01*
X87597442Y-68204566D01*
X87604518Y-68051320D01*
X87636835Y-67900950D01*
X87693017Y-67753435D01*
X87771689Y-67608753D01*
X87871477Y-67466881D01*
X87991006Y-67327798D01*
X88128901Y-67191482D01*
X88283786Y-67057909D01*
X88639030Y-66798909D01*
X89045737Y-66550619D01*
X89492910Y-66312864D01*
X89969549Y-66085466D01*
X90967226Y-65661033D01*
X92832200Y-64928661D01*
X93288552Y-64738980D01*
X93737227Y-64546428D01*
X94174120Y-64350757D01*
X94595124Y-64151718D01*
X94996133Y-63949065D01*
X95373039Y-63742550D01*
X95721738Y-63531925D01*
X95884226Y-63424994D01*
X96038121Y-63316943D01*
X96182912Y-63207741D01*
X96318084Y-63097357D01*
X96443124Y-62985760D01*
X96557519Y-62872918D01*
X96660755Y-62758802D01*
X96752319Y-62643380D01*
X96831699Y-62526621D01*
X96898380Y-62408495D01*
X96951849Y-62288969D01*
X96991593Y-62168014D01*
X97017099Y-62045599D01*
X97027853Y-61921692D01*
X97023342Y-61796262D01*
X97003053Y-61669279D01*
X96966472Y-61540712D01*
X96913087Y-61410529D01*
X96841547Y-61284586D01*
X96759209Y-61184318D01*
X96666759Y-61107984D01*
X96564881Y-61053840D01*
X96454263Y-61020144D01*
X96335589Y-61005153D01*
X96209544Y-61007125D01*
X96076813Y-61024317D01*
X95938084Y-61054986D01*
X95794040Y-61097389D01*
X95492750Y-61210430D01*
X95178429Y-61349498D01*
X94856560Y-61500651D01*
X94532625Y-61649949D01*
X94212109Y-61783451D01*
X94054847Y-61839921D01*
X93900495Y-61887214D01*
X93749739Y-61923588D01*
X93603266Y-61947299D01*
X93461759Y-61956605D01*
X93325905Y-61949764D01*
X93196390Y-61925032D01*
X93073897Y-61880667D01*
X92959114Y-61814927D01*
X92852724Y-61726068D01*
X92755415Y-61612349D01*
X92667871Y-61472026D01*
X92562535Y-61240803D01*
X92499835Y-61023621D01*
X92477176Y-60819614D01*
X92491965Y-60627915D01*
X92541605Y-60447660D01*
X92623504Y-60277983D01*
X92735067Y-60118017D01*
X92873700Y-59966898D01*
X93036808Y-59823759D01*
X93221797Y-59687735D01*
X93426073Y-59557960D01*
X93647041Y-59433569D01*
X94128678Y-59197474D01*
X94645953Y-58972525D01*
X95704401Y-58528362D01*
X96204065Y-58295297D01*
X96656350Y-58045675D01*
X96858239Y-57912491D01*
X97040501Y-57772572D01*
X97200540Y-57625050D01*
X97335764Y-57469061D01*
X97443576Y-57303738D01*
X97521384Y-57128216D01*
X97566593Y-56941630D01*
X97576608Y-56743114D01*
X97566737Y-56641985D01*
X97546419Y-56553226D01*
X97516290Y-56476055D01*
X97476986Y-56409694D01*
X97429143Y-56353363D01*
X97373398Y-56306282D01*
X97310386Y-56267673D01*
X97240744Y-56236754D01*
X97165109Y-56212748D01*
X97084116Y-56194873D01*
X96998402Y-56182351D01*
X96908604Y-56174402D01*
X96719296Y-56169105D01*
X96521284Y-56172745D01*
X96119507Y-56181891D01*
X95925922Y-56174923D01*
X95833182Y-56165825D01*
X95743993Y-56151946D01*
X95658990Y-56132505D01*
X95578809Y-56106723D01*
X95504088Y-56073821D01*
X95435462Y-56033018D01*
X95373568Y-55983536D01*
X95319041Y-55924594D01*
X95272518Y-55855413D01*
X95234635Y-55775214D01*
X95205376Y-55683683D01*
X95189192Y-55594317D01*
X95185490Y-55506621D01*
X95193680Y-55420101D01*
X95213168Y-55334261D01*
X95243363Y-55248606D01*
X95283672Y-55162642D01*
X95333503Y-55075873D01*
X95459362Y-54897941D01*
X95616203Y-54710849D01*
X96003882Y-54293346D01*
X96225243Y-54055013D01*
X96458637Y-53791680D01*
X96699324Y-53499386D01*
X96942568Y-53174170D01*
X97183632Y-52812072D01*
X97301865Y-52615955D01*
X97417777Y-52409133D01*
X97530774Y-52191109D01*
X97640265Y-51961390D01*
X97745658Y-51719480D01*
X97846360Y-51464885D01*
X98099308Y-50777967D01*
X98172511Y-50590771D01*
X98248130Y-50408975D01*
X98325383Y-50238374D01*
X98403483Y-50084760D01*
X98481646Y-49953928D01*
X98520505Y-49898865D01*
X98559087Y-49851671D01*
X98597292Y-49813068D01*
X98635022Y-49783781D01*
X98672179Y-49764536D01*
X98708666Y-49756054D01*
X98744383Y-49759062D01*
X98779234Y-49774283D01*
X98813120Y-49802441D01*
X98845942Y-49844261D01*
X98877603Y-49900466D01*
X98908005Y-49971782D01*
X98937050Y-50058931D01*
X98964639Y-50162639D01*
X98924333Y-104904514D01*
X98927694Y-105013068D01*
X98941561Y-105115624D01*
X98965244Y-105212081D01*
X98998048Y-105302339D01*
X99039282Y-105386297D01*
X99088253Y-105463854D01*
X99144269Y-105534911D01*
X99206636Y-105599367D01*
X99274662Y-105657120D01*
X99347656Y-105708071D01*
X99424924Y-105752119D01*
X99505774Y-105789164D01*
X99589513Y-105819104D01*
X99675448Y-105841840D01*
X99762888Y-105857271D01*
X99851140Y-105865297D01*
X99939511Y-105865816D01*
X100027309Y-105858728D01*
X100113840Y-105843934D01*
X100198414Y-105821332D01*
X100280336Y-105790821D01*
X100358915Y-105752302D01*
X100433458Y-105705673D01*
X100503272Y-105650835D01*
X100567665Y-105587686D01*
X100625945Y-105516127D01*
X100677419Y-105436056D01*
X100721394Y-105347374D01*
X100757178Y-105249978D01*
X100784078Y-105143771D01*
X100801402Y-105028649D01*
X100808458Y-104904514D01*
X100808458Y-50163673D01*
X100827491Y-50098664D01*
X100846331Y-50038699D01*
X100864982Y-49983667D01*
X100874238Y-49957965D01*
X100883449Y-49933454D01*
X100892613Y-49910121D01*
X100901734Y-49887950D01*
X100910810Y-49866928D01*
X100919843Y-49847041D01*
X100928833Y-49828275D01*
X100937780Y-49810616D01*
X100946685Y-49794050D01*
X100955548Y-49778562D01*
X100964371Y-49764140D01*
X100973153Y-49750767D01*
X100981896Y-49738432D01*
X100990599Y-49727119D01*
X100999263Y-49716815D01*
X101007889Y-49707506D01*
X101016477Y-49699177D01*
X101025028Y-49691815D01*
X101033542Y-49685405D01*
X101042020Y-49679934D01*
X101050462Y-49675387D01*
X101058869Y-49671751D01*
X101067241Y-49669011D01*
X101075580Y-49667154D01*
X101083885Y-49666165D01*
X101092114Y-49666031D01*
X101116744Y-49670615D01*
M02*
