M48
; DRILL file {KiCad (6.0.4-0)} date 2022 October 27, Thursday 17:45:20
; FORMAT={-:-/ absolute / metric / decimal}
; #@! TF.CreationDate,2022-10-27T17:45:20+02:00
; #@! TF.GenerationSoftware,Kicad,Pcbnew,(6.0.4-0)
; #@! TF.FileFunction,Plated,1,2,PTH
FMAT,2
METRIC
; #@! TA.AperFunction,Plated,PTH,ViaDrill
T1C0.400
%
G90
G05
T1
X66.41Y-143.44
X74.46Y-150.61
X74.5Y-142.5
X80.0Y-135.38
X80.5Y-142.5
X82.3Y-102.34
X84.97Y-106.98
X88.0Y-155.77
X88.28Y-138.95
X89.43Y-160.71
X89.49Y-101.5
X89.54Y-123.65
X90.28Y-95.95
X92.5Y-67.5
X93.17Y-81.52
X93.65Y-156.16
X94.5Y-76.5
X95.5Y-71.0
X96.5Y-64.5
X97.37Y-83.07
X97.37Y-87.3
X97.37Y-90.71
X97.37Y-95.42
X97.37Y-99.74
X97.37Y-105.18
X97.82Y-71.55
X98.08Y-55.09
X102.09Y-59.74
X102.19Y-103.01
X102.19Y-105.24
X103.42Y-69.08
X104.0Y-81.5
X104.67Y-110.91
X105.32Y-151.12
X105.57Y-75.13
X105.82Y-154.13
X105.84Y-101.17
X108.45Y-142.95
X109.0Y-153.0
X109.15Y-80.41
X111.52Y-128.42
X116.0Y-132.0
X121.69Y-103.39
X124.73Y-150.86
X125.65Y-113.42
X132.48Y-149.09
T0
M30
