M48
; DRILL file {KiCad 8.0.5} date 2024-11-01T20:50:19+0100
; FORMAT={-:-/ absolute / metric / decimal}
; #@! TF.CreationDate,2024-11-01T20:50:19+01:00
; #@! TF.GenerationSoftware,Kicad,Pcbnew,8.0.5
; #@! TF.FileFunction,Plated,1,2,PTH
FMAT,2
METRIC
; #@! TA.AperFunction,Plated,PTH,ViaDrill
T1C0.400
%
G90
G05
T1
X66.41Y-143.44
X73.0Y-112.6
X74.46Y-150.61
X74.5Y-142.5
X75.2Y-127.0
X80.0Y-135.38
X80.6Y-114.6
X82.3Y-102.34
X83.625Y-136.8
X84.9Y-91.95
X84.97Y-106.98
X85.4Y-98.8
X86.15Y-133.025
X87.075Y-142.738
X88.0Y-155.77
X88.025Y-145.15
X88.28Y-138.95
X88.65Y-125.925
X88.75Y-77.5
X88.775Y-100.35
X89.43Y-160.71
X89.54Y-123.65
X90.28Y-95.95
X90.975Y-86.3
X91.475Y-150.675
X92.4Y-90.8
X92.5Y-67.5
X93.17Y-81.52
X93.2Y-104.2
X93.65Y-156.16
X93.8Y-138.925
X94.175Y-145.775
X94.2Y-110.8
X94.5Y-76.5
X94.75Y-133.55
X94.8Y-85.6
X95.05Y-92.5
X95.4Y-67.875
X95.75Y-90.475
X96.0Y-150.75
X96.35Y-69.7
X96.5Y-64.5
X96.6Y-120.8
X97.0Y-127.0
X97.37Y-83.07
X97.37Y-87.3
X97.37Y-90.71
X97.37Y-95.42
X97.37Y-99.74
X97.37Y-105.18
X97.82Y-71.55
X98.25Y-65.05
X101.5Y-72.625
X102.19Y-103.01
X102.19Y-105.24
X102.8Y-127.4
X102.9Y-70.15
X103.125Y-65.125
X103.54Y-80.175
X104.67Y-110.91
X104.725Y-83.125
X105.15Y-67.35
X105.2Y-108.0
X105.2Y-114.275
X105.32Y-151.12
X105.57Y-75.13
X105.6Y-124.4
X105.84Y-101.17
X106.07Y-87.435
X106.2Y-132.6
X106.55Y-81.6
X107.0Y-95.6
X107.7Y-115.525
X108.45Y-142.95
X108.9Y-121.825
X109.0Y-153.0
X109.125Y-82.025
X109.175Y-132.25
X109.25Y-67.0
X110.575Y-98.725
X110.975Y-155.85
X111.225Y-93.175
X111.275Y-149.175
X111.45Y-78.225
X111.52Y-128.42
X111.95Y-116.625
X112.4Y-104.6
X112.6Y-133.4
X115.0Y-150.6
X116.0Y-132.0
X116.225Y-151.0
X119.025Y-152.375
X119.825Y-140.625
X120.65Y-134.5
X121.69Y-103.39
X123.6Y-124.0
X124.73Y-150.86
X125.65Y-113.42
X130.4Y-143.9
X132.48Y-149.09
M30
