G04 #@! TF.GenerationSoftware,KiCad,Pcbnew,8.0.5*
G04 #@! TF.CreationDate,2024-11-01T20:50:18+01:00*
G04 #@! TF.ProjectId,SL_Christmas_Tree_B,534c5f43-6872-4697-9374-6d61735f5472,2.0*
G04 #@! TF.SameCoordinates,Original*
G04 #@! TF.FileFunction,Paste,Bot*
G04 #@! TF.FilePolarity,Positive*
%FSLAX46Y46*%
G04 Gerber Fmt 4.6, Leading zero omitted, Abs format (unit mm)*
G04 Created by KiCad (PCBNEW 8.0.5) date 2024-11-01 20:50:18*
%MOMM*%
%LPD*%
G01*
G04 APERTURE LIST*
G04 Aperture macros list*
%AMRoundRect*
0 Rectangle with rounded corners*
0 $1 Rounding radius*
0 $2 $3 $4 $5 $6 $7 $8 $9 X,Y pos of 4 corners*
0 Add a 4 corners polygon primitive as box body*
4,1,4,$2,$3,$4,$5,$6,$7,$8,$9,$2,$3,0*
0 Add four circle primitives for the rounded corners*
1,1,$1+$1,$2,$3*
1,1,$1+$1,$4,$5*
1,1,$1+$1,$6,$7*
1,1,$1+$1,$8,$9*
0 Add four rect primitives between the rounded corners*
20,1,$1+$1,$2,$3,$4,$5,0*
20,1,$1+$1,$4,$5,$6,$7,0*
20,1,$1+$1,$6,$7,$8,$9,0*
20,1,$1+$1,$8,$9,$2,$3,0*%
G04 Aperture macros list end*
%ADD10RoundRect,0.250000X0.337500X0.475000X-0.337500X0.475000X-0.337500X-0.475000X0.337500X-0.475000X0*%
%ADD11R,1.600000X0.850000*%
%ADD12RoundRect,0.250000X-0.337500X-0.475000X0.337500X-0.475000X0.337500X0.475000X-0.337500X0.475000X0*%
G04 APERTURE END LIST*
D10*
X107325000Y-92800000D03*
X105250000Y-92800000D03*
X116450000Y-136600000D03*
X114375000Y-136600000D03*
D11*
X85342500Y-130000000D03*
X85342500Y-128250000D03*
X88842500Y-128250000D03*
X88842500Y-130000000D03*
D12*
X86087500Y-123300000D03*
X88162500Y-123300000D03*
D10*
X107500000Y-79375000D03*
X105425000Y-79375000D03*
D11*
X90575000Y-90350000D03*
X90575000Y-88600000D03*
X94075000Y-88600000D03*
X94075000Y-90350000D03*
X83225000Y-111625000D03*
X83225000Y-109875000D03*
X86725000Y-109875000D03*
X86725000Y-111625000D03*
D12*
X94787500Y-80850000D03*
X96862500Y-80850000D03*
D11*
X123864392Y-144952866D03*
X123864392Y-146702866D03*
X120364392Y-146702866D03*
X120364392Y-144952866D03*
D12*
X91225000Y-141525000D03*
X93300000Y-141525000D03*
D11*
X89255000Y-149350000D03*
X89255000Y-147600000D03*
X92755000Y-147600000D03*
X92755000Y-149350000D03*
D12*
X91687500Y-105775000D03*
X93762500Y-105775000D03*
D11*
X112975000Y-109350000D03*
X112975000Y-111100000D03*
X109475000Y-111100000D03*
X109475000Y-109350000D03*
X111325000Y-137200000D03*
X111325000Y-138950000D03*
X107825000Y-138950000D03*
X107825000Y-137200000D03*
X78225000Y-140175000D03*
X78225000Y-138425000D03*
X81725000Y-138425000D03*
X81725000Y-140175000D03*
X114425000Y-122800000D03*
X114425000Y-124550000D03*
X110925000Y-124550000D03*
X110925000Y-122800000D03*
D10*
X108925000Y-104725000D03*
X106850000Y-104725000D03*
D11*
X108344617Y-86587079D03*
X108344617Y-88337079D03*
X104844617Y-88337079D03*
X104844617Y-86587079D03*
D10*
X110725000Y-118675000D03*
X108650000Y-118675000D03*
X114787500Y-147925000D03*
X112712500Y-147925000D03*
D12*
X90775000Y-114425000D03*
X92850000Y-114425000D03*
X86512500Y-136250000D03*
X88587500Y-136250000D03*
D11*
X87050000Y-100475000D03*
X87050000Y-98725000D03*
X90550000Y-98725000D03*
X90550000Y-100475000D03*
X106950000Y-66500000D03*
X106950000Y-68250000D03*
X103450000Y-68250000D03*
X103450000Y-66500000D03*
M02*
