M48
; DRILL file {KiCad (6.0.4-0)} date 2022 November 06, Sunday 12:02:52
; FORMAT={-:-/ absolute / metric / decimal}
; #@! TF.CreationDate,2022-11-06T12:02:52+01:00
; #@! TF.GenerationSoftware,Kicad,Pcbnew,(6.0.4-0)
; #@! TF.FileFunction,Plated,1,2,PTH
FMAT,2
METRIC
; #@! TA.AperFunction,Plated,PTH,ViaDrill
T1C0.400
%
G90
G05
T1
X66.41Y-143.44
X73.0Y-112.6
X74.46Y-150.61
X74.5Y-142.5
X75.2Y-127.0
X80.0Y-135.38
X80.5Y-142.5
X80.6Y-114.6
X82.3Y-102.34
X84.97Y-106.98
X85.4Y-98.8
X88.0Y-155.77
X88.28Y-138.95
X88.4Y-101.6
X89.43Y-160.71
X89.54Y-123.65
X90.2Y-77.6
X90.28Y-95.95
X92.4Y-90.8
X92.5Y-67.5
X93.17Y-81.52
X93.2Y-104.2
X93.65Y-156.16
X94.2Y-110.8
X94.5Y-76.5
X94.8Y-85.6
X95.2Y-90.8
X96.5Y-64.5
X96.6Y-120.8
X97.0Y-127.0
X97.37Y-83.07
X97.37Y-87.3
X97.37Y-90.71
X97.37Y-95.42
X97.37Y-99.74
X97.37Y-105.18
X97.82Y-71.55
X98.08Y-55.09
X102.09Y-59.74
X102.19Y-103.01
X102.19Y-105.24
X102.8Y-127.4
X103.42Y-69.08
X104.2Y-98.8
X104.67Y-110.91
X104.8Y-81.2
X105.2Y-108.0
X105.32Y-151.12
X105.57Y-75.13
X105.6Y-124.4
X105.82Y-154.13
X105.84Y-101.17
X106.2Y-132.6
X107.0Y-95.6
X108.45Y-142.95
X109.0Y-153.0
X109.15Y-80.41
X111.52Y-128.42
X112.6Y-133.4
X115.0Y-150.6
X116.0Y-132.0
X121.69Y-103.39
X123.6Y-124.0
X124.73Y-150.86
X125.65Y-113.42
X132.48Y-149.09
T0
M30
