M48
; DRILL file {KiCad (6.0.4-0)} date 2022 November 06, Sunday 11:48:34
; FORMAT={-:-/ absolute / metric / decimal}
; #@! TF.CreationDate,2022-11-06T11:48:34+01:00
; #@! TF.GenerationSoftware,Kicad,Pcbnew,(6.0.4-0)
; #@! TF.FileFunction,Plated,1,2,PTH
FMAT,2
METRIC
; #@! TA.AperFunction,Plated,PTH,ViaDrill
T1C0.400
; #@! TA.AperFunction,Plated,PTH,ComponentDrill
T2C2.100
%
G90
G05
T1
X64.5Y-144.5
X67.5Y-148.0
X71.84Y-128.35
X73.8Y-112.8
X74.0Y-150.0
X75.06Y-127.55
X80.2Y-115.2
X80.5Y-135.5
X82.3Y-102.34
X83.5Y-136.5
X83.5Y-141.5
X84.06Y-150.45
X86.6Y-122.4
X87.4Y-120.2
X88.37Y-158.32
X89.2Y-87.6
X89.49Y-101.5
X89.5Y-134.0
X90.59Y-129.94
X91.67Y-160.21
X91.91Y-156.93
X92.0Y-148.8
X92.75Y-131.02
X92.82Y-128.52
X93.0Y-68.2
X93.8Y-151.4
X95.4Y-91.2
X97.36Y-104.06
X97.36Y-108.28
X97.36Y-114.73
X97.37Y-119.0
X97.37Y-159.51
X97.4Y-70.2
X97.41Y-161.54
X98.62Y-59.63
X99.4Y-68.4
X99.74Y-56.5
X100.64Y-61.65
X102.0Y-71.4
X102.0Y-151.4
X102.06Y-108.59
X102.13Y-114.92
X102.2Y-81.8
X102.2Y-128.4
X103.4Y-88.8
X103.4Y-99.6
X103.4Y-152.8
X103.6Y-127.2
X104.6Y-106.8
X105.2Y-68.0
X105.2Y-74.8
X109.5Y-153.5
X109.8Y-121.0
X110.0Y-101.8
X110.4Y-131.4
X111.6Y-103.2
X112.4Y-132.4
X113.0Y-128.6
X114.4Y-113.0
X114.6Y-141.2
X115.8Y-147.0
X117.0Y-131.0
X121.0Y-125.8
X121.8Y-133.4
X127.6Y-128.0
T2
X96.93Y-163.73
X96.93Y-163.73
X102.6Y-163.72
X102.63Y-163.71
T0
M30
