G04 #@! TF.GenerationSoftware,KiCad,Pcbnew,(6.0.4-0)*
G04 #@! TF.CreationDate,2022-11-06T11:48:30+01:00*
G04 #@! TF.ProjectId,SL_Christmas_Tree_A,534c5f43-6872-4697-9374-6d61735f5472,rev?*
G04 #@! TF.SameCoordinates,Original*
G04 #@! TF.FileFunction,Paste,Top*
G04 #@! TF.FilePolarity,Positive*
%FSLAX46Y46*%
G04 Gerber Fmt 4.6, Leading zero omitted, Abs format (unit mm)*
G04 Created by KiCad (PCBNEW (6.0.4-0)) date 2022-11-06 11:48:30*
%MOMM*%
%LPD*%
G01*
G04 APERTURE LIST*
G04 Aperture macros list*
%AMRoundRect*
0 Rectangle with rounded corners*
0 $1 Rounding radius*
0 $2 $3 $4 $5 $6 $7 $8 $9 X,Y pos of 4 corners*
0 Add a 4 corners polygon primitive as box body*
4,1,4,$2,$3,$4,$5,$6,$7,$8,$9,$2,$3,0*
0 Add four circle primitives for the rounded corners*
1,1,$1+$1,$2,$3*
1,1,$1+$1,$4,$5*
1,1,$1+$1,$6,$7*
1,1,$1+$1,$8,$9*
0 Add four rect primitives between the rounded corners*
20,1,$1+$1,$2,$3,$4,$5,0*
20,1,$1+$1,$4,$5,$6,$7,0*
20,1,$1+$1,$6,$7,$8,$9,0*
20,1,$1+$1,$8,$9,$2,$3,0*%
G04 Aperture macros list end*
%ADD10R,1.100000X0.750000*%
%ADD11RoundRect,0.250000X-0.350000X-0.450000X0.350000X-0.450000X0.350000X0.450000X-0.350000X0.450000X0*%
%ADD12RoundRect,0.250000X0.350000X0.450000X-0.350000X0.450000X-0.350000X-0.450000X0.350000X-0.450000X0*%
%ADD13RoundRect,0.250000X-0.450000X0.350000X-0.450000X-0.350000X0.450000X-0.350000X0.450000X0.350000X0*%
G04 APERTURE END LIST*
D10*
X107870000Y-114940000D03*
X109970000Y-114940000D03*
X109970000Y-116190000D03*
X107870000Y-116190000D03*
D11*
X117110000Y-123550000D03*
X119110000Y-123550000D03*
X82060000Y-146020000D03*
X84060000Y-146020000D03*
X87960000Y-111970000D03*
X89960000Y-111970000D03*
D10*
X78560000Y-124925000D03*
X80660000Y-124925000D03*
X80660000Y-126175000D03*
X78560000Y-126175000D03*
D11*
X91480000Y-101090000D03*
X93480000Y-101090000D03*
D10*
X95600000Y-67285000D03*
X97700000Y-67285000D03*
X97700000Y-68535000D03*
X95600000Y-68535000D03*
D12*
X109920000Y-109180000D03*
X107920000Y-109180000D03*
D10*
X116425000Y-134401400D03*
X118525000Y-134401400D03*
X118525000Y-135651400D03*
X116425000Y-135651400D03*
D11*
X82290000Y-131030000D03*
X84290000Y-131030000D03*
D10*
X111680000Y-122895000D03*
X113780000Y-122895000D03*
X113780000Y-124145000D03*
X111680000Y-124145000D03*
D11*
X92430000Y-93210000D03*
X94430000Y-93210000D03*
D10*
X104540000Y-78290000D03*
X106640000Y-78290000D03*
X106640000Y-79540000D03*
X104540000Y-79540000D03*
D12*
X108390000Y-97790000D03*
X106390000Y-97790000D03*
D10*
X82070000Y-111055000D03*
X84170000Y-111055000D03*
X84170000Y-112305000D03*
X82070000Y-112305000D03*
X84050000Y-100455000D03*
X86150000Y-100455000D03*
X86150000Y-101705000D03*
X84050000Y-101705000D03*
X106270000Y-91220000D03*
X108370000Y-91220000D03*
X108370000Y-92470000D03*
X106270000Y-92470000D03*
X108440000Y-148900000D03*
X110540000Y-148900000D03*
X110540000Y-150150000D03*
X108440000Y-150150000D03*
X92490000Y-87555000D03*
X94590000Y-87555000D03*
X94590000Y-88805000D03*
X92490000Y-88805000D03*
X75410000Y-145545000D03*
X77510000Y-145545000D03*
X77510000Y-146795000D03*
X75410000Y-146795000D03*
D13*
X105620000Y-83850000D03*
X105620000Y-85850000D03*
D12*
X111566200Y-134518400D03*
X109566200Y-134518400D03*
D13*
X102400000Y-67200000D03*
X102400000Y-69200000D03*
D12*
X110580000Y-156990000D03*
X108580000Y-156990000D03*
M02*
