M48
; DRILL file {KiCad (6.0.4-0)} date 2022 October 21, Friday 13:58:24
; FORMAT={-:-/ absolute / metric / decimal}
; #@! TF.CreationDate,2022-10-21T13:58:24+02:00
; #@! TF.GenerationSoftware,Kicad,Pcbnew,(6.0.4-0)
; #@! TF.FileFunction,Plated,1,2,PTH
FMAT,2
METRIC
; #@! TA.AperFunction,Plated,PTH,ViaDrill
T1C0.400
; #@! TA.AperFunction,Plated,PTH,ComponentDrill
T2C2.100
%
G90
G05
T1
X71.84Y-128.35
X75.06Y-127.55
X82.3Y-102.34
X84.06Y-150.45
X88.37Y-158.32
X89.49Y-101.5
X90.59Y-129.94
X91.67Y-160.21
X91.91Y-156.93
X92.75Y-131.02
X92.82Y-128.52
X97.36Y-104.06
X97.36Y-108.28
X97.36Y-114.73
X97.37Y-120.52
X97.37Y-159.51
X97.41Y-161.54
X98.62Y-59.63
X99.74Y-56.5
X100.64Y-61.65
X102.06Y-108.59
X102.13Y-114.92
X112.75Y-133.18
T2
X96.93Y-163.72
X96.94Y-163.72
X102.63Y-163.72
X102.63Y-163.73
T0
M30
