M48
; DRILL file {KiCad 8.0.5} date 2024-11-01T20:54:04+0100
; FORMAT={-:-/ absolute / metric / decimal}
; #@! TF.CreationDate,2024-11-01T20:54:04+01:00
; #@! TF.GenerationSoftware,Kicad,Pcbnew,8.0.5
; #@! TF.FileFunction,Plated,1,2,PTH
FMAT,2
METRIC
; #@! TA.AperFunction,Plated,PTH,ViaDrill
T1C0.400
; #@! TA.AperFunction,Plated,PTH,ComponentDrill
T2C2.100
%
G90
G05
T1
X64.5Y-144.5
X67.5Y-148.0
X71.84Y-128.35
X73.8Y-112.8
X74.0Y-150.0
X75.06Y-127.55
X77.675Y-129.75
X78.575Y-102.575
X80.05Y-146.725
X80.2Y-115.2
X80.25Y-130.95
X80.5Y-135.5
X80.938Y-143.95
X82.799Y-140.735
X83.388Y-128.15
X83.5Y-136.5
X83.912Y-125.087
X84.06Y-150.45
X84.95Y-148.4
X86.6Y-122.4
X86.904Y-88.552
X87.4Y-120.2
X88.37Y-158.32
X88.375Y-105.3
X88.375Y-110.125
X88.55Y-77.725
X89.5Y-134.0
X89.975Y-92.275
X90.59Y-129.94
X91.85Y-77.0
X91.875Y-98.675
X91.91Y-156.93
X92.0Y-148.8
X92.1Y-73.775
X92.3Y-67.525
X92.75Y-131.02
X92.82Y-128.52
X93.4Y-159.075
X93.475Y-114.425
X93.6Y-100.1
X93.65Y-101.95
X93.725Y-83.05
X93.725Y-85.9
X93.8Y-151.4
X94.85Y-154.025
X95.075Y-81.675
X95.1Y-91.45
X95.1Y-95.075
X95.2Y-60.3
X95.7Y-93.725
X96.05Y-47.05
X96.1Y-55.125
X96.375Y-59.025
X96.625Y-60.1
X96.85Y-73.075
X96.925Y-70.675
X97.36Y-104.06
X97.36Y-108.28
X97.36Y-114.73
X97.37Y-119.0
X97.37Y-159.51
X97.41Y-161.54
X97.85Y-69.75
X98.7Y-64.25
X98.775Y-48.05
X99.05Y-59.3
X99.125Y-51.8
X99.65Y-47.325
X99.65Y-72.05
X99.825Y-67.95
X99.925Y-53.85
X99.975Y-64.775
X100.275Y-51.7
X100.925Y-92.325
X101.175Y-58.325
X101.475Y-147.0
X101.6Y-47.475
X101.607Y-65.612
X101.75Y-87.525
X101.875Y-53.287
X102.0Y-71.4
X102.0Y-151.4
X102.06Y-108.59
X102.13Y-114.92
X102.2Y-81.8
X102.2Y-128.4
X102.5Y-100.375
X102.775Y-98.95
X102.85Y-59.125
X102.9Y-85.45
X103.05Y-159.7
X103.35Y-155.2
X103.4Y-88.8
X103.6Y-127.2
X103.65Y-55.075
X103.85Y-67.6
X103.85Y-68.8
X103.975Y-112.65
X104.0Y-117.575
X104.025Y-158.6
X104.15Y-131.3
X104.475Y-109.35
X104.55Y-88.05
X104.6Y-106.8
X105.2Y-76.275
X105.225Y-113.45
X105.375Y-159.575
X105.5Y-117.85
X106.0Y-89.7
X106.69Y-119.225
X106.9Y-152.275
X107.15Y-109.825
X107.325Y-78.8
X107.55Y-140.275
X108.488Y-153.088
X108.575Y-144.375
X108.625Y-134.25
X108.975Y-112.35
X109.001Y-131.298
X109.6Y-151.05
X109.8Y-121.0
X109.875Y-124.5
X110.0Y-101.8
X110.675Y-87.6
X110.69Y-154.15
X111.5Y-157.375
X111.6Y-103.2
X112.375Y-159.175
X113.0Y-128.6
X113.175Y-119.575
X114.4Y-113.0
X114.6Y-141.2
X114.925Y-130.075
X117.0Y-131.0
X118.975Y-135.075
X120.125Y-146.1
X121.0Y-125.8
X121.8Y-133.4
X127.6Y-128.0
T2
X91.575Y-163.7
X96.93Y-163.73
X96.93Y-163.73
X102.63Y-163.71
X102.63Y-163.71
X108.025Y-163.7
M30
