G04 #@! TF.GenerationSoftware,KiCad,Pcbnew,(6.0.4-0)*
G04 #@! TF.CreationDate,2022-11-06T11:48:30+01:00*
G04 #@! TF.ProjectId,SL_Christmas_Tree_A,534c5f43-6872-4697-9374-6d61735f5472,rev?*
G04 #@! TF.SameCoordinates,Original*
G04 #@! TF.FileFunction,Soldermask,Bot*
G04 #@! TF.FilePolarity,Negative*
%FSLAX46Y46*%
G04 Gerber Fmt 4.6, Leading zero omitted, Abs format (unit mm)*
G04 Created by KiCad (PCBNEW (6.0.4-0)) date 2022-11-06 11:48:30*
%MOMM*%
%LPD*%
G01*
G04 APERTURE LIST*
G04 Aperture macros list*
%AMRoundRect*
0 Rectangle with rounded corners*
0 $1 Rounding radius*
0 $2 $3 $4 $5 $6 $7 $8 $9 X,Y pos of 4 corners*
0 Add a 4 corners polygon primitive as box body*
4,1,4,$2,$3,$4,$5,$6,$7,$8,$9,$2,$3,0*
0 Add four circle primitives for the rounded corners*
1,1,$1+$1,$2,$3*
1,1,$1+$1,$4,$5*
1,1,$1+$1,$6,$7*
1,1,$1+$1,$8,$9*
0 Add four rect primitives between the rounded corners*
20,1,$1+$1,$2,$3,$4,$5,0*
20,1,$1+$1,$4,$5,$6,$7,0*
20,1,$1+$1,$6,$7,$8,$9,0*
20,1,$1+$1,$8,$9,$2,$3,0*%
G04 Aperture macros list end*
%ADD10RoundRect,0.250002X-1.699998X-1.699998X1.699998X-1.699998X1.699998X1.699998X-1.699998X1.699998X0*%
%ADD11RoundRect,0.250000X-0.350000X-0.450000X0.350000X-0.450000X0.350000X0.450000X-0.350000X0.450000X0*%
%ADD12R,1.100000X0.750000*%
%ADD13R,3.000000X3.000000*%
%ADD14RoundRect,0.250000X-0.450000X0.350000X-0.450000X-0.350000X0.450000X-0.350000X0.450000X0.350000X0*%
%ADD15RoundRect,0.250002X1.699998X1.699998X-1.699998X1.699998X-1.699998X-1.699998X1.699998X-1.699998X0*%
G04 APERTURE END LIST*
D10*
X102630000Y-163710000D03*
X96930000Y-163730000D03*
D11*
X82290000Y-131030000D03*
X84290000Y-131030000D03*
X91470000Y-101080000D03*
X93470000Y-101080000D03*
D12*
X86150000Y-100445000D03*
X84050000Y-100445000D03*
X84050000Y-101695000D03*
X86150000Y-101695000D03*
D13*
X97500000Y-123500000D03*
D11*
X87970000Y-111970000D03*
X89970000Y-111970000D03*
D14*
X105610000Y-83870000D03*
X105610000Y-85870000D03*
X102200000Y-66800000D03*
X102200000Y-68800000D03*
D12*
X97700000Y-67295000D03*
X95600000Y-67295000D03*
X95600000Y-68545000D03*
X97700000Y-68545000D03*
D15*
X96930000Y-163730000D03*
D12*
X109970000Y-114945000D03*
X107870000Y-114945000D03*
X107870000Y-116195000D03*
X109970000Y-116195000D03*
D13*
X102000000Y-75430000D03*
D11*
X106390000Y-97790000D03*
X108390000Y-97790000D03*
D12*
X77510000Y-146795000D03*
X75410000Y-146795000D03*
X75410000Y-148045000D03*
X77510000Y-148045000D03*
D13*
X102000000Y-123500000D03*
D11*
X108580000Y-157000000D03*
X110580000Y-157000000D03*
D12*
X110540000Y-148905000D03*
X108440000Y-148905000D03*
X108440000Y-150155000D03*
X110540000Y-150155000D03*
D15*
X102600000Y-163720000D03*
D12*
X107250000Y-92455000D03*
X105150000Y-92455000D03*
X105150000Y-93705000D03*
X107250000Y-93705000D03*
D11*
X92430000Y-93210000D03*
X94430000Y-93210000D03*
D13*
X97500000Y-75430000D03*
D12*
X113780000Y-122895000D03*
X111680000Y-122895000D03*
X111680000Y-124145000D03*
X113780000Y-124145000D03*
D11*
X107920000Y-109160000D03*
X109920000Y-109160000D03*
X82050000Y-146020000D03*
X84050000Y-146020000D03*
D12*
X106650000Y-78285000D03*
X104550000Y-78285000D03*
X104550000Y-79535000D03*
X106650000Y-79535000D03*
D11*
X116410000Y-123530000D03*
X118410000Y-123530000D03*
D12*
X110770000Y-132885000D03*
X108670000Y-132885000D03*
X108670000Y-134135000D03*
X110770000Y-134135000D03*
D11*
X114680000Y-135260000D03*
X116680000Y-135260000D03*
D12*
X84160000Y-112175000D03*
X82060000Y-112175000D03*
X82060000Y-113425000D03*
X84160000Y-113425000D03*
X94600000Y-87545000D03*
X92500000Y-87545000D03*
X92500000Y-88795000D03*
X94600000Y-88795000D03*
X80650000Y-124905000D03*
X78550000Y-124905000D03*
X78550000Y-126155000D03*
X80650000Y-126155000D03*
M02*
