G04 #@! TF.GenerationSoftware,KiCad,Pcbnew,8.0.5*
G04 #@! TF.CreationDate,2024-11-10T22:25:45+01:00*
G04 #@! TF.ProjectId,SL_Christmas_Tree_A,534c5f43-6872-4697-9374-6d61735f5472,2.2*
G04 #@! TF.SameCoordinates,Original*
G04 #@! TF.FileFunction,Soldermask,Bot*
G04 #@! TF.FilePolarity,Negative*
%FSLAX46Y46*%
G04 Gerber Fmt 4.6, Leading zero omitted, Abs format (unit mm)*
G04 Created by KiCad (PCBNEW 8.0.5) date 2024-11-10 22:25:45*
%MOMM*%
%LPD*%
G01*
G04 APERTURE LIST*
G04 Aperture macros list*
%AMRoundRect*
0 Rectangle with rounded corners*
0 $1 Rounding radius*
0 $2 $3 $4 $5 $6 $7 $8 $9 X,Y pos of 4 corners*
0 Add a 4 corners polygon primitive as box body*
4,1,4,$2,$3,$4,$5,$6,$7,$8,$9,$2,$3,0*
0 Add four circle primitives for the rounded corners*
1,1,$1+$1,$2,$3*
1,1,$1+$1,$4,$5*
1,1,$1+$1,$6,$7*
1,1,$1+$1,$8,$9*
0 Add four rect primitives between the rounded corners*
20,1,$1+$1,$2,$3,$4,$5,0*
20,1,$1+$1,$4,$5,$6,$7,0*
20,1,$1+$1,$6,$7,$8,$9,0*
20,1,$1+$1,$8,$9,$2,$3,0*%
G04 Aperture macros list end*
%ADD10C,0.010000*%
%ADD11RoundRect,0.250002X-1.699998X-1.699998X1.699998X-1.699998X1.699998X1.699998X-1.699998X1.699998X0*%
%ADD12RoundRect,0.250002X1.699998X1.699998X-1.699998X1.699998X-1.699998X-1.699998X1.699998X-1.699998X0*%
%ADD13RoundRect,0.250000X-0.337500X-0.475000X0.337500X-0.475000X0.337500X0.475000X-0.337500X0.475000X0*%
%ADD14RoundRect,0.250000X0.337500X0.475000X-0.337500X0.475000X-0.337500X-0.475000X0.337500X-0.475000X0*%
%ADD15R,1.600000X0.850000*%
%ADD16R,3.000000X3.000000*%
%ADD17RoundRect,0.250000X-0.475000X0.337500X-0.475000X-0.337500X0.475000X-0.337500X0.475000X0.337500X0*%
%ADD18R,2.000000X2.000000*%
%ADD19RoundRect,0.250000X0.475000X-0.337500X0.475000X0.337500X-0.475000X0.337500X-0.475000X-0.337500X0*%
%ADD20RoundRect,0.102000X-0.350000X-0.600000X0.350000X-0.600000X0.350000X0.600000X-0.350000X0.600000X0*%
%ADD21RoundRect,0.102000X-0.225000X-0.600000X0.225000X-0.600000X0.225000X0.600000X-0.225000X0.600000X0*%
G04 APERTURE END LIST*
D10*
X98625000Y-50100000D02*
X97875000Y-50100000D01*
X97875000Y-49850000D01*
X97425000Y-49850000D01*
X97425000Y-49100000D01*
X97875000Y-49100000D01*
X97875000Y-48700000D01*
X98625000Y-48700000D01*
X98625000Y-50100000D01*
G36*
X98625000Y-50100000D02*
G01*
X97875000Y-50100000D01*
X97875000Y-49850000D01*
X97425000Y-49850000D01*
X97425000Y-49100000D01*
X97875000Y-49100000D01*
X97875000Y-48700000D01*
X98625000Y-48700000D01*
X98625000Y-50100000D01*
G37*
X101775000Y-49100000D02*
X102225000Y-49100000D01*
X102225000Y-49850000D01*
X101775000Y-49850000D01*
X101775000Y-50100000D01*
X101025000Y-50100000D01*
X101025000Y-48700000D01*
X101775000Y-48700000D01*
X101775000Y-49100000D01*
G36*
X101775000Y-49100000D02*
G01*
X102225000Y-49100000D01*
X102225000Y-49850000D01*
X101775000Y-49850000D01*
X101775000Y-50100000D01*
X101025000Y-50100000D01*
X101025000Y-48700000D01*
X101775000Y-48700000D01*
X101775000Y-49100000D01*
G37*
D11*
X102630000Y-163710000D03*
X108025000Y-163700000D03*
X96930000Y-163730000D03*
D12*
X96930000Y-163730000D03*
D13*
X86000000Y-128675000D03*
X88075000Y-128675000D03*
X91650000Y-96825000D03*
X93725000Y-96825000D03*
D14*
X118425000Y-138975000D03*
X116350000Y-138975000D03*
D15*
X108775000Y-79800000D03*
X108775000Y-81550000D03*
X105275000Y-81550000D03*
X105275000Y-79800000D03*
X84825000Y-102425000D03*
X84825000Y-100675000D03*
X88325000Y-100675000D03*
X88325000Y-102425000D03*
X114100000Y-133675000D03*
X114100000Y-135425000D03*
X110600000Y-135425000D03*
X110600000Y-133675000D03*
X84675000Y-114150000D03*
X84675000Y-112400000D03*
X88175000Y-112400000D03*
X88175000Y-114150000D03*
D14*
X110325000Y-115125000D03*
X108250000Y-115125000D03*
D16*
X102200000Y-123475000D03*
D14*
X106187500Y-86175000D03*
X104112500Y-86175000D03*
D16*
X97500000Y-75500000D03*
D15*
X94050000Y-67200000D03*
X94050000Y-65450000D03*
X97550000Y-65450000D03*
X97550000Y-67200000D03*
D17*
X97975000Y-53487500D03*
X97975000Y-55562500D03*
D15*
X82275000Y-145700000D03*
X82275000Y-143950000D03*
X85775000Y-143950000D03*
X85775000Y-145700000D03*
D18*
X98100000Y-61825000D03*
D12*
X91575000Y-163700000D03*
D15*
X113700000Y-107525000D03*
X113700000Y-109275000D03*
X110200000Y-109275000D03*
X110200000Y-107525000D03*
D19*
X102000000Y-68737500D03*
X102000000Y-66662500D03*
D14*
X107400000Y-102300000D03*
X105325000Y-102300000D03*
D15*
X109350000Y-95200000D03*
X109350000Y-96950000D03*
X105850000Y-96950000D03*
X105850000Y-95200000D03*
X89925000Y-90075000D03*
X89925000Y-88325000D03*
X93425000Y-88325000D03*
X93425000Y-90075000D03*
D12*
X102630000Y-163710000D03*
D13*
X91437500Y-79675000D03*
X93512500Y-79675000D03*
D20*
X99375000Y-49400000D03*
D21*
X100400000Y-49400000D03*
D15*
X117275000Y-122000000D03*
X117275000Y-123750000D03*
X113775000Y-123750000D03*
X113775000Y-122000000D03*
D16*
X102000000Y-75450000D03*
D14*
X107325000Y-156775000D03*
X105250000Y-156775000D03*
D13*
X88725000Y-151800000D03*
X90800000Y-151800000D03*
D18*
X101475000Y-61850000D03*
D15*
X78500000Y-126225000D03*
X78500000Y-124475000D03*
X82000000Y-124475000D03*
X82000000Y-126225000D03*
D13*
X91012500Y-118450000D03*
X93087500Y-118450000D03*
D16*
X97375000Y-123500000D03*
D14*
X117712500Y-128200000D03*
X115637500Y-128200000D03*
D15*
X111275000Y-147975000D03*
X111275000Y-149725000D03*
X107775000Y-149725000D03*
X107775000Y-147975000D03*
M02*
